<?xml version="1.0" encoding="utf-8"?>
<!-- Generator: Adobe Illustrator 22.0.1, SVG Export Plug-In . SVG Version: 6.00 Build 0)  -->
<svg version="1.1" id="Warstwa_1" xmlns="http://www.w3.org/2000/svg" xmlns:xlink="http://www.w3.org/1999/xlink" x="0px" y="0px"
	 viewBox="0 0 612 320.6" style="enable-background:new 0 0 612 320.6;" xml:space="preserve">
<style type="text/css">
	.st0{fill:#C47A00;}
	.st1{fill:#F8F4E8;stroke:#DB7B00;stroke-width:2;stroke-miterlimit:10;}
	.st2{fill:none;stroke:#C47A00;stroke-width:0.75;stroke-miterlimit:10;stroke-dasharray:3.0086,3.0086;}
	.st3{fill:#FFFFFF;}
	.st4{fill:#300601;}
</style>
<g>
	<g>
		<path class="st0" d="M547.3,263.4H57.2c-0.6,0-1,0.5-1,1s0.5,1,1,1h192.6c0.2,0.9,0.6,1.7,1.4,2.3c1.1,0.9,2.5,1.6,4.1,2
			c-0.8,1.4-0.9,2.4-0.4,3c0.5,0.7,1.3,0.9,2.5,0.7c0.8,0,1.5-0.2,2-0.6c0.6-0.3,1.2-0.7,1.9-1c-0.2,0.8-0.4,1.4-0.9,2
			c-0.4,0.6-0.6,1.1-0.4,1.4c0.1,0.6,0.5,0.9,1.2,0.9c0.7,0.1,1.5-0.1,2.4-0.7c0.8-0.2,1.6-0.7,2.4-1.4c0.8-0.7,1.6-1.4,2.4-2.1
			c0.7-0.7,1.4-1.5,2-2.2c0.6-0.7,1.1-1.3,1.6-1.8c0.7-0.7,1.7-1.4,3-1.9c1.3-0.5,2.3-0.7,3.1-0.7c0.3,0.1,0.4,0.4,0.5,0.9
			c0.1,0.6-0.1,0.9-0.4,1.1c-2.1,1.2-3.4,2.9-3.9,4.9c-0.1,0.7-0.2,1.4-0.3,2.3c-0.1,0.9-0.2,1.7-0.3,2.6c-0.1,0.8-0.2,1.5-0.4,2.2
			c-0.2,0.6-0.6,0.9-1.1,0.9c-0.2,0-0.4-0.1-0.4-0.2c-0.1-0.2-0.2-0.4-0.3-0.6c-0.2-0.2-0.3-0.4-0.6-0.5c-0.2-0.1-0.6-0.2-1.1-0.1
			c-0.4,0.1-0.7,0.3-1.1,0.7c-0.4,0.4-0.4,1-0.3,1.6c0.1,0.9,0.6,1.7,1.3,2.3c0.7,0.6,1.5,0.8,2.5,0.7c1.4-0.3,2.4-0.9,3.1-1.8
			c0.7-0.9,1.1-1.9,1.5-2.9c0.3-1,0.5-2,0.7-3c0.1-0.9,0.3-1.5,0.6-1.8c0.3-0.2,0.8-0.3,1.4-0.2c0.7,0,1.3,0.1,2.1,0.1
			c0.7,0,1.4,0,2.1-0.3c0.7-0.2,1.1-0.9,1.3-1.8c0.2-0.7,0.1-1.2-0.2-1.6c-0.3-0.5-0.7-0.9-1.1-1.3c-0.4-0.4-0.9-0.7-1.5-1
			c-0.5-0.3-1-0.6-1.3-0.9c-0.3-0.3-0.5-0.7-0.6-1.2c-0.1-0.5,0.1-0.8,0.6-0.8c2.4-0.1,4.8,0.1,7,0.8c2.2,0.7,4.2,1.7,5.8,3
			c1.7,1.3,3.1,2.9,4.1,4.8c1.1,2,1.7,4.2,1.9,6.5h-1.3c-0.2-0.9-0.7-1.6-1.4-2.1c-0.7-0.5-1.5-0.7-2.4-0.7c-1,0-1.8,0.3-2.6,1
			c-0.8,0.7-1.2,1.6-1.1,2.7c0,1.2,0.4,2.2,1.2,2.9c0.7,0.7,1.6,1.1,2.6,1.1c0.9,0,1.8-0.2,2.5-0.8c0.7-0.5,1.2-1.2,1.3-2h1.4
			c-0.1,2.2-0.5,4.2-1.3,5.9c-0.8,1.7-1.8,3.2-2.9,4.4c-1.2,1.2-2.5,2.1-4,2.7c-1.5,0.6-2.9,0.9-4.4,0.8c-1.5-0.1-2.8-0.5-4.1-1.4
			c-1.3-0.9-1.9-2.1-1.8-3.7c0-0.8,0.2-1.5,0.7-2.2c0.4-0.7,1-1,1.9-1c0.5,0.1,0.8,0.3,0.9,0.7c0.1,0.4,0.2,0.8,0.4,1.2
			c0.1,0.3,0.4,0.6,0.8,0.8c0.4,0.2,0.8,0.2,1.1,0c0.4,0,0.8-0.3,1-0.7c0.2-0.4,0.4-0.9,0.4-1.3c0.1-1-0.2-2-0.9-2.9
			c-0.7-1-1.6-1.5-2.8-1.5c-1.6,0-3.1,0.7-4.5,2c-1.4,1.3-2,3.1-1.9,5.3c0.2,2,0.8,3.5,1.7,4.8c0.9,1.2,2,2.2,3.4,2.9
			c1.3,0.7,2.8,1.1,4.4,1.3c1.5,0.2,3.1,0.1,4.4-0.2c0.2,0.4,0.5,0.7,0.8,0.9c0.3,0.2,0.9,0.3,1.6,0.3c0.7,0,1.2-0.2,1.6-0.7
			c0.4-0.5,0.8-1,1.2-1.5c1.5-2.4,2.5-5.3,3-8.5c0.6-3.2,0.8-6.4,0.7-9.6c0-2.6-0.6-5.1-1.5-7.3c-1-2.2-2.4-4.1-4.1-5.7
			c-1.4-1.3-3-2.3-4.8-3.1h23.1c-1.8,0.8-3.4,1.8-4.8,3.1c-1.8,1.6-3.1,3.5-4.1,5.7c-1,2.2-1.5,4.6-1.6,7.3
			c-0.1,3.2,0.2,6.4,0.7,9.6c0.6,3.2,1.5,6.1,2.9,8.5c0.4,0.5,0.8,1.1,1.2,1.5c0.4,0.5,1,0.7,1.6,0.7c1.2,0,2-0.4,2.4-1.1
			c1.5,0.3,3,0.4,4.5,0.2c1.5-0.1,3-0.6,4.3-1.3c1.3-0.7,2.4-1.7,3.4-2.9c1-1.2,1.5-2.8,1.6-4.8c0.2-2.2-0.5-4-1.9-5.3
			c-1.5-1.3-2.9-2-4.5-2c-1.2,0-2.1,0.6-2.7,1.5c-0.6,1-0.9,2-0.9,2.9c0.1,0.5,0.2,0.9,0.4,1.3c0.2,0.4,0.5,0.6,0.9,0.7
			c0.9,0.2,1.5,0,1.9-0.8c0.2-0.4,0.4-0.8,0.4-1.2c0.1-0.4,0.4-0.7,0.8-0.7c0.8,0,1.5,0.4,1.9,1c0.4,0.7,0.7,1.4,0.7,2.2
			c0,1.6-0.6,2.9-1.8,3.7c-1.2,0.9-2.6,1.3-4,1.4c-1.5,0.1-2.9-0.2-4.4-0.8c-1.5-0.6-2.8-1.5-3.9-2.7c-1.2-1.2-2.2-2.6-3-4.4
			c-0.8-1.7-1.2-3.7-1.3-5.9h1.4c0.1,0.8,0.6,1.4,1.3,2c0.7,0.5,1.5,0.8,2.4,0.8c1.1,0,2-0.4,2.7-1.1c0.7-0.7,1.1-1.6,1.1-2.9
			c0.1-1.1-0.3-2-1.1-2.7c-0.8-0.7-1.7-1-2.7-1c-0.8,0-1.5,0.2-2.3,0.7c-0.7,0.5-1.3,1.2-1.5,2.1h-1.3c0.2-2.4,0.9-4.5,1.9-6.5
			c1.1-2,2.4-3.6,4.2-4.8c1.7-1.3,3.7-2.3,5.9-3c2.2-0.7,4.6-0.9,7-0.8c0.4,0,0.6,0.2,0.5,0.8c-0.1,0.5-0.3,0.9-0.6,1.2
			c-0.3,0.4-0.8,0.7-1.3,1c-0.5,0.3-1,0.7-1.5,1c-0.4,0.4-0.8,0.7-1.1,1.2c-0.3,0.4-0.4,1-0.2,1.6c0.2,1,0.6,1.6,1.3,1.8
			c0.6,0.2,1.3,0.3,2.1,0.3c0.8,0,1.5-0.1,2.2-0.1c0.7-0.1,1.1,0,1.4,0.2c0.3,0.3,0.5,0.9,0.6,1.8c0.2,0.9,0.4,2,0.7,3
			c0.3,1.1,0.8,2,1.5,2.9c0.7,0.9,1.7,1.5,3,1.8c0.9,0.2,1.8-0.1,2.5-0.7c0.7-0.6,1.2-1.4,1.3-2.3c0.2-0.6,0-1.1-0.3-1.6
			c-0.3-0.4-0.7-0.7-1-0.7c-0.5,0-0.9,0-1.2,0.1c-0.3,0.1-0.4,0.3-0.6,0.5c-0.1,0.2-0.2,0.4-0.2,0.6c-0.1,0.2-0.2,0.2-0.4,0.2
			c-0.5,0-0.9-0.3-1.1-0.9c-0.2-0.6-0.4-1.3-0.5-2.2c-0.1-0.9-0.2-1.7-0.2-2.6c-0.1-0.9-0.2-1.6-0.3-2.3c-0.2-1.1-0.7-2-1.3-2.8
			c-0.7-0.9-1.5-1.5-2.5-2.1c-0.3-0.1-0.4-0.5-0.3-1.1c0.1-0.6,0.2-0.9,0.5-0.9c0.8,0,1.8,0.2,3.1,0.7c1.3,0.5,2.3,1.1,3,1.9
			c0.4,0.5,0.9,1.1,1.5,1.8c0.7,0.7,1.3,1.4,2,2.2c0.8,0.7,1.5,1.4,2.4,2.1c0.9,0.7,1.7,1.1,2.4,1.4c0.9,0.5,1.7,0.7,2.4,0.7
			c0.7-0.1,1.1-0.4,1.2-0.9c0.1-0.4-0.1-0.8-0.5-1.4c-0.4-0.6-0.7-1.3-0.7-2c0.7,0.3,1.3,0.7,1.9,1c0.6,0.3,1.2,0.5,2,0.6
			c1.2,0.2,2-0.1,2.5-0.7c0.5-0.6,0.3-1.6-0.4-3c1.6-0.4,3-1,4.1-2c0.8-0.6,1.2-1.4,1.4-2.3h192.6c0.6,0,1-0.5,1-1
			S547.9,263.4,547.3,263.4z M279.2,272.2c-0.4,0-0.7-0.2-0.7-0.7c0-0.3,0.2-0.5,0.7-0.5c0.4,0,0.6,0.2,0.6,0.5
			C279.8,272,279.6,272.2,279.2,272.2z M259.4,265.5h1.8C260.6,265.5,260,265.5,259.4,265.5z M343.2,265.5h1.8
			C344.4,265.5,343.8,265.5,343.2,265.5z"/>
		<path class="st0" d="M40.1,260.9h524.5c0.2,0,0.4-0.5,0.4-1s-0.2-1-0.4-1H40.1c-0.2,0-0.4,0.5-0.4,1S39.9,260.9,40.1,260.9z"/>
	</g>
	<g>
		<g>
			<path class="st0" d="M550.5,60.5c1.9-0.6,3.2-1.6,3.9-3.1c-3,1.2-6.1,1.8-9.4,1.8c-3.2,0.1-6.3-1-9.2-3c0.1,1.4,1.1,2.6,2.8,3.4
				c1.7,0.9,3.6,1.4,5.7,1.6C546.5,61.3,548.5,61.1,550.5,60.5z"/>
			<path class="st0" d="M536.1,47.5c0.6,1.3,1.1,2.8,1.4,4.2c0.4,1.5,1.2,2.8,2.2,3.8c1,1.1,3.1,1.5,6.5,1.2c2.6-0.3,4.7-0.9,6-2
				c1.4-1.1,2.5-2.4,3.3-3.7c0.9-1.4,1.6-2.8,2.3-4.1c0.8-1.4,1.8-2.5,3.1-3.3c-1.2-0.4-2-0.5-2.8-0.3c-0.8,0.1-1.4,0.4-2,0.8
				c-0.7,0.4-1.4,0.8-1.9,1.2c-0.7,0.5-1.3,0.8-2,1.1c-0.7-0.8-0.5-1.8,0.3-2.8c0.8-1.1,1-2.1,0.9-3.2c-0.1-1-0.8-2-2-2.7
				c-1.1-0.8-1.9-1.6-2.7-2.3c-1,0.8-2.2,1.8-3.6,2.9c-1.3,1.1-2,2.4-1.9,3.8c-0.2,0.7,0,1.5,0.3,2.2c0.4,0.7,0.7,1.4,0.9,2
				c0.2,0.6,0.3,1.3,0.2,1.9c-0.1,0.6-0.6,1.1-1.7,1.6c-0.6-0.8-1.2-1.8-1.8-2.8c-0.6-1-1.2-2-2-2.7c-0.8-0.7-1.7-1.1-2.9-1.1
				c-1.2,0-2.8,0.6-4.8,1.9C533.9,45.4,535.4,46.2,536.1,47.5z"/>
			<path class="st0" d="M532,74c0.8,0.7,1.8,1.3,2.9,1.8c1,0.4,2.1,0.7,3.4,0.7c1.2,0.2,2.5,0,3.7-0.4c1.1-1.9,2.1-4,2.9-6.2
				c0.7-2.3,0.8-4.4,0.2-6.6c-2-0.4-3.7-0.8-5.4-1.3c-1.7-0.5-3.3-1.1-4.5-1.8c-0.3,0.9-0.9,1.8-1.6,2.8c-0.7,0.9-1.4,1.9-2.1,2.9
				c-0.5,1.1-1,2-1.3,2.9c-0.3,0.9-0.3,1.8,0.1,2.7C530.6,72.4,531.2,73.2,532,74z"/>
			<path class="st0" d="M545.3,76.6c1.3,0.7,2.7,1,4.3,0.9c1.6-0.1,2.8-0.5,4.1-1.2c1.7-1.2,3.1-2.5,4-3.9c1-1.4,1.5-2.8,1.7-4.2
				c0.1-1.4-0.2-2.7-0.9-4c-0.7-1.3-1.7-2.4-2.9-3.2c-1.2,0.7-2.3,1.3-3.3,1.9c-1,0.5-2.2,1-3.5,1.5c0.6,2.1,0.6,4.2-0.1,6.4
				C547.8,72.8,546.8,74.8,545.3,76.6z"/>
			<path class="st0" d="M572.4,87.8c-2.5-0.1-4.7,0-6.8,0.5c-2,0.6-3.9,1.3-5.9,2.2c-1.9,0.8-4.1,1.2-6.5,1.4
				c0.7-0.9,1.5-2.3,2.3-4.1c0.9-1.8,1.2-3.4,0.6-4.7c-0.9,1.9-2.5,3.7-4.8,5.6c-2.4,1.9-4.8,3.7-7.3,5.6c-2.6,1.8-4.9,3.5-7.1,5.1
				c-2.1,1.6-3.6,3-4.2,4.3c0.9-1.8,1.9-3.7,3.2-5.6c1.3-2,2.4-3.8,3.6-5.7c1-1.9,2.1-3.7,3.1-5.4c0.8-1.8,1.5-3.5,1.8-5
				c-0.3-0.3-0.9-0.6-1.4-0.9c-0.6-0.3-1-0.5-1.3-0.7c-1.1,2.4-2.6,5-4.3,7.8c-1.6,2.8-3.4,5.6-5.4,8.4c-2,2.7-4.1,5.4-6.3,8.1
				c-2.2,2.7-4.5,5.1-6.9,7.4c-0.5-2.3-0.3-4.9,0.5-7.7c0.8-2.8,1.8-5.8,2.7-8.9c1-3.2,1.7-6.5,2.2-9.8c0.5-3.4,0.2-6.8-1-10.1
				c-0.7-0.6-1.6-1.1-2.5-1.8c-0.9-0.7-1.6-0.8-2.2-0.5c2.2,3.4,3.1,7.1,2.8,11.3c-0.4,4.1-1.1,8.2-2.1,12.1
				c-1.1,4-2.1,7.5-2.9,10.6c-0.9,3.2-0.6,5.4,0.6,6.7c-1.7,1.4-3.5,2.9-5.5,4.4c-2,1.6-4,3.2-5.9,4.7c-2,1.5-3.9,2.8-6,4
				c-2,1.1-3.8,2-5.5,2.4c2.5-2.6,4.6-5,6.4-7.4c1.8-2.4,3.3-4.8,4.5-7.3c0.8-1.4,1.3-2.8,1.9-4.3c0.5-1.6,1.1-3.1,1.8-4.5
				c0.8-1.6,1.7-3.1,2.9-4.5c1.1-1.4,2.6-2.7,4.5-3.9c-3.7-0.2-6.8,0.5-9,1.9c-2.3,1.5-4,2.9-5.2,4.2c-1.7-1-2.8-1.9-3-2.9
				c-0.2-0.9,0.1-1.8,0.8-2.7c0.7-1,1.7-1.9,2.9-2.9c1.3-0.9,2.6-1.9,3.8-3c1.3-1.1,2.3-2.2,3.3-3.3c0.9-1.2,1.2-2.5,1.1-3.8
				c-1.4,0.2-2.9,0.4-4.6,1c-1.8,0.5-3.4,1.2-5.1,2.1c-1.6,0.8-3.1,1.7-4.4,2.5c-1.3,0.9-2.3,1.8-2.9,2.6c-1.8-2.1-2.5-5-1.9-8.4
				c0.4-3.5,1.8-7.1,3.7-10.8c-2.2,1.3-4.2,2.8-6.2,4.9c-2,2.1-3.5,4.1-4.6,6.4c-1.1,2.2-1.7,4.4-1.8,6.5c0,2,0.8,3.8,2.6,5
				c-1.5,0.3-3.3,0.4-5.6,0.5c-2.2-0.1-4.1-0.2-5.4-0.7c-0.1,1.5,0.5,2.6,1.7,3.4c1.2,0.8,2.6,1.3,4.2,1.7c1.6,0.4,2.9,0.7,4.3,1
				c1.2,0.2,1.8,0.6,1.9,1.2c-0.1,0.3-0.5,0.6-1.6,0.8c-0.9,0.3-2,0.6-3.2,1c-1.2,0.4-2.2,0.9-3.3,1.5c-1,0.7-1.5,1.7-1.5,2.7
				c1.1,0.3,2.2,0.4,3.4,0.3c1.1-0.1,2.3-0.2,3.4-0.2c1.2-0.1,2.3,0,3.4,0.2c1.1,0.3,2,0.7,2.9,1.4c1.6,1.4,2.6,3.1,3.1,5
				c0.6,1.9,0.6,3.9,0.2,6c-0.6,2-1.5,4.1-3,6c-1.4,2-3.4,3.8-5.9,5.3c3.4-2.7,5.7-5.6,6.5-8.8c0.9-3.2,0.9-5.9,0-8.2
				c-0.8-2.3-2.4-3.7-4.6-4.3c-2.3-0.7-4.8,0.5-7.5,3c2.6,0.6,4.7,1.4,6,2.7c1.5,1.2,2.2,2.6,2.2,4.1c0,1.6-0.5,3.1-1.7,4.8
				c-1.2,1.6-2.9,3-5.3,4.1c-3.3,1.5-7.1,2.7-11.9,3.6c-4.7,0.8-9.9,1.4-15.5,1.7c-5.5,0.3-11.4,0.4-17.7,0.1
				c-4.9-0.1-9.7-0.4-14.5-0.7c0.9-0.4,1.8-0.7,2.6-1.1c4.9-2.3,9-4.7,12.4-7.2c1.9-1.5,3.8-2.4,5.6-2.9c1.8-0.4,3.3-0.4,4.6,0
				c1.3,0.3,2.2,0.3,2.7,0c0.6-0.2,0.9-0.6,1.1-1.1c0.2-0.4,0.2-1,0.1-1.6c-0.1-0.6-0.3-1.1-0.8-1.6c-1-1.1-2-1.7-3-1.8
				c-1-0.2-2.6-0.4-4.4-0.5c0.4-1.3,1.2-2.1,2.2-2.5c1-0.5,2.2-0.6,3.7-0.7c1.4,0,2.9,0.2,4.5,0.4c1.6,0.2,3.1,0.4,4.4,0.3
				c1.5,0.1,2.3-0.2,2.3-0.9c0.1-0.6-0.4-1.2-1.5-1.7c-1.4-1-2.5-1.5-3.3-1.8c-0.8-0.2-1.1-0.7-1.1-1.7c0.1-0.6,0.8-1,1.9-1.5
				c1.2-0.3,2.5-0.5,4-0.6c1.5,0,2.9,0.2,4.2,0.5c1.3,0.3,2.2,0.9,2.5,1.8c0.3,0.7,0.4,1.3,0.2,1.8c-0.1,0.5-0.4,1.1-0.8,1.5
				c-0.4,0.6-0.8,1-1.2,1.6c-0.4,0.5-0.8,1.1-0.9,1.7c-0.2,0.7-0.2,1.5,0.1,2.1c0.3,0.6,0.6,1.2,1,1.8c0.5,0.5,1,0.8,1.7,0.9
				c0.7,0.2,1.2,0,1.9-0.3c1.7-0.9,2.7-2.5,3-4.6c0.3-2.2,0.1-4.2-0.5-6.2c-0.6-1.8-1.6-3.4-2.7-4.6c-1.3-1.3-2.7-2.3-4.3-3
				c-1.6-0.7-3.4-1.3-5.2-1.6c-1.9-0.4-4-0.6-5.9-0.6c-0.8,0-1.4,0.3-1.8,0.9c-0.4,0.7-0.6,1.3-0.9,2.1c-0.2,0.7-0.6,1.3-1,1.9
				c-0.5,0.7-1.2,0.9-2.1,0.9c0-2.3-0.2-4.2-0.6-6c-0.5-1.8-1.1-3.2-2-4.3c-1-1.1-2.1-1.8-3.4-2.2c-1.4-0.4-3-0.3-4.9,0.3
				c-1.5-1.8-2.9-3.2-4.4-4.4c-1.5-1.1-3.4-1.7-6-1.6c-1.5,0.1-2.9,0.5-4.1,1.3c-1.1,0.7-1.9,1.8-2.2,3.4c-1.2-0.4-2.4-0.4-3.8,0.1
				c-1.3,0.5-2.4,1.1-3.4,2c-1,1-1.8,2-2.4,3.3c-0.5,1.3-0.7,2.5-0.5,3.7c0.9,4.5,3.2,6.6,6.7,6.3c-0.4-0.9-0.2-1.5,0.7-1.8
				c1.1-0.3,1.9-0.2,2.8,0.4c1.5,1.1,2.3,2.7,2.2,4.9c0,2.3-0.6,4.5-1.7,6.9c-1,2.4-2.7,4.6-4.6,6.5c-2.1,2-4.4,3.3-7.2,3.8
				c0.5-1.6,1.2-3.1,1.8-4.6c0.6-1.4,1.3-2.9,1.9-4.2c0.6-1.4,0.7-2.3,0.1-2.8c-0.6-0.4-1.3-0.2-1.9,0.6c-1.5,1.6-2.9,3.2-4.2,4.8
				c-1.3,1.5-2.6,3-4,4.3c-1.5,1.4-3,2.6-4.5,3.6c-1.7,1-3.5,1.9-5.6,2.6c-3.3,1.1-6.1,1.3-8.6,0.9c-2.6-0.6-4.5-1.6-6.1-3.3
				c1.4,0,2.7-0.2,4.1-0.5c1.4-0.4,2.5-0.9,3.5-1.5c1-0.7,1.7-1.4,2.1-2.3c0.3-0.9,0.3-1.7-0.2-2.7c-2.3,1-4.6,1.6-7.4,1.7
				c-2.7,0.1-5.3-0.4-7.9-1.2c-2.6-1-4.8-2.3-6.8-4c-2-1.8-3.3-3.9-3.8-6.5c-0.4-1.8-0.4-3.6,0.1-5.4c0.5-1.9,1.3-3.5,2.5-4.9
				c1.1-1.4,2.5-2.5,4.2-3.2c1.6-0.7,3.4-0.9,5.5-0.6c0.8,0.2,1.5,0.2,2.2-0.2c0.6-0.3,1-0.7,1.2-1.2c0.3-0.4,0.3-1,0.2-1.6
				c-0.2-0.8-0.4-1.3-0.9-1.9c-0.8-0.9-1.7-1.7-3-2.4c-1.3-0.7-2.6-1.2-4.1-1.4c3-3,6.3-4.9,10.1-5.9c3.7-0.9,7.2-1,10.5-0.3
				c3.2,0.7,5.9,2.2,8.1,4.6c2.1,2.4,3,5.5,2.6,9.2c-3.2-1.6-6.2-1.9-9.2-0.8c-1.4,0.5-2.5,1.4-3.3,2.7c-0.8,1.3-1.2,2.9-0.8,4.5
				c1.1,4,4,5.8,8.9,5.3c2.3-0.3,4.4-1.2,6.1-2.8c1.8-1.5,2.8-3.7,3.1-6.6c0.4-3.3,0.1-6.4-1.1-9.1c-1.3-2.7-3.1-5.3-5.3-7.6
				c0.5-1.1,1.6-1.9,3.3-2.3c1.5-0.5,3-0.5,4.2-0.2c-0.3-1.4-0.9-2.6-1.9-3.3c-0.9-0.8-2-1.3-3.1-1.2c-1.1-0.1-2.3,0.3-3.5,0.9
				c-1.2,0.7-2.2,1.8-3,3.4c-3.8-1.6-8-2-12.4-1.3c-4.4,0.8-8.3,2.1-11.5,3.9c-3.2,1.7-5.9,3.9-7.8,6.3c-2,2.5-3.4,4.9-4.3,7.5
				c-0.8,2.7-1.3,5.4-1.2,8.2c0.1,2.8,0.4,5.5,0.9,8.2c0.4,2.1,1.2,4.2,2.4,6.1c1.3,2,2.5,3.9,3.8,5.8c1.3,2,2.5,3.9,3.7,5.8
				c1.3,1.9,2,3.8,2.4,5.8c0.3,1.4,0.3,2.8,0,4.2c-0.2,1.4-0.9,2.9-1.9,4.5c1.7,0,3.4-0.3,4.7-1.1c1.2-0.7,2.3-1.7,3-2.9
				c0.7-1.2,1.1-2.5,1.2-4c0.2-1.4-0.2-2.8-0.9-4.2c4.8,2.9,10.1,4.9,15.6,5.8c5.5,0.9,11.1,0.8,16.6-0.3c0.8-0.2,1.5-0.3,2.3-0.5
				c2.9,0.6,6.5,1,10.9,1.3c4.8,0.4,10.2,0.5,16,0.4c5.8-0.1,11.8-0.4,18-0.8c6.3-0.4,12.3-1.1,18.1-2c5.9-0.9,11.3-2,16.4-3.2
				c5-1.3,9.2-2.7,12.5-4.3c1.7-0.8,3.7-1.2,6-1c2.3,0,4.1,0.8,5.2,2.3c1.1,1.3,1.8,2.8,2,4.4c0.2,1.6,1,2.9,2.3,4
				c1.2,1,2.7,1.5,4.6,1.8c1.8,0.2,3.6,0.1,5.2-0.2c-0.6-0.9-0.9-1.9-0.8-2.7c0.1-0.9,0.2-1.7,0.3-2.5c0.2-0.8,0.2-1.7-0.1-2.7
				c-0.2-0.9-0.9-1.9-2-2.7c-1.5-1.3-3.1-2.1-4.8-2.6c-1.7-0.4-3.3-0.6-4.9-0.6c-1.6-0.1-3.3-0.1-4.9-0.1c-1.6,0-3.3-0.1-4.8-0.6
				c3.5-1.9,6.7-4.1,9.4-6.2c2.8-2.2,5.3-4.3,7.4-6.5c2.4,1.9,4.9,2.8,7.3,3c2.5,0.1,4.9,0.2,7,0.2c2.3,0,4.1,0.2,5.5,0.7
				c1.5,0.5,2.4,2,2.7,4.5c2-1.4,3-3.1,3.2-5c0.3-2-0.4-3.5-2.1-4.7c1-0.2,2.5-0.5,4.4-0.9c2-0.3,3.9-0.8,5.9-1.4
				c2.1-0.6,3.9-1.4,5.5-2.2c1.5-0.9,2.6-2,2.9-3.2c0.1-0.8-0.2-1.4-0.8-2c-0.5-0.5-1.3-0.9-2.1-1.4c-0.8-0.5-1.5-0.8-2.3-1
				c-0.7-0.3-1-0.6-1.1-0.8c0.1-0.7,0.8-1.1,2.2-1.3c1.4-0.2,3.1-0.5,5.3-1c2.2-0.5,4.7-1.3,7.5-2.3c2.8-1.1,5.6-2.9,8.7-5.3
				C577.9,89,574.8,88,572.4,87.8z M417.9,127.2c2.9-3.2,5.2-6.7,6.6-10.4c1.4-3.6,2-7.4,1.7-11.2c-0.3-3.8-1.4-7.3-3.4-10.6
				c-0.4-0.5-0.3-1-0.2-1.5c0.3-0.4,0.7-0.8,1.1-1.1c0.6-0.2,1.2-0.3,1.9-0.2c0.8,0,1.4,0.3,2.2,0.8c1.5,1.2,2.7,2.9,3.6,5
				c0.9,2.2,1.6,4.6,1.9,7.1c0.4,2.7,0.5,5.3,0.3,8c-0.2,2.7-0.6,5-1.3,7.1c-0.9,2.3-2.2,4.5-3.9,6.5c-1.7,1.9-3.7,3.6-6,4.8
				c-2.3,1.4-4.7,2.3-7.4,3.1c-2.6,0.7-5.3,1-8,0.8C411.3,133.3,415,130.6,417.9,127.2z M495.9,121.2c0.2-2.4,0.1-4.6-0.6-6.9
				c-0.7-2.2-1.5-4.4-2.7-6.6c-1.3-2.1-2.2-4.1-3.1-6c-0.9-1.9-1.4-3.8-1.6-5.5c-0.1-1.7,0.5-3.4,1.9-5.1c-0.1,2.9,0.3,5.3,1.1,7.6
				c0.8,2.2,1.8,4.3,2.9,6.2c1.2,1.9,2.1,3.7,3.1,5.5c1,1.8,1.5,3.6,1.8,5.4c0.2,1.8-0.2,3.7-1.1,5.8c-0.9,2.1-2.8,4.3-5.5,6.6
				C494.4,125.9,495.6,123.6,495.9,121.2z M536.5,101.3c1.4-1,2.8-1.9,4.2-2.6c1.5-0.8,2.8-1.3,4.3-1.8c1.4-0.5,2.6-0.6,3.7-0.7
				c-1.2,0.4-2.3,0.9-3.7,1.7c-1.4,0.7-2.7,1.4-4,2.2c-1.4,0.8-2.7,1.6-4,2.4c-1.4,0.8-2.6,1.3-3.7,1.7
				C534.1,103.2,535.2,102.3,536.5,101.3z M545.8,110.9c-3.8,1.1-7.4,1.9-10.6,2.5c-3.3,0.6-6.1,0.8-8.3,0.7
				c-2.2-0.1-3.2-0.7-2.8-1.7c3.7,0.3,7.4-0.1,11-0.8c3.7-0.8,6.9-1.5,9.8-2.4c2.8-0.8,5.3-1.5,7.1-2.1c1.9-0.7,3-0.7,3.5-0.1
				C552.8,108.5,549.6,109.8,545.8,110.9z M552.6,101.9c-2.4,1.5-5.1,2.9-8,4.1c-2.9,1.2-5.8,2-8.6,2.7c-2.9,0.7-5.3,0.7-7.3,0
				c4.9-1.7,10.1-3.5,15.7-5.4c5.6-2,10.3-3.8,14.3-5.6C557.2,99,555.2,100.4,552.6,101.9z"/>
			<path class="st0" d="M465.8,145.6c0.8,1.2,1,2.3,0.9,3.6c-0.3,1.3-0.7,2.6-1.1,4c-0.6,1.4-1.1,2.8-1.4,4.2
				c-0.4,1.5-0.3,3,0.2,4.4c-0.8-0.8-1.3-1.8-1.5-3.1c-0.3-1.3-0.4-2.6-0.6-3.7c-1.3,0.5-2.7,1.5-4.2,3c-1.6,1.4-2.5,2.9-2.9,4.5
				c-0.5-1.2-0.3-2.5,0.6-3.8c0.9-1.3,1.9-2.5,3.2-3.7c1.2-1.2,2.4-2.4,3.4-3.6c1-1.1,1.5-2.2,1.4-3.2c-0.2-1.8-1.5-3.1-4-4
				c-0.5,1.4-0.7,2.8-0.8,4.1c-0.1,1.4-0.6,2.7-1.9,4c-0.2-0.9-0.4-1.7-0.5-2.6c0-1-0.2-1.9-0.4-2.8c-0.2-0.9-0.5-1.7-1-2.4
				c-0.5-0.7-1.2-1.3-2.2-1.7c-1.6-0.7-3.5-0.9-5.7-0.4c-2.3,0.4-4.6,1-7.1,1.7c2.3,0.4,3.9,1.2,5,2c1,0.9,1.6,2.1,1.9,3.2
				c0.1,1.2-0.1,2.4-0.6,3.8c-0.5,1.4-1.1,2.8-1.8,4.3c2.2-1,4-2.4,5.6-4.5c1.5-2,2.4-3.9,2.6-5.8c0.9,0.6,1.3,1.5,1.2,2.5
				c0,1-0.3,2.2-0.7,3.5c-0.4,1.3-0.8,2.6-1.3,4c-0.5,1.4-0.6,2.7-0.6,3.8c0.2,3.5,2.1,6.2,5.6,7.9c0.5-1.4,0.7-2.9,0.8-4.6
				c0.1-1.6,0.7-3.1,1.8-4.5c0.8,0.4,1.4,1,1.9,1.8c0.5,0.7,1.1,1.5,1.6,2.2c0.5,0.7,1.2,1.4,1.8,2c0.7,0.6,1.5,1,2.3,1.2
				c-0.9-1.6-0.9-3.5-0.1-5.5c0.8-2.1,1.6-4.1,2.4-6.1c0.7-2,1-3.9,0.9-5.6C470.2,148,468.8,146.6,465.8,145.6z"/>
			<path class="st0" d="M514.3,72.6c1.6,0,3.2-0.7,4.6-2c1.4-1.3,2-2.6,1.9-3.9c-0.2-1.3-0.9-2.4-2-3.2c-1.2-0.9-2.5-1.3-4.2-1.3
				c-1.7-0.1-3.2,0.6-4.7,1.9c-1.4,1.3-2,2.6-1.7,3.9c0.2,1.3,0.9,2.4,2,3.2C511.4,72.1,512.7,72.5,514.3,72.6z M513.2,67.2
				c0.3-0.5,0.8-0.7,1.5-0.6c0.6,0.2,0.8,0.5,0.6,1.1c-0.4,0.6-0.8,0.8-1.4,0.7C513.2,68.2,513,67.8,513.2,67.2z"/>
		</g>
	</g>
	<g>
		<g>
			<path class="st0" d="M53.4,63.1c-2-0.5-3.4-1.5-4.3-2.9c3.2,1.1,6.4,1.6,9.8,1.4c3.4-0.1,6.4-1.3,9.4-3.4c0,1.4-1,2.6-2.7,3.5
				c-1.7,1-3.6,1.5-5.8,1.8C57.7,63.8,55.5,63.6,53.4,63.1z"/>
			<path class="st0" d="M67.6,49.5c-0.5,1.4-1,2.9-1.3,4.3c-0.3,1.5-1.1,2.8-2,3.9c-1,1.1-3.1,1.6-6.7,1.5c-2.7-0.2-4.9-0.7-6.3-1.7
				c-1.6-1-2.8-2.3-3.7-3.5c-1-1.4-1.9-2.7-2.6-4c-0.9-1.3-2-2.4-3.4-3.2c1.2-0.4,2.1-0.6,2.8-0.5c0.8,0.1,1.5,0.3,2.1,0.7
				c0.8,0.4,1.5,0.7,2.1,1.1c0.7,0.5,1.4,0.8,2.1,1c0.7-0.8,0.5-1.8-0.4-2.8c-0.9-1-1.2-2.1-1.1-3.1c0.1-1,0.7-2,1.9-2.8
				c1.1-0.9,1.9-1.7,2.7-2.5c1.1,0.8,2.3,1.7,3.9,2.8c1.4,1.1,2.2,2.3,2.2,3.7c0.2,0.7,0.1,1.5-0.2,2.2c-0.3,0.7-0.7,1.4-0.9,2.1
				c-0.2,0.7-0.2,1.4-0.1,1.9c0.1,0.6,0.7,1.1,1.9,1.6c0.5-0.8,1.2-1.9,1.7-2.9c0.5-1.1,1.1-2.1,1.9-2.8c0.8-0.8,1.7-1.2,3-1.3
				c1.3-0.1,2.9,0.5,5.1,1.6C69.8,47.3,68.3,48.1,67.6,49.5z"/>
			<path class="st0" d="M73.4,75.8c-0.8,0.8-1.8,1.4-2.9,1.9c-1,0.5-2.2,0.8-3.5,0.9c-1.2,0.2-2.6,0.2-3.9-0.3
				c-1.3-1.9-2.4-3.9-3.4-6.1c-0.8-2.2-1.1-4.4-0.5-6.5c2-0.4,3.8-1,5.6-1.5c1.8-0.5,3.3-1.2,4.6-2c0.4,0.9,1.1,1.8,1.8,2.8
				c0.8,0.9,1.6,1.9,2.3,2.8c0.6,1,1.1,1.9,1.5,2.9c0.4,0.9,0.4,1.8,0.1,2.7C74.7,74.1,74.2,74.9,73.4,75.8z"/>
			<path class="st0" d="M59.8,79c-1.3,0.8-2.7,1.1-4.4,1.1c-1.6,0-3-0.4-4.3-1.1c-1.8-1.1-3.4-2.4-4.4-3.7c-1.1-1.4-1.7-2.7-2-4.2
				c-0.2-1.4,0.1-2.7,0.7-4.1c0.6-1.3,1.6-2.4,2.9-3.3c1.3,0.7,2.4,1.2,3.6,1.7c1,0.4,2.3,0.9,3.7,1.4c-0.5,2.1-0.4,4.2,0.5,6.4
				C56.9,75.3,58.2,77.3,59.8,79z"/>
			<path class="st0" d="M32.3,91.4c2.6-0.2,4.9-0.2,7.1,0.2c2.1,0.5,4.2,1.1,6.2,1.9c2,0.7,4.3,1.1,6.8,1.1c-0.8-0.9-1.7-2.2-2.6-4
				c-1.1-1.8-1.4-3.4-0.9-4.6c1,1.9,2.8,3.6,5.3,5.4c2.6,1.8,5.2,3.5,7.9,5.3c2.8,1.7,5.3,3.2,7.6,4.7c2.3,1.5,3.9,2.8,4.6,4.1
				c-1.1-1.8-2.2-3.6-3.7-5.5c-1.4-1.9-2.8-3.7-4.1-5.5c-1.2-1.8-2.4-3.6-3.5-5.3c-0.9-1.8-1.8-3.4-2.2-4.9c0.3-0.3,0.9-0.6,1.4-1
				c0.6-0.3,1-0.6,1.3-0.8c1.3,2.4,3,4.9,4.9,7.6c1.8,2.8,3.9,5.4,6.1,8.1c2.2,2.6,4.6,5.3,7,7.8c2.5,2.6,4.9,4.9,7.6,7.1
				c0.4-2.3,0-4.9-0.9-7.7c-1-2.8-2.2-5.8-3.3-8.8c-1.2-3.2-2.1-6.4-2.9-9.7c-0.7-3.3-0.6-6.8,0.5-10.1c0.7-0.6,1.6-1.2,2.5-1.9
				c0.9-0.7,1.7-0.9,2.2-0.6c-2.1,3.5-2.8,7.2-2.2,11.4c0.6,4.1,1.6,8.1,2.9,12c1.4,4,2.6,7.4,3.6,10.5c1.1,3.1,1,5.4-0.2,6.7
				c1.8,1.3,3.8,2.7,6,4.2c2.1,1.5,4.3,3,6.4,4.4c2.2,1.5,4.2,2.7,6.5,3.7c2.1,1,4.1,1.8,5.8,2.2c-2.8-2.5-5.1-4.8-7-7.1
				c-2-2.3-3.7-4.6-5.1-7.1c-0.9-1.3-1.5-2.8-2.2-4.2c-0.6-1.5-1.3-3-2.1-4.4c-0.9-1.5-2-3-3.2-4.4c-1.3-1.4-2.9-2.6-4.9-3.7
				c3.9-0.3,7.1,0.2,9.5,1.5c2.5,1.4,4.3,2.7,5.7,4c1.7-1,2.8-2,3-3c0.1-0.9-0.2-1.8-1-2.7c-0.8-1-1.9-1.9-3.2-2.7
				c-1.4-0.9-2.9-1.8-4.1-2.8c-1.4-1-2.6-2.1-3.6-3.2c-1-1.1-1.4-2.4-1.4-3.7c1.5,0.1,3,0.3,4.8,0.8c1.9,0.4,3.6,1,5.4,1.8
				c1.7,0.7,3.3,1.5,4.7,2.3c1.4,0.9,2.5,1.7,3.2,2.5c1.7-2.2,2.3-5.1,1.5-8.5c-0.6-3.5-2.2-7-4.5-10.7c2.3,1.2,4.5,2.7,6.7,4.6
				c2.2,2,3.9,4,5.1,6.2c1.3,2.2,2.1,4.3,2.3,6.4c0.1,2-0.6,3.8-2.4,5.2c1.5,0.2,3.5,0.3,5.8,0.2c2.3-0.2,4.2-0.4,5.6-1
				c0.2,1.5-0.3,2.7-1.5,3.5c-1.2,0.8-2.6,1.5-4.2,1.9c-1.6,0.5-3,0.8-4.4,1.2c-1.2,0.3-1.9,0.7-1.9,1.3c0.1,0.3,0.5,0.6,1.7,0.8
				c1,0.2,2.1,0.5,3.3,0.8c1.2,0.3,2.4,0.8,3.5,1.4c1.1,0.7,1.7,1.6,1.7,2.6c-1.1,0.3-2.3,0.5-3.5,0.4c-1.2-0.1-2.4-0.1-3.5-0.1
				c-1.2,0-2.4,0.1-3.5,0.4c-1.1,0.3-2.1,0.8-3,1.6c-1.6,1.5-2.5,3.2-2.9,5.2c-0.5,2-0.4,4,0.1,6c0.7,2,1.8,4,3.5,5.9
				c1.5,2,3.8,3.6,6.4,5c-3.7-2.6-6.2-5.4-7.3-8.5c-1.1-3.1-1.3-5.9-0.5-8.2c0.7-2.3,2.3-3.8,4.5-4.5c2.3-0.8,5,0.3,7.9,2.7
				c-2.7,0.7-4.8,1.7-6.1,2.9c-1.4,1.3-2.1,2.7-2.1,4.2c0.1,1.6,0.7,3.1,2,4.7c1.3,1.6,3.2,2.8,5.7,3.9c3.5,1.4,7.5,2.4,12.6,3
				c5,0.6,10.3,0.9,16.2,1c5.7,0.1,11.9-0.1,18.4-0.6c5.1-0.3,10-0.8,15-1.4c-0.9-0.3-1.9-0.7-2.8-1c-5.2-2-9.6-4.3-13.3-6.7
				c-2.1-1.4-4.1-2.3-6-2.7c-1.9-0.3-3.4-0.2-4.8,0.3c-1.3,0.4-2.2,0.4-2.8,0.2c-0.6-0.2-0.9-0.5-1.2-1.1c-0.2-0.4-0.2-1-0.1-1.6
				c0.1-0.6,0.3-1.1,0.8-1.6c0.9-1.1,1.9-1.7,3-1.9c1.1-0.2,2.6-0.5,4.6-0.7c-0.5-1.2-1.4-2.1-2.4-2.4c-1.1-0.5-2.3-0.5-3.9-0.5
				c-1.4,0.1-3,0.3-4.7,0.6c-1.7,0.2-3.1,0.5-4.5,0.5c-1.6,0.2-2.4-0.1-2.4-0.8c-0.2-0.6,0.3-1.2,1.4-1.7c1.4-1,2.6-1.7,3.4-1.9
				c0.8-0.3,1.1-0.8,1-1.8c-0.2-0.6-0.9-1-2.1-1.4c-1.2-0.3-2.6-0.4-4.2-0.4c-1.5,0.1-3,0.3-4.3,0.7c-1.3,0.4-2.2,1-2.5,1.9
				c-0.2,0.7-0.3,1.3-0.1,1.8c0.2,0.5,0.5,1,0.9,1.5c0.4,0.6,0.9,1,1.3,1.6c0.4,0.5,0.9,1.1,1,1.7c0.3,0.7,0.3,1.5,0.1,2.1
				c-0.2,0.6-0.6,1.3-0.9,1.8c-0.5,0.5-1,0.8-1.7,1c-0.7,0.2-1.3,0.1-2-0.2c-1.8-0.9-3-2.4-3.4-4.5c-0.4-2.2-0.4-4.2,0.2-6.2
				c0.5-1.9,1.4-3.5,2.5-4.8c1.2-1.4,2.7-2.4,4.3-3.2c1.7-0.8,3.4-1.4,5.3-1.8c2-0.5,4.1-0.7,6.1-0.8c0.8-0.1,1.5,0.2,1.9,0.8
				c0.4,0.6,0.7,1.3,1.1,2c0.3,0.7,0.7,1.3,1.1,1.8c0.5,0.7,1.3,0.9,2.2,0.8c-0.2-2.3,0-4.2,0.3-6c0.4-1.8,1-3.2,1.8-4.4
				c0.9-1.1,2.1-1.9,3.4-2.4c1.5-0.5,3.1-0.4,5.1,0.1c1.4-1.8,2.8-3.4,4.3-4.6c1.5-1.1,3.5-1.8,6.2-1.9c1.5,0,3,0.4,4.3,1.1
				c1.2,0.7,2,1.8,2.4,3.3c1.2-0.5,2.5-0.5,4-0.1c1.3,0.4,2.5,1,3.7,1.8c1.1,0.9,2,2,2.7,3.2c0.6,1.3,0.9,2.5,0.7,3.7
				c-0.7,4.6-2.9,6.7-6.6,6.6c0.4-0.9,0.1-1.5-0.9-1.8c-1.1-0.3-2-0.1-2.9,0.5c-1.4,1.1-2.2,2.8-2,5c0.2,2.3,0.9,4.5,2.2,6.8
				c1.2,2.3,3,4.4,5.2,6.3c2.3,1.9,4.8,3.1,7.7,3.5c-0.7-1.6-1.5-3-2.1-4.5c-0.7-1.4-1.5-2.8-2.2-4.1c-0.7-1.4-0.8-2.3-0.2-2.8
				c0.6-0.4,1.3-0.3,2,0.5c1.7,1.5,3.2,3.1,4.7,4.6c1.4,1.5,2.9,2.9,4.4,4.2c1.6,1.3,3.2,2.4,4.8,3.5c1.8,0.9,3.7,1.7,5.9,2.4
				c3.4,0.9,6.4,1.1,9,0.5c2.7-0.7,4.6-1.8,6.2-3.5c-1.4,0.1-2.8,0-4.3-0.4c-1.5-0.3-2.7-0.8-3.8-1.3c-1.1-0.6-1.8-1.3-2.4-2.2
				c-0.4-0.8-0.4-1.7,0-2.7c2.4,0.9,4.9,1.4,7.7,1.4c2.8-0.1,5.5-0.6,8.2-1.6c2.6-1.1,4.8-2.5,6.8-4.3c1.9-1.8,3.2-4.1,3.6-6.6
				c0.3-1.8,0.2-3.7-0.5-5.4c-0.6-1.8-1.5-3.4-2.9-4.8c-1.2-1.3-2.7-2.4-4.5-3c-1.7-0.6-3.6-0.7-5.7-0.4c-0.8,0.3-1.6,0.2-2.3-0.1
				c-0.6-0.3-1.1-0.6-1.4-1.2c-0.3-0.4-0.4-1-0.3-1.6c0.1-0.8,0.3-1.3,0.8-1.9c0.8-0.9,1.7-1.8,2.9-2.6c1.3-0.8,2.6-1.3,4.2-1.6
				c-3.3-2.8-6.8-4.6-10.8-5.4c-3.8-0.8-7.6-0.7-10.9,0.2c-3.3,0.9-6,2.5-8.2,5c-2,2.5-2.8,5.6-2.2,9.3c3.2-1.7,6.3-2.1,9.5-1.2
				c1.5,0.4,2.6,1.3,3.6,2.6c1,1.3,1.4,2.8,1.1,4.4c-0.9,4-3.9,6-8.9,5.7c-2.4-0.2-4.6-1-6.5-2.5c-2-1.5-3.2-3.6-3.6-6.5
				c-0.6-3.3-0.4-6.4,0.6-9.1c1.2-2.7,2.9-5.4,5-7.9c-0.6-1.1-1.8-1.8-3.5-2.2c-1.6-0.4-3.1-0.4-4.4,0c0.2-1.4,0.8-2.6,1.8-3.4
				c0.9-0.8,2-1.3,3.1-1.4c1.2-0.1,2.4,0.2,3.7,0.8c1.3,0.7,2.4,1.7,3.3,3.2c3.8-1.7,8.2-2.4,12.8-1.8c4.6,0.6,8.7,1.7,12.1,3.4
				c3.5,1.6,6.3,3.7,8.4,5.9c2.2,2.4,3.8,4.7,4.9,7.3c1,2.7,1.6,5.3,1.7,8.1c0.1,2.8-0.1,5.5-0.5,8.3c-0.3,2.1-1,4.2-2.1,6.2
				c-1.2,2.1-2.4,4-3.6,6c-1.2,2.1-2.4,4-3.5,6c-1.2,2-1.9,3.9-2.2,5.9c-0.2,1.4-0.2,2.8,0.3,4.2c0.3,1.4,1.1,2.9,2.3,4.4
				c-1.8,0.1-3.6-0.2-5-0.9c-1.3-0.7-2.4-1.6-3.3-2.7c-0.8-1.2-1.3-2.4-1.5-3.9c-0.3-1.4,0-2.8,0.6-4.3c-4.8,3.2-10.1,5.4-15.8,6.5
				c-5.7,1.2-11.4,1.3-17.2,0.4c-0.8-0.1-1.6-0.3-2.4-0.4c-3,0.7-6.7,1.3-11.2,1.8c-5,0.6-10.5,0.9-16.6,1.1c-6,0.1-12.2,0.2-18.7,0
				c-6.5-0.2-12.8-0.6-18.9-1.2c-6.2-0.7-11.8-1.5-17.2-2.4c-5.3-1.1-9.7-2.3-13.2-3.8c-1.9-0.7-3.9-1-6.2-0.8
				c-2.4,0.1-4.2,0.9-5.2,2.5c-1.1,1.4-1.7,2.9-1.8,4.5c-0.1,1.6-0.9,3-2.1,4.1c-1.2,1-2.7,1.6-4.7,2c-1.8,0.3-3.7,0.3-5.4,0
				c0.6-0.9,0.8-1.9,0.6-2.8c-0.1-0.9-0.3-1.6-0.4-2.5c-0.3-0.8-0.3-1.7-0.1-2.7c0.1-0.9,0.8-1.9,1.9-2.8c1.5-1.3,3.1-2.2,4.8-2.8
				c1.7-0.4,3.4-0.7,5.1-0.8c1.6-0.2,3.4-0.3,5.1-0.3c1.7,0,3.4-0.3,4.9-0.8c-3.7-1.8-7.1-3.8-10.1-5.8c-3-2-5.7-4.1-8.1-6.1
				c-2.3,2-4.9,3-7.4,3.3c-2.6,0.2-5,0.4-7.3,0.5c-2.4,0.1-4.2,0.4-5.7,0.9c-1.5,0.6-2.4,2.1-2.5,4.6c-2.1-1.3-3.3-3-3.6-4.8
				c-0.4-2,0.2-3.5,1.9-4.8c-1-0.1-2.6-0.4-4.6-0.7c-2.1-0.2-4.1-0.6-6.2-1.1c-2.2-0.5-4.1-1.2-5.8-2c-1.6-0.9-2.8-1.9-3.2-3
				c-0.2-0.8,0.1-1.4,0.7-2c0.5-0.5,1.3-1,2.1-1.4c0.8-0.5,1.5-0.9,2.3-1.2c0.7-0.4,1-0.7,1.1-0.9c-0.1-0.7-0.9-1-2.3-1.2
				c-1.4-0.2-3.3-0.4-5.6-0.8c-2.3-0.4-5-1.1-7.9-2c-3-1-6-2.7-9.3-4.9C26.6,92.8,29.8,91.6,32.3,91.4z M194.8,124
				c-3.2-3.1-5.8-6.5-7.4-10.2c-1.6-3.5-2.5-7.3-2.4-11.1c0.1-3.8,1-7.3,2.9-10.7c0.3-0.5,0.3-1,0.1-1.5c-0.3-0.4-0.8-0.8-1.2-1.1
				c-0.6-0.2-1.2-0.3-2-0.1c-0.8,0.1-1.5,0.4-2.2,0.9c-1.5,1.2-2.6,3-3.5,5.2c-0.8,2.2-1.3,4.7-1.6,7.2c-0.3,2.7-0.2,5.3,0.2,8
				c0.4,2.7,0.9,5,1.7,7.1c1.1,2.3,2.5,4.4,4.4,6.3c1.9,1.8,4.1,3.4,6.5,4.6c2.5,1.3,5,2.1,7.9,2.7c2.7,0.6,5.5,0.7,8.4,0.5
				C202,129.7,198,127.2,194.8,124z M113.6,121.4c-0.4-2.4-0.4-4.6,0.2-6.9c0.6-2.3,1.3-4.5,2.4-6.7c1.2-2.2,2.1-4.2,2.8-6.1
				c0.8-2,1.2-3.9,1.3-5.6c0-1.7-0.7-3.4-2.3-5c0.3,2.9,0,5.3-0.7,7.7c-0.7,2.2-1.6,4.4-2.7,6.4c-1.1,2-2,3.8-2.9,5.7
				c-0.9,1.8-1.4,3.6-1.5,5.4c-0.1,1.8,0.4,3.7,1.5,5.7c1.1,2,3.1,4.1,6.1,6.4C115.4,126.1,114.1,123.8,113.6,121.4z M70.4,103.3
				c-1.5-0.9-3-1.7-4.5-2.4c-1.6-0.7-3-1.2-4.6-1.7c-1.5-0.4-2.8-0.5-3.9-0.5c1.2,0.3,2.5,0.8,3.9,1.5c1.5,0.6,2.8,1.3,4.2,2.1
				c1.5,0.7,2.9,1.5,4.3,2.2c1.5,0.7,2.8,1.1,3.9,1.5C73,105.1,71.7,104.2,70.4,103.3z M61.2,113.3c4,0.9,7.8,1.6,11.1,2
				c3.5,0.5,6.4,0.5,8.6,0.4c2.3-0.2,3.3-0.8,2.8-1.8c-3.8,0.4-7.7,0.3-11.4-0.3c-3.9-0.6-7.3-1.2-10.3-2c-3-0.7-5.6-1.3-7.5-1.8
				c-2.1-0.6-3.2-0.6-3.6,0C53.9,111.2,57.3,112.4,61.2,113.3z M53.6,104.6c2.6,1.4,5.5,2.7,8.5,3.7c3.1,1,6.2,1.8,9.1,2.3
				c3.1,0.5,5.6,0.5,7.6-0.3c-5.2-1.5-10.7-3-16.6-4.7c-5.9-1.7-10.9-3.3-15.1-4.9C48.7,101.9,50.8,103.2,53.6,104.6z"/>
			<path class="st0" d="M146.2,144.4c-0.7,1.2-0.9,2.4-0.7,3.7c0.4,1.3,0.8,2.5,1.4,4c0.7,1.4,1.3,2.8,1.7,4.2
				c0.5,1.5,0.5,2.9,0.1,4.4c0.8-0.8,1.3-1.8,1.4-3.1c0.2-1.3,0.3-2.6,0.4-3.8c1.4,0.5,2.9,1.4,4.6,2.8c1.7,1.3,2.8,2.8,3.2,4.4
				c0.5-1.3,0.1-2.5-0.8-3.8c-1-1.3-2.2-2.4-3.5-3.6c-1.4-1.2-2.6-2.3-3.7-3.4c-1.1-1.1-1.7-2.1-1.7-3.1c0.1-1.8,1.4-3.2,4-4.2
				c0.6,1.4,0.9,2.8,1.1,4.1c0.2,1.4,0.8,2.6,2.2,3.9c0.1-0.9,0.3-1.7,0.3-2.7c0-1,0.1-1.9,0.2-2.8c0.1-0.9,0.4-1.7,0.9-2.5
				c0.5-0.8,1.2-1.3,2.1-1.8c1.6-0.8,3.5-1.1,5.8-0.7c2.5,0.3,4.8,0.8,7.5,1.4c-2.3,0.5-4,1.3-5.1,2.3c-1,1-1.6,2.1-1.7,3.3
				c0,1.2,0.2,2.4,0.8,3.8c0.6,1.3,1.3,2.7,2.1,4.2c-2.3-0.9-4.3-2.3-6.1-4.2c-1.7-1.9-2.7-3.8-3-5.7c-0.9,0.6-1.3,1.5-1.1,2.6
				c0,1,0.4,2.2,0.9,3.5c0.5,1.3,1,2.6,1.5,3.9c0.6,1.3,0.8,2.6,0.8,3.8c0,3.5-1.8,6.3-5.3,8.1c-0.6-1.4-0.9-2.9-1.1-4.6
				c-0.2-1.6-0.9-3.1-2.1-4.4c-0.8,0.5-1.4,1.1-1.9,1.8c-0.5,0.8-1,1.5-1.5,2.3c-0.5,0.8-1.1,1.5-1.7,2.1c-0.7,0.6-1.5,1-2.3,1.3
				c0.8-1.7,0.8-3.5-0.2-5.5c-0.9-2.1-1.9-4-2.9-6c-0.9-1.9-1.3-3.8-1.3-5.6C141.8,147,143.2,145.6,146.2,144.4z"/>
			<path class="st0" d="M91.7,73.6c-1.7,0-3.3-0.5-4.9-1.8c-1.5-1.2-2.2-2.5-2.2-3.8c0.1-1.3,0.8-2.4,1.9-3.3
				c1.1-0.9,2.5-1.4,4.3-1.5c1.7-0.1,3.4,0.4,5,1.7c1.5,1.2,2.2,2.5,2,3.9c-0.1,1.3-0.8,2.4-1.9,3.3C94.7,73,93.4,73.4,91.7,73.6z
				 M92.5,68.1c-0.3-0.5-0.9-0.7-1.5-0.5c-0.6,0.2-0.8,0.5-0.6,1.1c0.4,0.6,0.9,0.8,1.5,0.6C92.6,69.2,92.8,68.7,92.5,68.1z"/>
		</g>
	</g>
	<g>
		<circle class="st1" cx="306.7" cy="92.9" r="74"/>
		<circle class="st2" cx="306.7" cy="92.9" r="71.3"/>
	</g>
	<g>
		<path class="st3" d="M231.1,33.1c2.2-2.2,5-3.7,8-4.4c4.3,2.3,8.6,5.9,12.1,9.7c13.8,14.8,23.7,34,39.8,51.4l-1.7,1.7L231.1,33.1
			L231.1,33.1z"/>
		<path class="st3" d="M239.2,28.6c3-0.7,6.2-0.6,9.5,0.3c4.1,1.2,8.1,3.5,11.2,6.7c5.5,5.8,8.7,12.9,11.8,20
			c4.2,9.6,14.1,24.3,21.1,32.4l-1.6,1.6c-16.2-17.4-26-36.6-39.8-51.4C247.8,34.5,243.5,31,239.2,28.6z"/>
		<path class="st3" d="M226.7,41.1c0.7-3.1,2.2-5.8,4.4-8l58.3,58.3l-1.7,1.7c-17.4-16.2-36.6-26-51.4-39.8
			C232.6,49.7,229,45.5,226.7,41.1z"/>
		<path class="st3" d="M227,50.6c-0.9-3.2-1-6.5-0.3-9.5c2.3,4.3,5.9,8.6,9.7,12.1c14.8,13.8,34,23.7,51.4,39.8l-1.6,1.6
			c-8.1-7-22.7-17-32.3-21.2c-7.2-3.1-14.3-6.2-20.1-11.7C230.5,58.6,228.2,54.7,227,50.6z"/>
	</g>
	<g>
		<g>
			<path class="st4" d="M35.2,174.2c0.3-0.4,0.6-0.8,0.9-1.3c0.6-0.7,1.3-1.4,2.1-2c1.1-1.3,2.3-2.6,3.7-4c1.3-1.4,2.7-2.9,4.3-4.3
				c4.7-4.1,9.4-6.9,14.1-8.5c5.7-1.9,11.3-1.6,16.8,0.8c0.1,0,0.4,0.2,1,0.5c0.6,0.4,1.3,0.9,2.2,1.7c0.9,0.8,1.8,1.8,2.7,3
				c0.9,1.2,1.7,2.8,2.4,4.6c2.5,7,2,15.7-1.4,26c-0.4,1.5-1.1,3.2-2,5.2c-0.9,2-2,4.1-3.4,6.4c-1.4,2.3-3.1,4.6-5.1,6.9
				c-2,2.4-4.3,4.5-6.9,6.5c-4.8,3.6-10,6-15.7,7.4c-1.7,0.4-3.5,0.7-5.3,0.9c-1.8,0.2-3.6,0.3-5.5,0.3c-3.1,0-6.3-0.3-9.5-0.9h-0.1
				c-0.3,0-1.4-0.3-3.3-0.9c-1.7,3.7-3.2,7.2-4.3,10.6c-1.1,3.4-1.9,6.6-2.3,9.5c-0.2,0.9-0.5,1.4-0.9,1.3c-0.4-0.1-0.7-0.1-0.9-0.2
				v-0.2c-1-0.5-1.6-1.6-2-3.3v-1.6c0.4-2,1.1-4.5,1.9-7.6c0.8-3,2-6.6,3.5-10.5c-1.7-0.8-3.6-1.8-5.6-2.8c-2-1-3.9-2.3-5.7-3.8
				c-0.4-0.2-0.8-0.4-1.2-0.7c-0.4-0.3-0.8-0.5-1.1-0.7c-0.3-0.3-0.7-0.6-1.2-0.9c-0.7-0.5-1.3-1-1.8-1.6c-0.4-0.5-0.8-1.1-1.2-1.7
				s-0.6-1.4-0.6-2.2c0-0.9,0.2-1.7,0.7-2.1c0.5-0.5,1-0.7,1.7-0.6c0.7,0.1,1.4,0.4,2.2,0.9c0.8,0.6,1.4,1.5,2,2.8
				c0.3,0.8,0.7,1.6,1.2,2.4c0.4,0.6,0.9,1.3,1.5,2c0.6,0.7,1.2,1.2,1.9,1.7h-0.1c1.5,1,3,1.9,4.4,2.7c1.5,0.7,2.9,1.4,4.3,2
				c2.9-7.4,7-16,12.4-25.6c5.4-9.6,12.7-20,21.8-31.1c0.4-0.5,0.9-0.6,1.3-0.3c0.3,0.2,0.7,0.5,1.2,1c0.4,0.5,0.8,1.1,1,1.8
				c0.2,0.7,0.2,1.6-0.1,2.7c-0.3,1-0.9,2.3-1.8,3.6c-3.7,5.1-7.3,10.5-11,16c-3.1,4.7-6.5,10-10,15.9c-3.6,5.9-6.7,11.8-9.5,17.8
				c1.3,0.4,2.1,0.6,2.5,0.6c5,0.9,9.8,1.2,14.3,0.6c5.3-0.7,9.9-2.7,13.8-5.9c3.9-3.2,7.2-6.6,9.8-10.3c3-4.2,5.6-8.9,7.7-14
				c2.2-6,3.5-11,3.8-15c0.4-4,0.3-7.3-0.2-9.8c-0.5-2.5-1.3-4.4-2.3-5.7c-1-1.3-2-2.2-2.9-2.8c-8.5-3.2-17.7-0.7-27.4,7.7
				c-1.2,1.2-2.3,2.3-3.3,3.3c-1,1-2,2.1-2.9,3.1c-0.5,0.6-1,1.3-1.3,2.1c-0.3,0.8-0.6,1.5-0.8,2.1c-0.3,0.7-0.4,1.5-0.5,2.2
				c-0.7,2.6-1.8,4.2-3.3,4.6c-1.5,0.5-2.5-0.2-2.9-2c-0.2-0.7-0.2-1.5,0.1-2.3c0.2-0.8,0.5-1.5,1-2.1
				C34,175.5,34.5,174.8,35.2,174.2z"/>
			<path class="st4" d="M81.9,242.3c-1.7-1.2-2.7-2.9-3.3-5.3c-0.4-2-0.4-4.7,0.1-8.2s2.1-7.9,4.9-13.4c2.5-4.9,5.2-9.1,8.1-12.6
				c1.1-1.5,2.4-2.9,3.7-4.2c1.3-1.3,2.7-2.4,4.2-3.1c1.4-0.8,2.9-1.3,4.3-1.4c1.4-0.2,2.8,0.1,4.2,0.9c1,0.6,1.7,1.5,2.1,2.7
				c0.4,1,0.6,2.4,0.5,4c-0.1,1.6-0.6,3.7-1.6,6.2c-1,2.4-2.3,4.5-4.2,6.3c-1.6,1.5-3.7,2.8-6.3,3.9c-2.7,1.2-6,1.5-10,1.1l-0.1,0.3
				c-1.8,2.9-3.2,5.7-4.2,8.2c-1,2.1-1.6,4.1-1.8,6.1c-0.3,2,0.2,3.4,1.4,4.2c1.1,0.7,2.7,0.9,4.8,0.4c2-0.5,4.3-1.4,6.8-2.9
				c2.5-1.5,5-3.4,7.7-5.7c2.7-2.4,5.2-5.1,7.6-8.3c0.7-1,1.4-2,2.1-3c0.7-0.9,1.3-1.8,1.8-2.7c0.6-0.9,1.2-1.8,1.7-2.7
				c0.4-0.5,0.8-1,1.2-1.4c0.3-0.3,0.7-0.5,0.9-0.6c0.3-0.1,0.4,0.2,0.4,0.9c-0.1,0.4-0.2,0.8-0.3,1.3c-0.2,0.4-0.3,0.9-0.5,1.4
				c-0.1,0.5-0.4,1-0.7,1.6c-0.4,0.5-1.1,1.6-2.1,3.2c-1,1.6-2.1,3.3-3.4,5.1c-3.7,4.4-7.3,8.1-10.8,11c-1.6,1.3-3.2,2.5-4.8,3.6
				c-1.7,1.2-3.3,2.1-5,2.8c-1.7,0.7-3.3,1.1-5,1.2C84.8,243.4,83.3,243.1,81.9,242.3z M107.1,201.3c-1.1-0.1-2.5,0.4-4,1.4
				c-1.4,0.8-3.1,2.3-5.2,4.5c-2.1,2.2-4.5,5.3-7.3,9.4c1.5-0.1,3.1-0.4,5-0.8c1.8-0.4,3.5-1.2,5.2-2.3c1.6-1.1,3-2.6,4.2-4.6
				C106.1,207,106.8,204.4,107.1,201.3z"/>
			<path class="st4" d="M142.4,213.5c-1.7,3.4-3.3,6.6-4.8,9.8c-1.5,3.2-2.7,6.3-3.7,9.4c-0.4,1.3-0.7,2.4-0.9,3.5
				c-0.2,0.8-0.2,1.6-0.2,2.4c0,0.7,0.4,1.2,1,1.4c0.9,0.3,2.2-0.1,3.8-1.1c1.7-1,3.4-2.3,5.2-3.8c2-1.7,4.2-3.6,6.5-5.8
				c0.5-0.4,1-0.8,1.4-1.1c0.3-0.2,0.7-0.3,1-0.2c0.3,0.1,0.4,0.3,0.2,0.9c-0.1,0.4-0.3,0.8-0.5,1.3c-0.4,0.8-1,1.7-1.8,2.5
				c-0.4,0.4-1.3,1.3-2.5,2.5c-1.3,1.3-2.7,2.5-4.4,3.9c-1.7,1.3-3.3,2.4-5,3.4c-1.7,0.9-3.2,1.4-4.5,1.3c-1.3-0.1-2.3-0.6-3.1-1.6
				c-0.7-0.9-1.3-2.1-1.6-3.5c-0.3-1.4-0.5-2.8-0.4-4.4c0.1-1.6,0.3-3,0.8-4.4c-1.3,1.6-2.8,3.3-4.4,5.1c-1.7,1.8-3.3,3.5-5.1,4.9
				c-1.7,1.4-3.5,2.5-5.2,3.2c-1.7,0.7-3.2,0.8-4.6,0.2c-1.7-1-2.7-2.8-3-5.2c-0.3-2,0-4.9,0.9-8.7c1-3.8,3.2-8.8,6.8-15
				c2.2-3.8,4.4-7,6.8-9.8c2.3-2.7,4.6-4.9,6.8-6.5c2.2-1.6,4.3-2.7,6.2-3.2c1.9-0.5,3.6-0.4,5,0.3c1.7,0.7,2.7,2.4,3.1,5
				c3.1-6,6.8-12.3,11.2-19c4.3-6.7,9.4-13.6,15.3-20.7c0.4-0.5,0.9-0.6,1.4-0.3c0.3,0.2,0.7,0.6,1.1,1c0.4,0.5,0.7,1.1,0.9,1.8
				c0.2,0.7,0.2,1.6-0.1,2.7c-0.3,1-0.9,2.3-1.8,3.6c-3.2,4.4-6.4,9.1-9.7,14c-2.8,4.2-5.8,8.9-9.1,14.2
				C148.3,202.6,145.2,208,142.4,213.5z M124.2,230.1c1.6-1.6,3-3.4,4.4-5.3c1.4-2,2.6-3.9,3.7-5.7c1.1-1.8,2-3.5,2.8-5
				c0.8-1.5,1.3-2.6,1.7-3.3c0.1-0.2,0.2-0.3,0.2-0.4c0-0.1,0.1-0.2,0.2-0.4c0.2-0.2,0.3-0.5,0.3-0.8c0-0.3,0.2-0.6,0.3-0.8
				c0.8-1.7,1.2-3,1.2-4c0-1,0-1.6-0.1-1.8c-0.3-0.8-0.7-1.4-1.4-1.7c-1-0.4-2.3-0.2-3.8,0.8c-1.5,0.9-3,2.3-4.6,3.9
				c-1.6,1.7-3.2,3.6-4.8,5.8c-1.6,2.2-3,4.3-4.2,6.3c-1.3,2.1-2.5,4.3-3.7,6.6c-1.1,2.3-2.1,4.5-2.9,6.4c-0.8,2-1.4,3.7-1.8,5.2
				c-0.3,1.5-0.3,2.4,0,2.8c0.5,0.5,1.7,0.1,3.7-1.3c1.9-1.4,4.1-3.1,6.5-5.3h0.1c0.3-0.3,0.7-0.6,1-0.9
				C123.5,230.8,123.8,230.5,124.2,230.1z"/>
			<path class="st4" d="M170.7,229.7c-1.1,1.5-2.4,3-3.8,4.6c-1.4,1.6-2.9,3.1-4.5,4.5c-1.6,1.4-3.1,2.6-4.6,3.5
				c-1.5,0.9-3,1.3-4.4,1.3c-0.7,0-1.3-0.2-2-0.5c-0.6-0.3-1.1-0.8-1.6-1.4c-0.4-0.5-0.8-1.3-1.1-2.2c-0.3-0.9-0.5-2.1-0.5-3.6
				c0-2.2,0.5-5,1.6-8.5c1.1-3.5,3.2-7.9,6.2-13.2c3.7-6.4,7.6-11.3,11.7-14.7c4-3.4,7.5-5.1,10.4-5.1c2,0,3.5,0.7,4.5,2.1
				c1,1.4,1.5,3.3,1.5,5.7c0,2.8-0.6,6.3-1.8,10.5h0.4c0.3,0.1,0.6,0.2,0.9,0.3c0.2,0.2,0.4,0.4,0.6,0.6c0.2,0.2,0.3,0.5,0.3,1
				c0,0.4-0.5,1.5-1.6,3.3c-1,1.8-2.2,3.9-3.5,6.2c-1.3,2.4-2.4,4.8-3.5,7.3c-1,2.5-1.6,4.7-1.6,6.4c0,1.5,0.6,2.2,1.7,2.2
				c1,0,2.3-0.6,4-1.7c1.7-1.1,3.4-2.3,5-3.7c1.9-1.6,3.9-3.4,6-5.5c0.3-0.2,0.6-0.4,0.9-0.6c0.3-0.2,0.5-0.4,0.7-0.6
				c0.2-0.2,0.4-0.2,0.6-0.2c0.3,0,0.4,0.2,0.4,0.5l0.1,0.3c0,0.3-0.2,0.8-0.5,1.4c-0.3,0.6-0.9,1.5-1.9,2.5
				c-0.4,0.4-1.3,1.2-2.5,2.4c-1.3,1.2-2.7,2.4-4.2,3.7c-1.6,1.3-3.2,2.4-4.9,3.4c-1.7,1-3.2,1.5-4.5,1.5c-2,0-3.4-0.9-4.2-2.6
				c-0.8-1.7-1.2-3.7-1.2-5.9C170,233.3,170.2,231.5,170.7,229.7z M162,217.6c-1.1,1.9-2.2,3.8-3.3,5.8c-1,2-2,3.9-2.7,5.7
				c-0.8,1.8-1.4,3.5-1.9,5c-0.5,1.5-0.7,2.7-0.7,3.5c0,0.7,0.3,1.1,0.8,1.1c0.7,0,1.8-0.5,3.3-1.6c1.5-1,3.2-2.4,5-4
				c1.8-1.6,3.7-3.4,5.7-5.4c2-2,3.7-3.9,5.3-5.8c0.4-0.8,0.8-1.7,1.2-2.6c0.4-0.9,0.8-1.8,1.4-2.8c0.3-0.5,0.6-1,0.9-1.4
				c0.3-0.4,0.8-0.8,1.3-1.3c0.5-0.4,1.2-0.7,2.1-0.9c0.2-1.2,0.3-2.4,0.5-3.8c0.2-1.4,0.3-2.6,0.3-3.8c0-1.4-0.2-2.5-0.6-3.5
				c-0.4-0.9-1.1-1.4-2.2-1.4c-1.1,0-2.4,0.5-3.8,1.6c-1.4,1-2.9,2.4-4.4,4.1c-1.5,1.7-2.9,3.5-4.4,5.5
				C164.4,213.8,163.1,215.7,162,217.6z"/>
			<path class="st4" d="M194.6,242.3c-1.7-1.2-2.7-2.9-3.3-5.3c-0.4-2-0.4-4.7,0.1-8.2s2.1-7.9,4.8-13.4c2.5-5,5.2-9.3,8.1-12.7
				c1.1-1.5,2.4-2.9,3.7-4.2c1.3-1.3,2.7-2.4,4.2-3.1s2.9-1.3,4.3-1.4c1.4-0.2,2.8,0.2,4.2,1c0.6,0.4,1.1,1,1.6,1.7
				c0.4,0.6,0.8,1.4,1,2.4c0.2,1,0.3,2.2,0.2,3.7c-0.2,1.3-0.5,2.5-0.9,3.6c-0.4,0.9-1,1.8-1.7,2.7c-0.7,0.8-1.7,1.4-2.9,1.6
				c-0.7,0.1-1.2,0.1-1.5-0.2c-0.3-0.2-0.5-0.4-0.6-0.5c-0.6-0.7-1-1.6-1-2.5c0.1-0.5,0.3-0.9,0.7-1.1c0.3-0.2,0.7-0.4,0.9-0.6
				c0.7-0.2,1.5-0.7,2.3-1.4c0.9-0.7,1.3-2,1.4-3.8c-1.3,0-2.9,0.6-4.7,1.7c-1.6,1.2-3.5,3-5.9,5.4c-2.3,2.5-5.1,6.2-8.3,11.2
				c-1.7,2.9-3.1,5.7-4.2,8.3c-1,2.2-1.6,4.3-1.9,6.4c-0.3,2,0.2,3.5,1.4,4.3c1.1,0.7,2.7,0.9,4.8,0.4c2-0.5,4.3-1.4,6.8-2.9
				c2.5-1.5,5-3.4,7.7-5.7c2.7-2.4,5.2-5.1,7.6-8.3c0.8-1,1.5-2,2.2-3c0.7-0.9,1.3-1.8,1.8-2.7c0.6-0.9,1.2-1.8,1.7-2.7
				c0.4-0.5,0.8-1,1.2-1.4c0.3-0.3,0.5-0.5,0.8-0.6c0.3-0.1,0.4,0.2,0.4,0.9c0,0.4,0,0.8-0.1,1.3c-0.1,0.7-0.5,1.7-1.3,3
				c-0.3,0.5-1,1.6-2,3.2c-1,1.6-2.2,3.3-3.5,5.1c-3,3.5-5.9,6.6-8.9,9.3c-1.3,1.2-2.7,2.3-4.1,3.4c-1.4,1.1-2.9,2.1-4.4,3
				c-1.5,0.9-3,1.6-4.5,2c-1.5,0.5-2.9,0.7-4.3,0.7c-0.2,0.2-0.3,0.4-0.3,0.6s0,0.3-0.1,0.4l-0.1,0.3l-0.9,3.3
				c-0.2,0.3-0.3,0.6-0.3,0.9s-0.1,0.6-0.3,0.9c2.8-0.7,4.9-1.1,6.5-1.1c1.5,0,2.6,0.2,3.3,0.5c0.7,0.4,1.1,0.8,1.2,1.4
				c0.1,0.6,0.1,1.1,0,1.5c-0.2,0.7-0.6,1.5-1.2,2.2c-0.7,0.7-1.4,1.4-2.2,2.1c-0.8,0.7-1.6,1.3-2.4,1.7c-0.8,0.5-1.5,0.9-2.2,1.2
				c-3.1,1.6-5.3,2.1-6.7,1.7c-1.3-0.5-2.1-1.3-2.3-2.4c-0.3-1.2-0.1-3,0.4-5.7c-0.5,0.1-1.2,0.2-2,0.4c-0.8,0.2-1.7,0.3-2.5,0.3
				c-0.8,0.1-1.6,0.1-2.3,0.2c-0.7,0.1-1.3,0.1-1.6,0.1c-0.4-0.1-0.9-0.3-1.4-0.7c-0.5-0.4-0.4-0.6,0.4-0.7l2.2-0.3
				c1.2-0.1,2.5-0.3,3.9-0.5c1.4-0.2,2.7-0.4,3.9-0.6c0.2-0.5,0.3-1,0.5-1.4c0.2-0.4,0.3-0.8,0.5-1.3c0.2-0.4,0.3-0.8,0.5-1.3
				c0.4-1.3,0.8-2.2,1.1-2.8c0.3-0.6,0.5-1.2,0.7-1.6C194.7,242.5,194.6,242.4,194.6,242.3z M196.2,255.1c0,0.6,0.2,1.1,0.5,1.4
				c0.3,0.3,0.7,0.5,1.1,0.7c0.4,0.2,0.7,0.3,1,0.3c0.3,0.1,0.4,0.1,0.3,0.1c0.2-0.1,0.3-0.2,0.5-0.2c0.1,0,0.3-0.1,0.5-0.3
				c1.4-0.6,2.6-1.4,3.5-2.2c1-0.8,1.5-1.4,1.6-1.7c0.3-1,0-1.8-0.8-2.1c-0.8-0.4-1.8-0.5-2.9-0.5c-1.1,0-2.2,0.1-3.3,0.4
				c-1,0.3-1.7,0.4-2,0.6c-0.2,0.6-0.3,1.3-0.3,1.9C195.8,254,195.9,254.5,196.2,255.1z"/>
			<path class="st4" d="M263.7,216.7c-1.2,0.4-2.6,0.7-4.2,0.7c-1.6,0.1-3.2-0.1-4.6-0.4c-1,2.2-2.1,4.9-3.5,7.9
				c-1.4,3.1-3.1,6-5.2,8.7c-2.1,2.7-4.5,5.1-7.4,7c-2.8,1.9-6.1,2.9-9.8,2.8c-1.1,0-2.2-0.2-3.2-0.5c-1-0.3-1.9-0.8-2.6-1.6
				c-0.7-0.7-1.3-1.7-1.8-3c-0.4-1.3-0.7-2.9-0.7-5c0-3.1,0.5-6.5,1.5-10.1c1-3.6,2.4-7.1,4.2-10.4c1.8-3.3,4-6.3,6.7-9
				c2.6-2.7,5.5-4.6,8.7-5.7c0.4-1.6,1-2.6,1.7-3.2c0.7-0.6,1.5-0.9,2.5-0.9c1.7,0,3.1,0.5,4.3,1.4c1.2,0.9,2.2,2.2,2.9,3.6
				c0.7,1.5,1.3,3.1,1.6,5c0.3,1.8,0.5,3.6,0.5,5.3c0,0.7,0,1.4,0,2c0,0.6,0,1.3-0.1,2c0,0.3,0.3,0.5,1,0.6c0.7,0.1,1.5,0.1,2.5,0.1
				c1-0.1,1.9-0.1,2.8-0.2c0.9-0.1,1.5-0.1,1.8-0.1c1,0,1.4,0.5,1.4,1.4C264.8,216,264.4,216.5,263.7,216.7z M251.5,215.9
				c-2.8-1.3-4.9-2.7-6.3-4.4c-1.4-1.7-2.4-3.5-3-5.3c-1.8,1-3.8,2.7-5.8,5c-2,2.3-3.9,4.7-5.6,7.5c-1.7,2.7-3.1,5.5-4.2,8.4
				c-1.1,2.9-1.7,5.5-1.7,7.8c0,1.8,0.5,2.9,1.5,3.5c1,0.5,2.1,0.8,3.3,0.8c0.4,0,0.8,0,1.2,0c0.3,0,0.7-0.1,1-0.2
				c0.3-0.1,0.7-0.2,1-0.3c4.3-1.6,8.2-4.3,11.4-8.1c3.3-3.8,5.6-8.5,7.1-13.9V215.9z M252.3,211.2c0-4-0.6-7.2-1.7-9.8
				c-1.1-2.5-2.3-3.8-3.7-3.8c-0.9,0-1.5,0.5-1.8,1.4c-0.3,0.9-0.5,1.8-0.5,2.7c0,1.7,0.3,3.1,0.9,4.4c0.3,0.6,0.7,1.3,1,1.9
				c1.3,1.9,3.2,3.4,5.6,4.6v-0.8C252.1,211.5,252.2,211.3,252.3,211.2z"/>
			<path class="st4" d="M285.3,202.2c0.2-7,1.2-13.7,3.1-20.1c1.9-6.4,4.6-12.1,8.1-17.1c3.5-5,7.9-9.2,13.1-12.4
				c5.2-3.2,11.3-5.1,18.3-5.7c3.9-0.3,8.1,0,12.5,0.9c4.4,0.9,8.5,2.7,12.3,5.2c3.8,2.5,7,6,9.6,10.5s4.1,10.1,4.4,16.8
				c0.1,1.3,0.1,3.1-0.1,5.6c-0.1,2.5-0.4,5-0.8,7.5s-1,4.8-1.8,6.7c-0.8,1.9-1.9,3-3.2,3.1c-0.7,0.1-1.2-0.2-1.6-0.8
				c-0.4-0.6-0.6-1.4-0.7-2.2c-0.2-1.6,0.4-3.2,1.8-4.9c0.6-0.7,1.1-1.4,1.5-2c0.4-0.6,0.8-1.2,1.1-2c0.3-0.7,0.6-1.5,0.8-2.4
				c0.3-1.4,0.4-2.8,0.5-4.2c0-1.4,0-2.8-0.1-4.2c-0.3-4.6-1.1-8.6-2.5-12c-1.4-3.4-3.1-6.2-5.2-8.5c-2.1-2.3-4.4-4.1-7-5.5
				c-2.6-1.4-5.1-2.4-7.7-3.2c-2.6-0.7-5-1.2-7.4-1.3s-4.3-0.2-6-0.1c-4.2,0.3-8.5,1.4-13.1,3.2c-4.6,1.8-8.8,4.7-12.6,8.7
				c-3.9,4-7.1,9.3-9.8,15.9c-2.7,6.6-4.3,14.8-4.8,24.7c-0.3,5.6,0.1,10.6,1.2,15c1,4.5,2.5,8.4,4.5,11.8c2,3.4,4.2,6.3,6.8,8.7
				c2.6,2.4,5.3,4.3,8.1,5.7c2.8,1.4,5.6,2.4,8.4,2.9c2.8,0.5,5.3,0.7,7.6,0.5c5.4,0,10.5-1.1,15.4-3.3c4.9-2.2,9.4-5.1,13.7-8.6
				c4.3-3.5,8.2-7.5,11.9-11.8c3.6-4.3,7-8.5,10.2-12.6c3.1-4.2,6.1-8.4,9.1-12.5c2.9-4.1,5.6-8.2,8-12.2c1-11.7,2.5-20.2,4.6-25.5
				c2.1-5.2,4.2-7.9,6.4-7.9c1.5,0,2.6,0.8,3.5,2.3c0.8,1.5,1.2,3.1,1.2,4.8c0,1.6-0.4,3.7-1.2,6.4c-0.8,2.7-1.8,5.6-3.1,8.7
				c-1.3,3.1-2.7,6.2-4.3,9.4c-1.6,3.2-3.1,6.2-4.7,9c0,3.7,0,7.7,0.1,12c0.1,4.3,0.3,9,0.8,14c1.8-2.8,4.2-6.4,7.2-10.9
				c3-4.4,6.3-9.1,9.8-14.1c3.5-5,7.2-10,11-15c3.8-5,7.4-9.6,10.8-13.6c3.4-4,6.6-7.3,9.5-9.9c2.9-2.6,5.2-3.9,6.9-3.9h0.9
				c0.1,0,0.4,0,0.9,0.1c0.5,0.1,1.1,0.3,1.7,0.8c0.6,0.5,1.2,1.2,1.7,2.2c0.5,1,0.8,2.4,0.8,4.3c0,0.2-0.9,1.7-2.7,4.6
				c-1.8,2.8-4.1,6.6-6.8,11.2c-2.8,4.7-5.9,10.1-9.4,16.2c-3.5,6.1-7,12.7-10.4,19.6c-1.2,2.4-2.5,5-3.8,7.7
				c-1.3,2.7-2.6,5.3-3.7,7.9c-1.1,2.5-2,4.8-2.7,6.8c-0.7,2-1.1,3.6-1.1,4.6c0,1.5,0.5,2.2,1.6,2.2c1,0,2.3-0.6,4-1.7
				c1.7-1.1,3.4-2.3,5.1-3.7c1.9-1.6,3.9-3.4,6-5.5c0.2-0.2,0.4-0.4,0.8-0.6c0.2-0.2,0.4-0.4,0.7-0.6c0.3-0.2,0.5-0.2,0.7-0.2
				c0.3,0,0.4,0.2,0.4,0.6c0,0.2-0.1,0.7-0.3,1.3c-0.2,0.7-0.9,1.6-2,2.8c-0.4,0.4-1.3,1.2-2.5,2.4c-1.2,1.2-2.6,2.4-4.2,3.7
				c-1.6,1.3-3.3,2.4-5,3.4c-1.7,1-3.2,1.5-4.5,1.5c-2,0-3.4-0.9-4.2-2.7c-0.8-1.8-1.2-3.8-1.2-6c0-2.8,0.8-6.5,2.5-11.1
				c1.7-4.6,3.7-9.5,6.3-14.8c2.5-5.3,5.3-10.8,8.4-16.4c3.1-5.7,6.1-11,9.1-16c3-5,5.6-9.4,8-13.2c2.3-3.8,4.1-6.6,5.2-8.4
				c-0.4,0-1,0.2-1.7,0.6c-0.7,0.4-1.6,1.1-2.7,2.1c-1.1,1-2.5,2.4-4,4.2c-1.5,1.8-3.3,4.2-5.4,7c-2.4,3.4-5,7.2-7.8,11.4
				c-2.8,4.2-5.6,8.6-8.4,13.1c-2.8,4.5-5.6,8.9-8.3,13.2c-2.7,4.3-5.2,8.2-7.4,11.6c-2.3,3.4-4.2,6.1-5.9,8.2
				c-1.7,2-2.8,3.1-3.5,3.1c-2.2,0-3.5-0.8-4.1-2.3c-0.6-1.5-0.8-3.2-0.8-5c0-4.4,0.1-8.6,0.2-12.6c0.1-4,0.3-7.7,0.5-11
				c-20.8,34.5-42.8,51.6-66,51.4c-6.8,0-12.7-1.2-17.7-3.5c-5-2.4-9.2-5.6-12.6-9.8c-3.3-4.2-5.9-9.2-7.6-15.1
				C286.1,215.8,285.3,209.3,285.3,202.2z M396,178.5c-0.1,0.1-0.1,0.3-0.1,0.6c0,0.2,0,0.5-0.1,0.8c0,0.3-0.1,0.7-0.1,1.1
				c5.7-9.8,8.6-16.9,8.6-21.5c0-1.2-0.1-2-0.4-2.4c-0.3-0.5-0.6-0.8-0.9-1c-0.3,0.2-0.8,0.6-1.4,1.2c-0.6,0.6-1.2,1.7-1.9,3.3
				c-0.7,1.6-1.3,3.9-2,6.8C397,170.1,396.4,173.8,396,178.5z"/>
			<path class="st4" d="M454.9,229.7c-1.1,1.5-2.4,3-3.8,4.6c-1.4,1.6-2.9,3.1-4.5,4.5c-1.6,1.4-3.1,2.6-4.6,3.5
				c-1.5,0.9-3,1.3-4.4,1.3c-0.7,0-1.3-0.2-2-0.5c-0.6-0.3-1.1-0.8-1.6-1.4c-0.4-0.5-0.8-1.3-1.1-2.2c-0.3-0.9-0.5-2.1-0.5-3.6
				c0-2.2,0.5-5,1.6-8.5c1.1-3.5,3.2-7.9,6.2-13.2c3.7-6.4,7.6-11.3,11.7-14.7c4-3.4,7.5-5.1,10.4-5.1c2,0,3.5,0.7,4.5,2.1
				c1,1.4,1.5,3.3,1.5,5.7c0,2.8-0.6,6.3-1.8,10.5h0.4c0.3,0.1,0.6,0.2,0.9,0.3c0.2,0.2,0.4,0.4,0.6,0.6c0.2,0.2,0.3,0.5,0.3,1
				c0,0.4-0.5,1.5-1.6,3.3c-1,1.8-2.2,3.9-3.5,6.2c-1.3,2.4-2.4,4.8-3.5,7.3c-1,2.5-1.6,4.7-1.6,6.4c0,1.5,0.6,2.2,1.7,2.2
				c1,0,2.3-0.6,4-1.7c1.7-1.1,3.4-2.3,5-3.7c1.9-1.6,3.9-3.4,6-5.5c0.3-0.2,0.6-0.4,0.9-0.6c0.3-0.2,0.5-0.4,0.7-0.6
				c0.2-0.2,0.4-0.2,0.6-0.2c0.3,0,0.4,0.2,0.4,0.5l0.1,0.3c0,0.3-0.2,0.8-0.5,1.4c-0.3,0.6-0.9,1.5-1.9,2.5
				c-0.4,0.4-1.3,1.2-2.5,2.4c-1.3,1.2-2.7,2.4-4.2,3.7c-1.6,1.3-3.2,2.4-4.9,3.4c-1.7,1-3.2,1.5-4.5,1.5c-2,0-3.4-0.9-4.2-2.6
				c-0.8-1.7-1.2-3.7-1.2-5.9C454.2,233.3,454.4,231.5,454.9,229.7z M446.2,217.6c-1.1,1.9-2.2,3.8-3.3,5.8c-1,2-2,3.9-2.7,5.7
				c-0.8,1.8-1.4,3.5-1.9,5c-0.5,1.5-0.7,2.7-0.7,3.5c0,0.7,0.3,1.1,0.8,1.1c0.7,0,1.8-0.5,3.3-1.6c1.5-1,3.2-2.4,5-4
				c1.8-1.6,3.7-3.4,5.7-5.4c2-2,3.7-3.9,5.3-5.8c0.4-0.8,0.8-1.7,1.2-2.6c0.4-0.9,0.8-1.8,1.4-2.8c0.3-0.5,0.6-1,0.9-1.4
				c0.3-0.4,0.8-0.8,1.3-1.3c0.5-0.4,1.2-0.7,2.1-0.9c0.2-1.2,0.3-2.4,0.5-3.8c0.2-1.4,0.3-2.6,0.3-3.8c0-1.4-0.2-2.5-0.6-3.5
				c-0.4-0.9-1.1-1.4-2.2-1.4c-1.1,0-2.4,0.5-3.8,1.6c-1.4,1-2.9,2.4-4.4,4.1c-1.5,1.7-2.9,3.5-4.4,5.5
				C448.6,213.8,447.3,215.7,446.2,217.6z M461.7,184.6c1.7,0.8,3.2,1.4,4.3,1.6c1.1,0.2,2,0.4,2.7,0.5c0.7,0.1,1.3,0.3,1.7,0.5
				c0.4,0.2,0.9,0.7,1.3,1.6c0.3,0.7,0.5,1.4,0.5,2.1c0,0.7-0.3,1.2-0.7,1.5c-0.8,0.5-1.7,0.6-2.7,0.2c-1-0.4-2-0.9-2.9-1.6
				c-1-0.7-1.8-1.3-2.5-2c-0.7-0.6-1.1-1-1.2-1.1c-0.7-0.8-1.4-1.7-2.2-2.4c-0.8-0.8-1.3-1.8-1.6-2.9c0-0.2,0.1-0.3,0.3-0.2
				c0.2,0.1,0.4,0.3,0.7,0.6c0.3,0.3,0.7,0.6,1,0.9S461.3,184.5,461.7,184.6z"/>
			<path class="st4" d="M436.8,266.6c0.5,1.3,1.5,2.3,2.8,3.1c1.3,0.8,2.8,1.4,4.5,1.9c1.7,0.5,3.4,0.8,5.2,1
				c1.8,0.2,3.4,0.3,4.8,0.3c4.4,0,8.7-1.3,12.7-4c4-2.7,7.8-6,11.2-10.1c3.4-4.1,6.6-8.5,9.4-13.2c2.8-4.7,5.3-9.1,7.4-13.2
				c-1.1,1.3-2.3,2.6-3.7,3.9c-1.3,1.4-2.6,2.6-3.9,3.6c-1.3,1-2.6,1.9-4,2.6c-1.3,0.7-2.6,1-3.7,1c-0.7,0-1.3-0.2-2-0.5
				c-0.6-0.3-1.1-0.8-1.6-1.4c-0.4-0.5-0.8-1.3-1.1-2.2c-0.3-0.9-0.5-2.1-0.5-3.6c0-2.2,0.5-5,1.6-8.5c1.1-3.5,3.2-7.9,6.2-13.2
				c3.7-6.4,7.6-11.3,11.7-14.7c4-3.4,7.5-5.1,10.4-5.1c2,0,3.5,0.7,4.5,2.1c1,1.4,1.5,3.3,1.5,5.7c0,2.8-0.6,6.3-1.8,10.5h0.4
				c0.3,0.1,0.6,0.2,0.9,0.3c0.2,0.2,0.4,0.4,0.6,0.6c0.2,0.2,0.3,0.5,0.3,1c0,0.7-0.4,1.8-1.2,3.1c-0.4,0.7-1.2,1.9-2.2,3.5
				c-1,1.6-2,3.3-3,5.3c-1,1.9-1.9,3.9-2.6,6c-0.7,2-1.1,3.9-1.1,5.4c0,1.5,0.6,2.2,1.7,2.2c1,0,2.3-0.6,4-1.7
				c1.7-1.1,3.4-2.3,5-3.7c1.9-1.6,3.9-3.4,6-5.5c0.3-0.2,0.6-0.4,0.9-0.6c0.3-0.2,0.5-0.4,0.7-0.6c0.2-0.2,0.4-0.2,0.6-0.2
				c0.3,0,0.4,0.2,0.4,0.5c0.1-0.1,0.1,0.2,0.1,0.9c0,0.7-0.8,1.8-2.3,3.4c-0.5,0.5-1.4,1.4-2.7,2.6c-1.3,1.2-2.7,2.4-4.3,3.7
				c-1.6,1.3-3.3,2.4-5,3.3c-1.7,0.9-3.3,1.4-4.6,1.4c-1.7-0.1-2.9-1-3.8-2.7c-2.2,3.9-4.7,7.9-7.7,12c-3,4.1-6.2,7.9-9.8,11.3
				c-3.6,3.4-7.5,6.2-11.8,8.4c-4.3,2.2-8.7,3.3-13.4,3.3c-3.7,0-7.4-0.7-11.3-2c-3.9-1.3-7.5-3.3-10.8-6.1c-0.3-0.2-0.7-0.5-1-0.9
				c-0.3-0.3-0.7-0.7-1-1.1c-0.3-0.4-0.6-0.9-0.8-1.4c-0.4-0.8-0.6-1.7-0.5-2.6c0.1-0.9,0.5-1.5,1-2c0.9-0.6,1.6-0.8,2.3-0.4
				c0.7,0.4,1.2,0.9,1.8,1.7c0.5,0.8,1,1.7,1.4,2.7C436.1,265,436.5,265.8,436.8,266.6z M479.7,238.7c0.1,0.1,0.3,0.2,0.5,0.2
				c0.7,0,1.8-0.5,3.3-1.6c1.5-1,3.2-2.4,5-4c1.8-1.6,3.7-3.4,5.7-5.4c2-2,3.7-3.9,5.3-5.8c0.4-0.8,0.8-1.7,1.2-2.6
				c0.4-0.9,0.8-1.8,1.4-2.8c0.3-0.5,0.6-1,0.9-1.4c0.3-0.4,0.8-0.8,1.3-1.3c0.5-0.4,1.2-0.7,2.1-0.9c0.2-1.2,0.3-2.4,0.5-3.7
				c0.2-1.3,0.3-2.5,0.3-3.7c0-1.5-0.2-2.7-0.6-3.6c-0.4-0.9-1.1-1.4-2.2-1.4c-1.6,0-3.3,0.8-5.1,2.3c-1.8,1.5-3.7,3.5-5.5,5.8
				c-1.8,2.4-3.6,5-5.3,7.9c-1.7,2.9-3.3,5.7-4.6,8.5c-1.3,2.8-2.4,5.3-3.3,7.5c-0.8,2.3-1.2,4-1.2,5.1
				C479.5,238.2,479.6,238.5,479.7,238.7z"/>
			<path class="st4" d="M521.1,243.6c-1.2-0.1-2.2-0.6-2.8-1.3s-1.1-1.8-1.4-2.9c-0.3-1.2-0.4-2.4-0.4-3.9c0-1.4,0.2-2.8,0.5-4
				c0.3-1.7,0.8-3.6,1.6-5.7c0.8-2.1,1.8-4.4,2.8-6.6c1-2.3,2.1-4.4,3.2-6.4c1.1-2,2-3.8,2.8-5.3c0.3-0.6,0.7-1.3,1-1.9
				c0.3-0.6,0.6-1.2,1-1.7c0.8-1.5,1.6-2.9,2.3-4.2c0.8-1.4,1.6-2.8,2.5-4.2l0.1-0.2c0.2-0.2,0.4-0.4,0.7-0.7
				c0.3-0.3,0.6-0.3,0.9-0.1c0.3,0.2,0.8,0.5,1.3,0.8c0.5,0.3,0.9,0.8,1.2,1.5c0.3,0.7,0.3,1.5,0.3,2.5c-0.1,1-0.5,2.3-1.3,3.9
				c-0.7,1.4-1.3,2.5-1.7,3.3c-0.4,0.8-0.8,1.5-1,2c-0.1,0.2-0.2,0.4-0.4,0.6c-0.2,0.2-0.6,0.9-1.2,2.1c-0.6,1.2-1.3,2.6-2.2,4.2
				c-0.9,1.6-1.8,3.3-2.7,5c-0.9,1.8-1.7,3.4-2.4,4.7v0.2l-0.5,1.1c-0.6,1.2-1.2,2.3-1.6,3.3c-0.5,1-0.9,2.1-1.2,3.1
				c-0.5,1.3-0.9,2.4-1.2,3.5c-0.2,0.8-0.3,1.6-0.3,2.4c0,0.7,0.3,1.2,0.8,1.4c0.9,0.3,2.2-0.1,3.9-1.1c1.7-1,3.5-2.3,5.2-3.8
				c2.1-1.7,4.3-3.6,6.5-5.8c0.5-0.4,1-0.8,1.4-1.1c0.3-0.2,0.7-0.3,1-0.2c0.3,0.1,0.4,0.3,0.2,0.9c-0.1,0.4-0.3,0.8-0.5,1.3
				c-0.4,0.8-1,1.7-1.8,2.5c-0.4,0.4-1.3,1.3-2.6,2.5c-1.3,1.3-2.8,2.5-4.4,3.9c-1.6,1.3-3.3,2.4-5,3.4
				C523.9,243.3,522.4,243.7,521.1,243.6z M541.2,192.9c-0.8,1-1.4,1.5-1.8,1.3h-0.3c-0.3-0.3-0.5-0.8-0.6-1.4c0-0.6,0-1.3,0-2
				c0-0.7,0.1-1.3,0.3-1.8c0.1-0.5,0.2-0.9,0.2-1.1c0-0.2,0-0.3,0.1-0.3c0.3-0.9,0.6-1.8,0.9-2.7c0.3-0.7,0.7-1.4,1.1-2
				c0.4-0.6,0.9-1,1.6-1.2c0.8-0.2,1.4-0.1,1.9,0.4c0.5,0.5,0.8,1.1,0.9,2c0.1,0.8,0.1,1.8-0.2,2.8c-0.3,1-0.8,2-1.7,3
				c-0.3,0.3-0.6,0.6-0.9,0.9c-0.3,0.3-0.5,0.6-0.8,0.9S541.4,192.5,541.2,192.9z"/>
			<path class="st4" d="M540.6,242.3c-1.7-1.2-2.7-2.9-3.3-5.3c-0.4-2-0.4-4.7,0.1-8.2c0.5-3.5,2.1-7.9,4.8-13.4
				c2.5-5,5.2-9.3,8.1-12.7c1.1-1.5,2.4-2.9,3.7-4.2c1.3-1.3,2.7-2.4,4.2-3.1s2.9-1.3,4.3-1.4c1.4-0.2,2.8,0.2,4.2,1
				c0.6,0.4,1.1,1,1.6,1.7c0.4,0.6,0.8,1.4,1,2.4c0.2,1,0.3,2.2,0.2,3.7c-0.2,1.3-0.5,2.5-0.9,3.6c-0.4,0.9-1,1.8-1.7,2.7
				c-0.7,0.8-1.7,1.4-2.9,1.6c-0.7,0.1-1.2,0.1-1.5-0.2c-0.3-0.2-0.5-0.4-0.6-0.5c-0.6-0.7-1-1.6-1-2.5c0.1-0.5,0.3-0.9,0.7-1.1
				c0.3-0.2,0.7-0.4,0.9-0.6c0.7-0.2,1.5-0.7,2.3-1.4c0.9-0.7,1.3-2,1.4-3.8c-1.3,0-2.9,0.6-4.7,1.7c-1.6,1.2-3.5,3-5.9,5.4
				c-2.3,2.5-5.1,6.2-8.3,11.2c-1.7,2.9-3.1,5.7-4.2,8.3c-1,2.2-1.6,4.3-1.9,6.4c-0.3,2,0.2,3.5,1.4,4.3c1.1,0.7,2.7,0.9,4.8,0.4
				c2-0.5,4.3-1.4,6.8-2.9c2.5-1.5,5-3.4,7.7-5.7c2.7-2.4,5.2-5.1,7.6-8.3c0.8-1,1.5-2,2.2-3c0.7-0.9,1.3-1.8,1.8-2.7
				c0.6-0.9,1.2-1.8,1.7-2.7c0.4-0.5,0.8-1,1.2-1.4c0.3-0.3,0.5-0.5,0.8-0.6c0.3-0.1,0.4,0.2,0.4,0.9c0,0.4,0,0.8-0.1,1.3
				c-0.1,0.7-0.5,1.7-1.3,3c-0.3,0.5-1,1.6-2,3.2c-1,1.6-2.2,3.3-3.5,5.1c-3.6,4.4-7.1,8.1-10.7,11c-1.6,1.3-3.2,2.5-4.8,3.6
				c-1.7,1.2-3.3,2.1-5,2.8c-1.7,0.7-3.3,1.1-5,1.2C543.5,243.4,542,243.1,540.6,242.3z"/>
			<path class="st4" d="M609.8,216.7c-1.2,0.4-2.6,0.7-4.2,0.7c-1.6,0.1-3.2-0.1-4.6-0.4c-1,2.2-2.1,4.9-3.5,7.9
				c-1.4,3.1-3.1,6-5.2,8.7c-2.1,2.7-4.5,5.1-7.4,7c-2.8,1.9-6.1,2.9-9.8,2.8c-1.1,0-2.2-0.2-3.2-0.5c-1-0.3-1.9-0.8-2.6-1.6
				c-0.7-0.7-1.3-1.7-1.8-3c-0.4-1.3-0.7-2.9-0.7-5c0-3.1,0.5-6.5,1.5-10.1c1-3.6,2.4-7.1,4.2-10.4c1.8-3.3,4-6.3,6.7-9
				c2.6-2.7,5.5-4.6,8.7-5.7c0.4-1.6,1-2.6,1.7-3.2c0.7-0.6,1.5-0.9,2.5-0.9c1.7,0,3.1,0.5,4.3,1.4c1.2,0.9,2.2,2.2,2.9,3.6
				c0.7,1.5,1.3,3.1,1.6,5c0.3,1.8,0.5,3.6,0.5,5.3c0,0.7,0,1.4,0,2c0,0.6,0,1.3-0.1,2c0,0.3,0.3,0.5,1,0.6c0.7,0.1,1.5,0.1,2.5,0.1
				c1-0.1,1.9-0.1,2.8-0.2c0.9-0.1,1.5-0.1,1.8-0.1c1,0,1.4,0.5,1.4,1.4C610.8,216,610.5,216.5,609.8,216.7z M597.5,215.9
				c-2.8-1.3-4.9-2.7-6.3-4.4c-1.4-1.7-2.4-3.5-3-5.3c-1.8,1-3.8,2.7-5.8,5c-2,2.3-3.9,4.7-5.6,7.5c-1.7,2.7-3.1,5.5-4.2,8.4
				c-1.1,2.9-1.7,5.5-1.7,7.8c0,1.8,0.5,2.9,1.5,3.5c1,0.5,2.1,0.8,3.3,0.8c0.4,0,0.8,0,1.2,0c0.3,0,0.7-0.1,1-0.2
				c0.3-0.1,0.7-0.2,1-0.3c4.3-1.6,8.2-4.3,11.4-8.1c3.3-3.8,5.6-8.5,7.1-13.9V215.9z M598.3,211.2c0-4-0.6-7.2-1.7-9.8
				c-1.1-2.5-2.3-3.8-3.7-3.8c-0.9,0-1.5,0.5-1.8,1.4c-0.3,0.9-0.5,1.8-0.5,2.7c0,1.7,0.3,3.1,0.9,4.4c0.3,0.6,0.7,1.3,1,1.9
				c1.3,1.9,3.2,3.4,5.6,4.6v-0.8C598.2,211.5,598.2,211.3,598.3,211.2z"/>
		</g>
	</g>
	<g>
		<g>
			<g>
				<g>
					<g>
						<path class="st4" d="M289.5,91.7l-58.6-58.6l0.2-0.2c2.2-2.2,5-3.8,8.2-4.5l0.1,0l0.1,0c4,2.2,8.4,5.6,12.2,9.7
							c6.7,7.1,12.4,15.2,18.4,23.8c6.4,9.1,13.1,18.6,21.5,27.6l0.1,0.2L289.5,91.7z M231.4,33.1l58,58l1.4-1.4
							c-8.3-9-15-18.4-21.4-27.5c-6-8.5-11.7-16.6-18.3-23.7c-3.8-4-8-7.4-12-9.6C236.2,29.6,233.6,31,231.4,33.1z"/>
					</g>
					<g>
						<path class="st4" d="M291.2,90l-0.2-0.2c-8.4-9-15.1-18.5-21.5-27.7c-6-8.5-11.7-16.6-18.3-23.7c-3.8-4.1-8.1-7.5-12.1-9.6
							l-0.5-0.3l0.6-0.1c3.1-0.7,6.4-0.6,9.6,0.3c4.3,1.3,8.2,3.6,11.3,6.8c5.7,5.9,8.8,13.1,11.9,20.1c4.3,9.9,14.3,24.5,21.1,32.3
							l0.1,0.2L291.2,90z M239.8,28.7c3.9,2.2,8,5.5,11.7,9.4c6.7,7.1,12.4,15.2,18.4,23.8c6.4,9.1,13,18.5,21.3,27.4l1.3-1.3
							c-6.8-7.9-16.7-22.4-21-32.3c-3-6.9-6.2-14.1-11.8-20c-3-3.1-6.8-5.4-11.1-6.7C245.7,28.3,242.6,28.2,239.8,28.7z"/>
					</g>
					<g>
						<path class="st4" d="M287.8,93.4l-0.2-0.1c-9-8.4-18.5-15-27.6-21.5c-8.6-6-16.6-11.7-23.8-18.4c-4.1-3.8-7.6-8.2-9.7-12.2
							l0-0.1l0-0.1c0.7-3.1,2.3-5.9,4.5-8.2l0.2-0.2l58.6,58.6L287.8,93.4z M226.9,41.1c2.1,4,5.5,8.2,9.6,12
							c7.1,6.7,15.2,12.3,23.7,18.3c9.1,6.4,18.5,13,27.5,21.4l1.4-1.4l-58-58C229.1,35.5,227.6,38.1,226.9,41.1z"/>
					</g>
					<g>
						<path class="st4" d="M286.2,95l-0.2-0.1c-8-6.9-22.6-16.9-32.3-21.2l-0.3-0.1c-7-3-14.2-6.2-19.9-11.7
							c-3.2-3-5.5-6.9-6.8-11.3v0c-0.9-3.2-1-6.5-0.3-9.6l0.1-0.6l0.3,0.5c2.1,4,5.6,8.3,9.6,12.1c7.1,6.7,15.2,12.3,23.7,18.3
							c9.2,6.4,18.6,13.1,27.7,21.5l0.2,0.2L286.2,95z M227.2,50.5c1.2,4.3,3.5,8.1,6.7,11.1c5.7,5.4,12.8,8.6,19.8,11.6l0.3,0.1
							c9.7,4.2,24.2,14.2,32.2,21.1l1.3-1.3c-9-8.3-18.4-14.9-27.4-21.3c-8.6-6-16.6-11.7-23.8-18.4c-3.9-3.7-7.3-7.8-9.4-11.7
							C226.2,44.6,226.4,47.6,227.2,50.5L227.2,50.5z"/>
					</g>
				</g>
				<g>
					
						<rect x="282.1" y="89.4" transform="matrix(0.7071 -0.7071 0.7071 0.7071 19.664 232.6451)" class="st4" width="17.1" height="6.3"/>
				</g>
				<g>
					<g>
						<path class="st4" d="M353.8,156.3l0.6-0.6c9.3-8.5-61.3-67.4-61.3-67.4l-6.7,6.7C286.4,95,345.3,165.6,353.8,156.3z
							 M338.5,145.2c-2.4-2.4-3.3-5.4-2-6.7c1.3-1.3,4.3-0.4,6.7,2c2.4,2.4,3.3,5.4,2,6.7C343.9,148.5,340.9,147.6,338.5,145.2z"/>
					</g>
				</g>
			</g>
			<g>
				<path class="st4" d="M387.4,41.2c-0.7-3.1-2.2-5.8-4.4-8c-2.2-2.2-5-3.7-8-4.4c-3-0.7-6.2-0.6-9.4,0.3
					c-4.1,1.2-8.1,3.5-11.2,6.7c-5.5,5.8-8.7,12.9-11.8,20c-3.8,8.7-12.2,21.4-18.9,29.7c-12.6,10.8-72.1,62.7-63.8,70.3l0.6,0.6
					c7.6,8.3,59.5-51.3,70.3-63.8c8.4-6.8,21-15.2,29.7-19c7.2-3.1,14.3-6.2,20.1-11.7c3.2-3.1,5.5-7,6.7-11.2
					C388,47.4,388.1,44.1,387.4,41.2z M275.6,145.3c-2.4,2.4-5.4,3.3-6.7,2c-1.3-1.3-0.4-4.3,2-6.7c2.4-2.4,5.4-3.3,6.7-2
					C278.9,139.8,278,142.9,275.6,145.3z M374.7,60.7c-7.4,7.4-17.7,9.1-23.1,3.7c-5.3-5.3-3.7-15.7,3.7-23.1
					c0.1-0.1,0.2-0.2,0.3-0.3l0.3,0.3c-4.6,6.8-5.1,14.8-0.6,19.3c4.5,4.5,12.5,4,19.3-0.6l0.3,0.3
					C374.8,60.5,374.8,60.6,374.7,60.7z"/>
			</g>
		</g>
	</g>
	<g>
		<g>
			<path class="st0" d="M87.4,290.2c0.2,0.4,0.4,0.8,0.4,1.3c-0.4,0.2-0.9,0.3-1.3,0.4c-0.4,0.1-0.9,0.1-1.4,0.1
				c-0.8,0-1.5-0.1-2.1-0.4c-0.6-0.3-1.2-0.6-1.6-1.1c-0.4-0.5-0.8-1.1-1-1.7c-0.2-0.7-0.3-1.5-0.3-2.3c0-0.9,0.1-1.6,0.3-2.3
				c0.2-0.7,0.6-1.3,1-1.8c0.4-0.5,1-0.9,1.6-1.1c0.6-0.3,1.3-0.4,2.1-0.4c0.6,0,1.1,0,1.5,0.1c0.4,0.1,0.8,0.2,1.1,0.3
				c0,0.2-0.1,0.4-0.1,0.6c-0.1,0.2-0.1,0.4-0.2,0.6c-0.2,0-0.3-0.1-0.4-0.1s-0.3-0.1-0.5-0.1c-0.2,0-0.3-0.1-0.5-0.1
				c-0.2,0-0.4,0-0.7,0c-1.1,0-1.9,0.4-2.6,1.1s-0.9,1.8-0.9,3.2c0,0.7,0.1,1.3,0.3,1.9c0.2,0.5,0.4,1,0.7,1.3
				c0.3,0.3,0.7,0.6,1.1,0.8c0.4,0.2,0.9,0.3,1.5,0.3c0.4,0,0.8,0,1.1-0.1C86.7,290.4,87.1,290.3,87.4,290.2z"/>
			<path class="st0" d="M101.1,292c-0.8,0-1.5-0.1-2-0.4s-1-0.7-1.4-1.2c-0.4-0.5-0.7-1.1-0.8-1.8s-0.3-1.4-0.3-2.2s0.1-1.6,0.3-2.2
				s0.5-1.3,0.8-1.8c0.4-0.5,0.9-0.9,1.4-1.2c0.6-0.3,1.3-0.4,2-0.4c0.8,0,1.5,0.1,2,0.4c0.6,0.3,1,0.7,1.4,1.2
				c0.4,0.5,0.7,1.1,0.8,1.8s0.3,1.4,0.3,2.2s-0.1,1.6-0.3,2.2s-0.5,1.3-0.8,1.8c-0.4,0.5-0.9,0.9-1.4,1.2S101.9,292,101.1,292z
				 M101.1,290.6c0.5,0,0.9-0.1,1.3-0.3c0.4-0.2,0.7-0.5,0.9-0.9c0.2-0.4,0.4-0.8,0.5-1.3c0.1-0.5,0.2-1.1,0.2-1.8
				c0-0.7-0.1-1.2-0.2-1.8c-0.1-0.5-0.3-1-0.5-1.3c-0.2-0.4-0.5-0.6-0.9-0.8c-0.4-0.2-0.8-0.3-1.3-0.3s-0.9,0.1-1.3,0.3
				c-0.4,0.2-0.7,0.5-0.9,0.8c-0.2,0.4-0.4,0.8-0.5,1.3c-0.1,0.5-0.2,1.1-0.2,1.8c0,0.7,0.1,1.3,0.2,1.8c0.1,0.5,0.3,1,0.5,1.3
				c0.2,0.4,0.5,0.7,0.9,0.9C100.2,290.5,100.6,290.6,101.1,290.6z"/>
			<path class="st0" d="M115.4,281c0.1,0,0.2,0,0.4,0c0.1,0,0.2,0,0.4,0s0.2,0,0.4,0c0.1,0,0.2,0,0.4,0l4.7,8.1V281
				c0.1,0,0.2,0,0.4,0c0.1,0,0.3,0,0.4,0c0.1,0,0.2,0,0.3,0c0.1,0,0.2,0,0.3,0v10.8c-0.1,0-0.2,0-0.4,0c-0.1,0-0.2,0-0.4,0
				s-0.2,0-0.4,0c-0.1,0-0.2,0-0.4,0l-4.7-8.1v8.1c-0.1,0-0.2,0-0.4,0c-0.1,0-0.2,0-0.4,0c-0.1,0-0.3,0-0.4,0c-0.1,0-0.2,0-0.3,0
				V281z"/>
			<path class="st0" d="M133.2,281h5.7c0,0.1,0,0.2,0,0.3s0,0.2,0,0.3s0,0.2,0,0.3c0,0.1,0,0.2,0,0.3h-4.1v3.2h3.4
				c0,0.1,0,0.2,0,0.3c0,0.1,0,0.2,0,0.3s0,0.2,0,0.3c0,0.1,0,0.2,0,0.3h-3.4v5c-0.1,0-0.2,0-0.4,0c-0.1,0-0.3,0-0.4,0
				c-0.1,0-0.3,0-0.4,0c-0.1,0-0.3,0-0.4,0V281z"/>
			<path class="st0" d="M148.3,281h5.9c0,0.2,0,0.4,0,0.7c0,0.1,0,0.2,0,0.3c0,0.1,0,0.2,0,0.3h-4.4v3.1h3.5c0,0.1,0,0.2,0,0.3
				c0,0.1,0,0.2,0,0.3c0,0.1,0,0.2,0,0.3s0,0.2,0,0.3h-3.5v3.7h4.5c0,0.2,0,0.4,0,0.7c0,0.1,0,0.2,0,0.3c0,0.1,0,0.2,0,0.3h-6.1V281
				z"/>
			<path class="st0" d="M163.9,281c0.1,0,0.2,0,0.4,0c0.1,0,0.3,0,0.4,0c0.1,0,0.3,0,0.4,0c0.1,0,0.3,0,0.4,0v10.8
				c-0.1,0-0.2,0-0.4,0c-0.1,0-0.3,0-0.4,0c-0.1,0-0.3,0-0.4,0c-0.1,0-0.3,0-0.4,0V281z"/>
			<path class="st0" d="M177.5,282.3h-2.8c0-0.1,0-0.2,0-0.3c0-0.1,0-0.2,0-0.3s0-0.2,0-0.3c0-0.1,0-0.2,0-0.3h7.2
				c0,0.1,0,0.2,0,0.3c0,0.1,0,0.2,0,0.3s0,0.2,0,0.4c0,0.1,0,0.2,0,0.3H179v9.5c-0.2,0-0.5,0-0.8,0c-0.3,0-0.5,0-0.8,0V282.3z"/>
			<path class="st0" d="M195.4,289.3h-4.1l-0.7,2.5c-0.1,0-0.3,0-0.4,0c-0.1,0-0.3,0-0.4,0c-0.1,0-0.3,0-0.4,0s-0.3,0-0.4,0
				l3.5-10.8c0.1,0,0.3,0,0.4,0c0.2,0,0.3,0,0.5,0c0.1,0,0.3,0,0.4,0c0.2,0,0.3,0,0.4,0l3.5,10.8c-0.1,0-0.3,0-0.4,0s-0.3,0-0.4,0
				c-0.1,0-0.3,0-0.4,0c-0.1,0-0.3,0-0.4,0L195.4,289.3z M191.7,287.9h3.3l-1.7-5.5L191.7,287.9z"/>
			<path class="st0" d="M207,280.9c0.2,0,0.4,0,0.6-0.1c0.2,0,0.4,0,0.5-0.1c0.2,0,0.4,0,0.5,0c0.2,0,0.4,0,0.6,0c0.5,0,1,0,1.5,0.2
				s0.9,0.3,1.3,0.5c0.4,0.3,0.7,0.6,1,1c0.2,0.4,0.4,1,0.4,1.6c0,0.4-0.1,0.7-0.2,1.1c-0.1,0.3-0.3,0.6-0.5,0.9s-0.4,0.5-0.7,0.7
				c-0.3,0.2-0.5,0.3-0.7,0.5l-0.2,0.1l3.1,4.6c-0.3,0-0.6,0-0.9,0c-0.3,0-0.5,0-0.8,0l-3.5-5v-0.1l0.1,0c0.3-0.1,0.6-0.2,0.9-0.3
				c0.3-0.1,0.6-0.3,0.8-0.5c0.3-0.2,0.5-0.4,0.6-0.7c0.2-0.3,0.3-0.6,0.3-1c0-0.7-0.2-1.3-0.6-1.6c-0.4-0.4-1-0.5-1.7-0.5
				c-0.2,0-0.3,0-0.5,0c-0.1,0-0.3,0-0.5,0v9.7c-0.1,0-0.2,0-0.4,0c-0.1,0-0.3,0-0.4,0c-0.1,0-0.3,0-0.4,0c-0.1,0-0.3,0-0.4,0V280.9
				z"/>
			<path class="st0" d="M223.4,281c0.1,0,0.2,0,0.4,0c0.1,0,0.3,0,0.4,0c0.1,0,0.3,0,0.4,0c0.1,0,0.3,0,0.4,0v10.8
				c-0.1,0-0.2,0-0.4,0c-0.1,0-0.3,0-0.4,0c-0.1,0-0.3,0-0.4,0c-0.1,0-0.3,0-0.4,0V281z"/>
			<path class="st0" d="M240.5,289.3h-4.1l-0.7,2.5c-0.1,0-0.3,0-0.4,0c-0.1,0-0.3,0-0.4,0c-0.1,0-0.3,0-0.4,0c-0.1,0-0.3,0-0.4,0
				l3.5-10.8c0.1,0,0.3,0,0.4,0c0.2,0,0.3,0,0.5,0c0.1,0,0.3,0,0.4,0c0.2,0,0.3,0,0.4,0l3.5,10.8c-0.1,0-0.3,0-0.4,0
				c-0.2,0-0.3,0-0.4,0c-0.1,0-0.3,0-0.4,0s-0.3,0-0.4,0L240.5,289.3z M236.8,287.9h3.3l-1.7-5.5L236.8,287.9z"/>
		</g>
	</g>
	<g>
		<g>
			<path class="st0" d="M365.3,281c0.3,0,0.8-0.1,1.2-0.1c0.5,0,1-0.1,1.4-0.1c1.9,0,3.3,0.5,4.3,1.4s1.4,2.3,1.4,4.2
				c0,1.9-0.5,3.3-1.4,4.2c-1,0.9-2.4,1.4-4.3,1.4c-0.5,0-0.9,0-1.4-0.1s-0.9-0.1-1.2-0.1V281z M366.8,290.5c0.1,0,0.3,0,0.5,0.1
				c0.2,0,0.4,0,0.7,0c0.6,0,1.1-0.1,1.6-0.2c0.5-0.1,0.9-0.4,1.3-0.7c0.4-0.3,0.6-0.8,0.8-1.3c0.2-0.5,0.3-1.2,0.3-2.1
				c0-0.8-0.1-1.4-0.3-1.9c-0.2-0.5-0.5-1-0.8-1.3c-0.3-0.3-0.8-0.6-1.2-0.7c-0.5-0.2-1-0.2-1.6-0.2c-0.2,0-0.4,0-0.6,0
				s-0.4,0-0.6,0.1V290.5z"/>
			<path class="st0" d="M383.3,281h5.9c0,0.2,0,0.4,0,0.7c0,0.1,0,0.2,0,0.3c0,0.1,0,0.2,0,0.3h-4.4v3.1h3.5c0,0.1,0,0.2,0,0.3
				c0,0.1,0,0.2,0,0.3c0,0.1,0,0.2,0,0.3s0,0.2,0,0.3h-3.5v3.7h4.5c0,0.2,0,0.4,0,0.7c0,0.1,0,0.2,0,0.3c0,0.1,0,0.2,0,0.3h-6.1V281
				z"/>
			<path class="st0" d="M398.6,290.1c0.3,0.1,0.7,0.2,1,0.3c0.4,0.1,0.8,0.1,1.3,0.1c0.8,0,1.4-0.2,1.8-0.5c0.4-0.3,0.6-0.8,0.6-1.4
				c0-0.3,0-0.5-0.1-0.7c-0.1-0.2-0.2-0.4-0.4-0.5c-0.2-0.1-0.4-0.3-0.6-0.4c-0.3-0.1-0.6-0.3-0.9-0.4l-0.9-0.3
				c-0.3-0.1-0.6-0.3-0.8-0.4s-0.4-0.3-0.6-0.5s-0.3-0.5-0.4-0.7c-0.1-0.3-0.2-0.6-0.2-1c0-0.9,0.3-1.6,0.9-2.1
				c0.6-0.5,1.5-0.8,2.6-0.8c0.5,0,0.9,0,1.4,0.1s0.8,0.2,1.1,0.3c0,0.4-0.2,0.8-0.3,1.3c-0.3-0.1-0.6-0.2-0.9-0.3
				c-0.4-0.1-0.8-0.1-1.2-0.1c-0.6,0-1.1,0.1-1.5,0.4c-0.3,0.3-0.5,0.6-0.5,1.2c0,0.2,0,0.4,0.1,0.6c0.1,0.2,0.2,0.3,0.3,0.4
				c0.1,0.1,0.3,0.2,0.5,0.3c0.2,0.1,0.4,0.2,0.6,0.3l0.8,0.3c0.4,0.2,0.8,0.3,1.1,0.5c0.3,0.2,0.6,0.4,0.8,0.6
				c0.2,0.2,0.4,0.5,0.5,0.8s0.2,0.7,0.2,1.1c0,1-0.4,1.8-1.1,2.4c-0.7,0.6-1.7,0.9-3,0.9c-0.3,0-0.6,0-0.8,0s-0.5,0-0.7-0.1
				c-0.2,0-0.4-0.1-0.6-0.2c-0.2-0.1-0.4-0.1-0.6-0.2c0-0.2,0.1-0.4,0.1-0.7C398.5,290.6,398.6,290.4,398.6,290.1z"/>
			<path class="st0" d="M414.7,281c0.3,0,0.8-0.1,1.2-0.1c0.5,0,1-0.1,1.4-0.1c1.9,0,3.3,0.5,4.3,1.4s1.4,2.3,1.4,4.2
				c0,1.9-0.5,3.3-1.4,4.2c-1,0.9-2.4,1.4-4.3,1.4c-0.5,0-0.9,0-1.4-0.1s-0.9-0.1-1.2-0.1V281z M416.2,290.5c0.1,0,0.3,0,0.5,0.1
				c0.2,0,0.4,0,0.7,0c0.6,0,1.1-0.1,1.6-0.2c0.5-0.1,0.9-0.4,1.3-0.7c0.4-0.3,0.6-0.8,0.8-1.3c0.2-0.5,0.3-1.2,0.3-2.1
				c0-0.8-0.1-1.4-0.3-1.9c-0.2-0.5-0.5-1-0.8-1.3c-0.3-0.3-0.8-0.6-1.2-0.7c-0.5-0.2-1-0.2-1.6-0.2c-0.2,0-0.4,0-0.6,0
				s-0.4,0-0.6,0.1V290.5z"/>
			<path class="st0" d="M432.7,281h5.9c0,0.2,0,0.4,0,0.7c0,0.1,0,0.2,0,0.3c0,0.1,0,0.2,0,0.3h-4.4v3.1h3.5c0,0.1,0,0.2,0,0.3
				c0,0.1,0,0.2,0,0.3c0,0.1,0,0.2,0,0.3s0,0.2,0,0.3h-3.5v3.7h4.5c0,0.2,0,0.4,0,0.7c0,0.1,0,0.2,0,0.3c0,0.1,0,0.2,0,0.3h-6.1V281
				z"/>
			<path class="st0" d="M459,291.6l3.1-4c0.2-0.3,0.4-0.6,0.6-0.8c0.2-0.3,0.4-0.6,0.6-0.9c0.2-0.3,0.3-0.6,0.4-0.9
				c0.1-0.3,0.2-0.6,0.2-0.9c0-0.6-0.2-1-0.5-1.3c-0.3-0.3-0.9-0.5-1.6-0.5c-0.4,0-0.8,0-1.2,0.2c-0.3,0.1-0.6,0.2-0.9,0.3
				c-0.1-0.2-0.2-0.4-0.2-0.6c-0.1-0.2-0.1-0.4-0.1-0.6c0.3-0.2,0.7-0.3,1.1-0.4s0.9-0.2,1.5-0.2c0.5,0,1,0.1,1.4,0.2
				c0.4,0.1,0.8,0.3,1.1,0.6c0.3,0.3,0.6,0.6,0.7,1c0.2,0.4,0.3,0.8,0.3,1.3c0,0.6-0.1,1.1-0.3,1.6c-0.2,0.5-0.5,1-0.8,1.5
				c-0.3,0.5-0.7,1-1.2,1.6c-0.5,0.5-1,1.2-1.5,1.8h4c0,0.2,0.1,0.4,0.1,0.7c0,0.1,0,0.2,0,0.3c0,0.1,0,0.2,0,0.3h-6.7L459,291.6z"
				/>
			<path class="st0" d="M483,286.5c0,0.8-0.1,1.5-0.2,2.2c-0.1,0.7-0.4,1.3-0.7,1.7c-0.3,0.5-0.7,0.9-1.2,1.1s-1.1,0.4-1.8,0.4
				s-1.3-0.1-1.8-0.4c-0.5-0.3-0.9-0.7-1.2-1.1c-0.3-0.5-0.5-1.1-0.7-1.7c-0.1-0.7-0.2-1.4-0.2-2.2c0-0.8,0.1-1.5,0.2-2.2
				c0.1-0.7,0.4-1.3,0.7-1.7c0.3-0.5,0.7-0.9,1.2-1.1c0.5-0.3,1.1-0.4,1.8-0.4s1.3,0.1,1.8,0.4c0.5,0.3,0.9,0.7,1.2,1.1
				c0.3,0.5,0.5,1.1,0.7,1.7C482.9,284.9,483,285.7,483,286.5z M479.2,282.3c-1.5,0-2.2,1.4-2.2,4.1c0,2.8,0.7,4.1,2.2,4.1
				s2.2-1.4,2.2-4.1C481.4,283.7,480.6,282.3,479.2,282.3z"/>
			<path class="st0" d="M499.6,286.5c0,0.8-0.1,1.5-0.2,2.2c-0.1,0.7-0.4,1.3-0.7,1.7c-0.3,0.5-0.7,0.9-1.2,1.1s-1.1,0.4-1.8,0.4
				s-1.3-0.1-1.8-0.4c-0.5-0.3-0.9-0.7-1.2-1.1c-0.3-0.5-0.5-1.1-0.7-1.7c-0.1-0.7-0.2-1.4-0.2-2.2c0-0.8,0.1-1.5,0.2-2.2
				c0.1-0.7,0.4-1.3,0.7-1.7c0.3-0.5,0.7-0.9,1.2-1.1c0.5-0.3,1.1-0.4,1.8-0.4s1.3,0.1,1.8,0.4c0.5,0.3,0.9,0.7,1.2,1.1
				c0.3,0.5,0.5,1.1,0.7,1.7C499.5,284.9,499.6,285.7,499.6,286.5z M495.7,282.3c-1.5,0-2.2,1.4-2.2,4.1c0,2.8,0.7,4.1,2.2,4.1
				s2.2-1.4,2.2-4.1C497.9,283.7,497.2,282.3,495.7,282.3z"/>
			<path class="st0" d="M508.3,289.7l-0.1-0.2l4.4-8.6c0.2,0,0.4,0.1,0.7,0.2c0.2,0.1,0.4,0.2,0.7,0.3l-3.5,7h3v-2.9
				c0.1,0,0.2,0,0.4,0c0.1,0,0.2,0,0.3,0c0.1,0,0.3,0,0.4,0c0.1,0,0.2,0,0.4,0v2.9h1.4c0,0.1,0,0.2,0,0.3c0,0.1,0,0.2,0,0.3
				c0,0.1,0,0.2,0,0.3c0,0.1,0,0.2,0,0.3h-1.4v2.1c-0.1,0-0.3,0-0.4,0c-0.1,0-0.2,0-0.4,0c-0.1,0-0.2,0-0.4,0c-0.1,0-0.2,0-0.4,0
				v-2.1H508.3z"/>
		</g>
	</g>
</g>
</svg>
