<?xml version="1.0" encoding="utf-8"?>
<!-- Generator: Adobe Illustrator 22.0.1, SVG Export Plug-In . SVG Version: 6.00 Build 0)  -->
<svg version="1.1" id="Warstwa_1" xmlns="http://www.w3.org/2000/svg" xmlns:xlink="http://www.w3.org/1999/xlink" x="0px" y="0px"
	 viewBox="0 0 978.4 218" style="enable-background:new 0 0 978.4 218;" xml:space="preserve">
<style type="text/css">
	.st0{fill:#300601;}
</style>
<g>
	<g>
		<g>
			<path class="st0" d="M50.8,50.4c0.5-0.6,0.9-1.4,1.5-2c1.1-1.2,2.1-2.3,3.3-3.3c1.8-2.1,3.8-4.2,5.9-6.5s4.4-4.7,6.9-6.9
				c7.5-6.6,15.2-11.1,22.7-13.7c9.3-3,18.3-2.6,27.2,1.2c0.2,0,0.8,0.3,1.7,0.9c1.1,0.6,2.1,1.5,3.6,2.9c1.4,1.2,2.9,2.9,4.4,4.8
				s2.7,4.5,3.9,7.5c4.1,11.3,3.3,25.2-2.3,41.9c-0.8,2.4-1.8,5.1-3.2,8.4c-1.4,3.2-3.2,6.6-5.4,10.2c-2.3,3.6-5,7.4-8.3,11.1
				c-3.2,3.8-6.9,7.4-11.1,10.5c-7.7,5.7-16.1,9.8-25.2,11.9c-2.9,0.8-5.7,1.2-8.6,1.5c-2.9,0.3-5.9,0.5-8.9,0.5
				c-5.1,0-10.2-0.5-15.3-1.5h-0.2c-0.6,0-2.3-0.5-5.3-1.5c-2.9,5.9-5.1,11.6-6.9,17.1c-1.8,5.6-3.2,10.7-3.8,15.3
				c-0.3,1.5-0.8,2.3-1.5,2.1c-0.8-0.2-1.2-0.2-1.5-0.5v-0.3c-1.5-0.9-2.6-2.6-3.2-5.3v-2.6c0.8-3.2,1.7-7.2,3-12.2
				c1.4-5,3.2-10.5,5.6-17c-2.9-1.4-5.9-2.9-9-4.5c-3.2-1.7-6.3-3.8-9.3-6.2c-0.8-0.3-1.4-0.8-2-1.2c-0.6-0.5-1.2-0.8-1.8-1.2
				s-1.2-1.1-2-1.5c-1.1-0.9-2.1-1.7-3-2.6c-0.8-0.9-1.4-1.8-2-2.9S0,102.9,0,101.6c0-1.5,0.5-2.7,1.2-3.5s1.7-1.1,2.7-1.1
				c1.1,0.2,2.3,0.6,3.5,1.5c1.2,0.9,2.3,2.4,3.2,4.5c0.6,1.4,1.2,2.6,2,3.8c0.8,1.1,1.5,2.1,2.4,3.2c0.9,1.1,2,2,3,2.7h-0.2
				c2.4,1.7,4.8,3.2,7.2,4.4c2.4,1.2,4.7,2.3,6.9,3.3c4.7-12,11.3-25.7,20-41.2C60.5,63.7,72.3,47,87,29.2c0.8-0.9,1.4-1.1,2.1-0.5
				c0.6,0.3,1.2,0.9,2,1.7s1.2,1.8,1.7,2.9c0.3,1.2,0.3,2.6-0.2,4.4c-0.5,1.7-1.4,3.6-3,5.9c-5.9,8.3-11.7,17-17.7,25.8
				c-5.1,7.7-10.5,16.1-16.2,25.5s-10.8,19.1-15.3,28.7c2.1,0.8,3.5,1.1,4.1,1.1c8.1,1.5,15.8,1.8,23.1,1.1
				c8.6-1.2,15.9-4.4,22.2-9.5c6.3-5.1,11.6-10.7,15.8-16.7c5-6.8,9-14.3,12.5-22.5c3.5-9.6,5.6-17.7,6.2-24.2
				c0.6-6.5,0.6-11.7-0.3-15.8c-0.9-4.1-2.1-7.2-3.8-9.3c-1.7-2.1-3.2-3.6-4.7-4.5c-13.7-5.3-28.4-1.1-44.2,12.5
				c-2,1.8-3.8,3.6-5.4,5.3c-1.7,1.7-3.2,3.5-4.7,5.1c-0.9,1.1-1.5,2.1-2.1,3.5c-0.6,1.2-1.1,2.4-1.2,3.5c-0.5,1.2-0.8,2.4-0.9,3.6
				c-1.1,4.2-2.9,6.8-5.4,7.5c-2.4,0.8-4.1-0.3-4.7-3.2c-0.3-1.2-0.3-2.4,0.2-3.6c0.3-1.2,0.9-2.4,1.5-3.5
				C48.8,52.5,49.7,51.4,50.8,50.4z"/>
			<path class="st0" d="M126.2,160.1c-2.7-1.8-4.4-4.7-5.3-8.6c-0.8-3.2-0.6-7.7,0.2-13.2c0.8-5.6,3.5-12.8,7.8-21.5
				c4.1-8,8.4-14.7,13.1-20.3c1.8-2.4,3.8-4.7,6-6.8c2.1-2.1,4.4-3.8,6.8-5.1c2.3-1.2,4.7-2,6.9-2.3c2.3-0.3,4.7,0.2,6.8,1.4
				c1.5,1.1,2.7,2.4,3.3,4.4c0.8,1.7,1.1,3.9,0.9,6.5c-0.2,2.6-1.1,6-2.6,10.1c-1.5,3.9-3.8,7.2-6.8,10.2c-2.6,2.4-5.9,4.5-10.2,6.3
				c-4.2,1.8-9.6,2.4-16.1,1.8l-0.2,0.5c-3,4.8-5.3,9.2-6.8,13.2c-1.5,3.5-2.6,6.6-3,9.9c-0.5,3.2,0.3,5.6,2.3,6.9
				c1.8,1.2,4.4,1.4,7.7,0.6c3.3-0.8,6.9-2.3,11-4.7c4.1-2.4,8.1-5.4,12.5-9.3c4.2-3.8,8.4-8.3,12.3-13.4c1.1-1.7,2.3-3.3,3.3-4.8
				s2.1-3,3-4.4c1.1-1.5,2-3,2.7-4.4c0.8-0.9,1.4-1.7,2-2.3c0.6-0.5,1.1-0.8,1.5-0.9c0.5-0.2,0.6,0.5,0.6,1.4
				c-0.2,0.8-0.3,1.4-0.5,2c-0.3,0.8-0.6,1.5-0.8,2.3c-0.2,0.9-0.6,1.7-1.2,2.6c-0.8,0.9-1.8,2.6-3.3,5.3c-1.5,2.6-3.3,5.4-5.4,8.3
				c-5.9,7.1-11.7,13.1-17.4,17.7c-2.6,2.1-5.1,3.9-7.8,5.9c-2.7,1.8-5.3,3.3-8,4.5c-2.7,1.1-5.3,1.8-8,2
				C130.8,161.8,128.3,161.3,126.2,160.1z M166.7,94.1c-1.8-0.2-4.1,0.6-6.5,2.3c-2.3,1.4-5.1,3.8-8.4,7.2c-3.3,3.5-7.4,8.6-11.7,15
				c2.4-0.2,5.1-0.6,8-1.2c3-0.6,5.7-2,8.3-3.6c2.6-1.8,4.8-4.2,6.8-7.4C165.1,103.2,166.3,99,166.7,94.1z"/>
			<path class="st0" d="M223.7,113.7c-2.9,5.4-5.4,10.7-7.8,15.9c-2.4,5.1-4.4,10.2-5.9,15c-0.8,2.1-1.2,3.9-1.5,5.6
				c-0.3,1.4-0.5,2.6-0.3,3.8c0,1.2,0.6,2,1.7,2.3c1.4,0.5,3.5-0.2,6.2-1.8c2.7-1.7,5.6-3.8,8.3-6.2c3.2-2.7,6.8-5.9,10.5-9.3
				c0.9-0.6,1.7-1.2,2.3-1.8c0.6-0.3,1.1-0.5,1.5-0.5c0.5,0.2,0.6,0.6,0.3,1.4c-0.2,0.8-0.5,1.4-0.9,2.1c-0.8,1.4-1.7,2.7-3,4.1
				c-0.8,0.8-2.1,2-4.1,4.1c-2.1,2.1-4.4,4.1-7.1,6.2c-2.7,2.1-5.4,3.9-8.1,5.4c-2.7,1.5-5.1,2.3-7.2,2c-2.1-0.2-3.8-1.1-5-2.6
				c-1.2-1.5-2.1-3.3-2.7-5.6c-0.6-2.3-0.8-4.5-0.6-7.1c0.2-2.6,0.6-5,1.2-7.1c-2.1,2.6-4.5,5.3-7.2,8.3c-2.7,3-5.4,5.6-8.3,7.8
				c-2.9,2.3-5.6,4.1-8.3,5.3c-2.7,1.2-5.3,1.2-7.5,0.3c-2.7-1.7-4.2-4.5-4.8-8.4c-0.6-3.2,0-8,1.5-14.1s5.3-14.3,11-24.2
				c3.5-6.2,7.2-11.3,11-15.8c3.8-4.4,7.5-8,11-10.5c3.6-2.6,6.9-4.4,9.9-5.3c3.2-0.9,5.7-0.6,8,0.5c2.7,1.2,4.4,3.9,5.1,8.1
				c5.1-9.6,11-19.8,18-30.5c6.9-10.7,15.2-21.8,24.6-33.3c0.8-0.9,1.5-1.1,2.3-0.5c0.6,0.3,1.2,0.9,1.8,1.7
				c0.6,0.8,1.1,1.8,1.5,2.9c0.3,1.2,0.3,2.6-0.2,4.4c-0.5,1.7-1.4,3.6-3,5.9c-5.3,7.1-10.4,14.6-15.6,22.5
				c-4.5,6.8-9.3,14.4-14.6,22.8C233,96.2,228.2,104.9,223.7,113.7z M194.2,140.5c2.6-2.6,5-5.4,7.2-8.6c2.3-3.2,4.2-6.3,6-9.3
				c1.8-3,3.3-5.6,4.5-8c1.2-2.4,2.1-4.2,2.7-5.3c0.2-0.3,0.3-0.6,0.3-0.6c0-0.2,0.2-0.3,0.3-0.6c0.3-0.3,0.5-0.8,0.6-1.2
				c0-0.5,0.3-0.9,0.5-1.2c1.2-2.7,2-4.8,2-6.5c0-1.7,0-2.6-0.2-2.9c-0.5-1.4-1.2-2.3-2.3-2.9c-1.7-0.6-3.8-0.3-6.2,1.2
				s-4.8,3.6-7.5,6.3c-2.6,2.7-5.1,5.9-7.7,9.3c-2.6,3.6-4.8,6.9-6.8,10.2c-2.1,3.5-4.1,6.9-5.9,10.7c-1.8,3.8-3.5,7.2-4.7,10.4
				c-1.4,3.2-2.3,6-2.9,8.4c-0.6,2.4-0.6,3.9,0,4.5c0.9,0.9,2.9,0.2,5.9-2.1c3.2-2.3,6.6-5.1,10.5-8.6h0.2c0.6-0.5,1.1-1.1,1.7-1.5
				C193.2,141.7,193.6,141.1,194.2,140.5z"/>
			<path class="st0" d="M269.3,139.9c-1.8,2.4-3.9,4.8-6.2,7.4c-2.3,2.6-4.7,5-7.2,7.2c-2.6,2.3-5,4.2-7.5,5.6
				c-2.4,1.5-4.8,2.1-7.1,2.1c-1.1,0-2.1-0.3-3.2-0.8c-1.1-0.5-1.8-1.2-2.6-2.3c-0.8-0.9-1.4-2-1.8-3.6c-0.5-1.5-0.8-3.5-0.8-5.9
				c0-3.6,0.9-8.1,2.6-13.7c1.8-5.6,5.1-12.6,9.9-21.3c6-10.4,12.3-18.2,18.8-23.7c6.5-5.6,12-8.3,16.7-8.3c3.2,0,5.7,1.2,7.2,3.5
				c1.7,2.3,2.4,5.4,2.4,9.3c0,4.5-1.1,10.2-3,17h0.6c0.5,0.2,0.9,0.3,1.5,0.5c0.3,0.3,0.6,0.6,0.9,0.9c0.3,0.3,0.6,0.8,0.6,1.7
				c0,0.8-0.9,2.4-2.6,5.3c-1.7,2.9-3.6,6.2-5.6,10.1c-2.1,3.8-3.9,7.7-5.6,11.7c-1.7,4.1-2.6,7.5-2.6,10.4c0,2.4,0.9,3.6,2.7,3.6
				c1.5,0,3.8-0.9,6.5-2.7c2.7-1.8,5.4-3.8,8.1-6c3.2-2.6,6.3-5.6,9.6-8.9c0.5-0.3,0.9-0.6,1.5-1.1c0.5-0.3,0.8-0.6,1.2-0.9
				c0.3-0.3,0.6-0.5,0.9-0.5c0.5,0,0.6,0.3,0.6,0.8l0.2,0.5c0,0.5-0.3,1.2-0.8,2.3c-0.5,1.1-1.5,2.4-3,4.1c-0.8,0.8-2.1,2-4.1,3.9
				c-2.1,2-4.4,3.9-6.8,6c-2.6,2-5.1,3.9-7.8,5.4c-2.7,1.7-5.1,2.4-7.2,2.4c-3.2,0-5.6-1.4-6.8-4.2c-1.4-2.9-2-6-2-9.5
				C268,145.6,268.4,142.7,269.3,139.9z M255.2,120.3c-1.8,3-3.6,6.2-5.3,9.3c-1.7,3.2-3.2,6.3-4.4,9.3c-1.2,3-2.3,5.7-3,8.1
				c-0.8,2.4-1.2,4.4-1.2,5.7c0,1.2,0.5,1.8,1.2,1.8c1.1,0,2.9-0.9,5.4-2.6c2.4-1.7,5.1-3.9,8.1-6.5c3-2.6,6-5.6,9.2-8.7
				s6-6.3,8.6-9.3c0.8-1.4,1.4-2.7,2-4.2c0.6-1.5,1.4-2.9,2.3-4.5c0.5-0.9,0.9-1.7,1.5-2.3c0.6-0.6,1.2-1.4,2.1-2
				c0.9-0.6,2-1.2,3.3-1.5c0.3-1.8,0.6-3.9,0.9-6.2s0.5-4.2,0.5-6.2c0-2.3-0.3-4.1-0.9-5.6s-1.8-2.3-3.5-2.3c-1.8,0-3.9,0.9-6.2,2.6
				c-2.3,1.7-4.7,3.9-7.1,6.6c-2.4,2.7-4.7,5.7-7.1,8.9C259.1,114.2,257,117.3,255.2,120.3z"/>
			<path class="st0" d="M307.8,160.1c-2.7-1.8-4.4-4.7-5.3-8.6c-0.8-3.2-0.6-7.7,0.2-13.2c0.8-5.6,3.3-12.8,7.7-21.5
				c4.1-8.1,8.4-15,13.1-20.6c1.8-2.4,3.8-4.7,6-6.8c2.1-2.1,4.4-3.8,6.8-5.1c2.3-1.2,4.7-2.1,6.9-2.3c2.3-0.3,4.7,0.3,6.8,1.7
				c1.1,0.8,1.8,1.7,2.6,2.9c0.8,1.1,1.2,2.3,1.5,3.9c0.3,1.7,0.5,3.6,0.3,6c-0.3,2.1-0.8,3.9-1.5,5.9c-0.8,1.5-1.7,3-2.7,4.4
				c-1.1,1.4-2.7,2.3-4.7,2.6c-1.1,0.2-2,0.2-2.4-0.3c-0.5-0.3-0.8-0.6-0.9-0.8c-1.1-1.2-1.5-2.6-1.7-4.1c0.2-0.9,0.5-1.5,1.1-1.8
				c0.6-0.3,1.1-0.6,1.5-1.1c1.1-0.3,2.4-1.1,3.8-2.3c1.4-1.2,2.1-3.2,2.3-6.2c-2.1,0-4.7,0.9-7.5,2.9c-2.6,1.8-5.7,4.8-9.5,8.7
				c-3.8,3.9-8.3,10.1-13.5,18.2c-2.9,4.8-5.1,9.2-6.8,13.4c-1.5,3.6-2.6,6.9-3,10.2s0.3,5.6,2.3,6.9c1.8,1.2,4.4,1.4,7.7,0.6
				c3.3-0.8,6.9-2.3,11-4.7c4.1-2.4,8.1-5.4,12.5-9.3c4.2-3.8,8.4-8.3,12.3-13.4c1.2-1.7,2.4-3.3,3.6-4.8c1.1-1.5,2.1-3,3-4.4
				c1.1-1.5,2-3,2.7-4.4c0.8-0.9,1.4-1.7,2-2.3c0.5-0.5,0.9-0.8,1.2-0.9c0.5-0.2,0.6,0.5,0.6,1.4c0,0.8,0,1.4-0.2,2
				c-0.2,1.2-0.9,2.9-2.1,4.8c-0.6,0.9-1.7,2.6-3.3,5.3c-1.7,2.6-3.5,5.4-5.6,8.3c-4.8,5.6-9.5,10.5-14.3,15
				c-2.1,1.8-4.4,3.6-6.6,5.4c-2.3,1.8-4.7,3.5-7.2,4.8c-2.4,1.5-4.8,2.6-7.2,3.3c-2.4,0.8-4.7,1.2-6.9,1.2
				c-0.3,0.3-0.5,0.6-0.5,0.9c0,0.3,0,0.5-0.2,0.6l-0.2,0.5l-1.5,5.3c-0.3,0.5-0.5,1.1-0.5,1.5c0,0.5-0.2,1.1-0.5,1.5
				c4.5-1.2,8-1.8,10.4-1.8s4.2,0.3,5.4,0.9c1.1,0.6,1.8,1.4,2,2.3c0.2,0.9,0.2,1.8,0,2.4c-0.3,1.2-0.9,2.4-2,3.6
				c-1.1,1.2-2.3,2.3-3.5,3.5c-1.2,1.1-2.6,2.1-3.9,2.9c-1.4,0.8-2.6,1.4-3.5,2c-5.1,2.6-8.6,3.5-10.7,2.7c-2.1-0.8-3.3-2.1-3.8-3.9
				c-0.5-1.8-0.2-5,0.6-9.2c-0.9,0.2-2,0.5-3.3,0.6c-1.4,0.3-2.7,0.5-4.1,0.5c-1.4,0.2-2.6,0.2-3.8,0.3c-1.2,0.2-2.1,0.2-2.6,0.2
				c-0.8-0.2-1.5-0.6-2.3-1.2c-0.9-0.6-0.6-0.9,0.6-1.2l3.6-0.5c2-0.2,4.1-0.5,6.3-0.8c2.3-0.3,4.4-0.8,6.3-1.1
				c0.3-0.9,0.6-1.7,0.9-2.3c0.3-0.8,0.6-1.4,0.9-2.1c0.3-0.8,0.6-1.4,0.9-2c0.8-2.1,1.4-3.6,1.8-4.5c0.5-1.1,0.9-1.8,1.2-2.6
				C307.8,160.4,307.8,160.3,307.8,160.1z M310.3,180.7c0,1.1,0.3,1.8,0.9,2.3c0.6,0.5,1.2,0.9,1.8,1.2c0.6,0.3,1.2,0.5,1.7,0.5
				c0.5,0.2,0.6,0.2,0.6,0.2c0.3-0.2,0.6-0.3,0.8-0.3c0.2,0,0.5-0.2,0.8-0.5c2.3-1.1,4.2-2.3,5.7-3.6c1.5-1.4,2.4-2.3,2.6-2.9
				c0.5-1.7,0-2.9-1.4-3.5c-1.4-0.6-2.9-0.9-4.7-0.9c-1.8,0-3.6,0.2-5.3,0.6c-1.7,0.5-2.7,0.8-3.2,0.9c-0.3,1.1-0.5,2.1-0.6,3
				C309.7,178.9,309.9,179.8,310.3,180.7z"/>
			<path class="st0" d="M419.2,118.8c-2,0.8-4.2,1.1-6.8,1.2s-5.1-0.2-7.5-0.6c-1.5,3.6-3.5,7.8-5.7,12.8c-2.3,5-5.1,9.6-8.4,14.1
				c-3.3,4.4-7.4,8.1-11.9,11.3c-4.5,3.2-9.9,4.7-15.9,4.5c-1.8,0-3.6-0.3-5.1-0.8c-1.7-0.5-3-1.4-4.2-2.6c-1.2-1.2-2.1-2.9-2.9-4.8
				c-0.8-2.1-1.1-4.7-1.1-8.1c0-5.1,0.8-10.5,2.4-16.4c1.7-5.9,3.9-11.4,6.8-16.7c3-5.3,6.5-10.2,10.7-14.4
				c4.2-4.4,8.9-7.4,14.1-9.3c0.8-2.6,1.7-4.2,2.7-5.3c1.1-0.9,2.4-1.4,4.1-1.4c2.7,0,5,0.8,6.9,2.3c2,1.5,3.6,3.5,4.8,5.9
				c1.2,2.4,2.1,5.1,2.6,8c0.6,3,0.9,5.9,0.9,8.6c0,1.2,0,2.3,0,3.3c0,1.1,0,2.1-0.2,3.3c0,0.5,0.6,0.9,1.7,1.1
				c1.1,0.2,2.4,0.2,4.1,0.2c1.5-0.2,3-0.2,4.5-0.3c1.5-0.2,2.4-0.2,2.9-0.2c1.5,0,2.3,0.8,2.3,2.3
				C420.9,117.8,420.3,118.5,419.2,118.8z M399.4,117.6c-4.5-2.1-7.8-4.4-10.1-7.1s-3.9-5.6-4.8-8.6c-3,1.7-6,4.4-9.3,8
				c-3.3,3.6-6.3,7.7-9,12c-2.7,4.4-5,8.9-6.8,13.5c-1.8,4.7-2.7,8.9-2.7,12.6c0,2.9,0.8,4.8,2.4,5.6c1.7,0.9,3.5,1.2,5.4,1.2
				c0.8,0,1.4,0,2,0s1.1-0.2,1.7-0.3c0.6-0.2,1.1-0.3,1.7-0.5c7.1-2.6,13.1-6.9,18.3-13.1c5.3-6.2,9-13.7,11.4-22.4v-1.1H399.4z
				 M400.6,110c0-6.5-0.9-11.7-2.7-15.8c-1.8-4.1-3.8-6.2-5.9-6.2c-1.4,0-2.4,0.8-3,2.3c-0.6,1.5-0.9,3-0.9,4.4
				c0,2.7,0.5,5.1,1.5,7.1c0.6,1.1,1.1,2,1.7,3c2.1,3,5.1,5.6,9,7.4v-1.2C400.4,110.4,400.6,110.1,400.6,110z"/>
			<path class="st0" d="M453.9,95.6c0.3-11.3,2-22.1,5-32.4c3-10.4,7.4-19.5,13.1-27.6s12.8-14.7,21.2-20s18.2-8.3,29.4-9.2
				c6.3-0.5,13.1,0,20.1,1.5c7.1,1.5,13.7,4.4,19.8,8.4c6.2,4.1,11.3,9.8,15.5,16.8c4.2,7.2,6.6,16.2,7.2,27c0.2,2.1,0.2,5.1-0.2,9
				c-0.2,3.9-0.6,8-1.2,12c-0.6,4.1-1.7,7.7-3,10.8c-1.4,3.2-3,4.8-5.1,5c-1.1,0.2-2-0.3-2.6-1.2c-0.6-1.1-1.1-2.3-1.2-3.6
				c-0.3-2.6,0.8-5.1,3-7.8c1.1-1.2,1.8-2.3,2.4-3.2c0.6-0.9,1.2-2,1.8-3.2c0.6-1.2,1.1-2.4,1.2-3.8c0.5-2.3,0.6-4.5,0.8-6.8
				c0-2.3,0-4.5-0.2-6.8c-0.5-7.5-1.8-13.8-4.1-19.4c-2.3-5.4-5.1-9.9-8.4-13.7c-3.3-3.8-7.1-6.8-11.3-8.9
				c-4.1-2.3-8.3-3.9-12.3-5.1c-4.1-1.2-8.1-2-11.9-2.1c-3.8-0.3-7.1-0.3-9.6-0.2c-6.8,0.5-13.8,2.3-21,5.1
				c-7.4,2.9-14.1,7.5-20.4,14.1c-6.2,6.5-11.6,15-15.8,25.7c-4.4,10.5-6.9,23.9-7.8,39.8c-0.5,9,0.2,17.1,2,24.2
				c1.7,7.2,4.1,13.5,7.2,19.1c3.2,5.6,6.8,10.2,11,14c4.2,3.8,8.6,6.9,13.1,9.2c4.5,2.3,9,3.9,13.5,4.7c4.5,0.9,8.6,1.1,12.2,0.8
				c8.7,0,17-1.8,24.8-5.4c7.8-3.6,15.2-8.3,22.1-14c6.9-5.7,13.2-12,19.1-18.9c5.9-6.9,11.3-13.7,16.4-20.3
				c5.1-6.8,9.9-13.5,14.6-20.1c4.7-6.6,9-13.2,12.9-19.7c1.5-18.9,4.1-32.6,7.4-41S641.2,16,644.6,16c2.4,0,4.2,1.2,5.6,3.6
				c1.4,2.4,2,5.1,2,7.7c0,2.6-0.6,6-2,10.2c-1.2,4.4-3,9-5.1,14c-2.1,5-4.4,10.1-6.9,15.2c-2.6,5.1-5.1,10.1-7.5,14.6
				c0,5.9,0,12.3,0.2,19.2c0.2,6.9,0.6,14.4,1.2,22.5c3-4.5,6.8-10.4,11.7-17.4c4.8-7.1,10.1-14.7,15.8-22.7s11.6-16.1,17.7-24.2
				c6.2-8.1,11.9-15.5,17.4-21.9c5.6-6.5,10.7-11.9,15.2-15.9c4.7-4.2,8.3-6.2,11.1-6.2h1.5c0.2,0,0.6,0,1.5,0.2s1.8,0.5,2.7,1.2
				c1.1,0.8,2,2,2.7,3.6c0.9,1.7,1.2,3.9,1.2,6.9c0,0.3-1.5,2.9-4.4,7.4c-2.9,4.5-6.6,10.7-11,18.2c-4.5,7.5-9.5,16.2-15.2,26.1
				c-5.6,9.9-11.3,20.4-16.8,31.5c-2,3.9-4.1,8-6.2,12.5c-2.1,4.4-4.2,8.6-5.9,12.6c-1.8,4.1-3.2,7.7-4.4,11
				c-1.2,3.3-1.8,5.9-1.8,7.5c0,2.4,0.9,3.6,2.6,3.6c1.5,0,3.8-0.9,6.5-2.7c2.9-1.8,5.6-3.8,8.3-6c3.2-2.6,6.3-5.6,9.6-8.9
				c0.3-0.3,0.8-0.6,1.2-1.1c0.3-0.3,0.6-0.6,1.2-0.9c0.5-0.3,0.9-0.5,1.2-0.5c0.5,0,0.6,0.3,0.6,1.1c0,0.3-0.2,1.1-0.5,2.1
				c-0.3,1.1-1.5,2.6-3.3,4.5c-0.8,0.8-2.1,2-4.1,3.9c-2,2-4.2,3.9-6.8,6c-2.6,2-5.3,3.9-8,5.4c-2.7,1.7-5.1,2.4-7.2,2.4
				c-3.2,0-5.4-1.5-6.8-4.4c-1.2-2.9-2-6.2-2-9.6c0-4.5,1.4-10.5,4.1-17.9s6-15.3,10.1-23.9s8.6-17.4,13.5-26.4
				c5-9.2,9.9-17.7,14.6-25.7c4.8-8,9-15.2,12.8-21.3c3.8-6.2,6.6-10.7,8.4-13.5c-0.8,0-1.7,0.3-2.7,1.1c-1.1,0.8-2.6,1.8-4.4,3.5
				c-1.8,1.7-3.9,3.9-6.5,6.9c-2.4,3-5.4,6.8-8.7,11.3c-3.9,5.4-8.1,11.6-12.6,18.3c-4.5,6.9-9,14-13.5,21.2
				c-4.5,7.2-9,14.4-13.4,21.3c-4.4,6.9-8.4,13.2-12,18.6c-3.6,5.6-6.8,9.9-9.5,13.2c-2.7,3.3-4.5,5-5.7,5c-3.5,0-5.7-1.2-6.6-3.6
				c-0.9-2.4-1.4-5.1-1.4-8c0-7.1,0.2-13.8,0.3-20.3c0.2-6.5,0.5-12.3,0.8-17.7c-33.5,55.6-68.9,83.2-106.3,82.9
				c-11,0-20.4-2-28.5-5.7c-8.1-3.8-14.9-9-20.3-15.8c-5.4-6.8-9.5-14.9-12.2-24.3C455.3,117.5,453.9,107,453.9,95.6z M632.3,57.3
				c-0.2,0.2-0.2,0.5-0.2,1.1c0,0.3,0,0.8-0.2,1.2c0,0.5-0.2,1.1-0.2,1.8c9.3-15.8,13.8-27.3,13.8-34.7c0-1.8-0.2-3.2-0.6-3.9
				c-0.5-0.8-0.9-1.4-1.5-1.7c-0.6,0.3-1.4,0.9-2.3,2c-1.1,0.9-2,2.7-3,5.3s-2.1,6.3-3.3,11C634,43.7,633.1,49.7,632.3,57.3z"/>
			<path class="st0" d="M727.3,139.9c-1.8,2.4-3.9,4.8-6.2,7.4c-2.3,2.6-4.7,5-7.2,7.2c-2.6,2.3-5,4.2-7.5,5.6
				c-2.4,1.5-4.8,2.1-7.1,2.1c-1.1,0-2.1-0.3-3.2-0.8c-1.1-0.5-1.8-1.2-2.6-2.3c-0.8-0.9-1.4-2-1.8-3.6c-0.5-1.5-0.8-3.5-0.8-5.9
				c0-3.6,0.9-8.1,2.6-13.7c1.8-5.6,5.1-12.6,9.9-21.3c6-10.4,12.3-18.2,18.8-23.7c6.5-5.6,12-8.3,16.7-8.3c3.2,0,5.7,1.2,7.2,3.5
				c1.7,2.3,2.4,5.4,2.4,9.3c0,4.5-1.1,10.2-3,17h0.6c0.5,0.2,0.9,0.3,1.5,0.5c0.3,0.3,0.6,0.6,0.9,0.9c0.3,0.3,0.5,0.8,0.5,1.7
				c0,0.8-0.9,2.4-2.6,5.3c-1.7,2.9-3.6,6.2-5.6,10.1c-2.1,3.8-3.9,7.7-5.6,11.7c-1.7,4.1-2.6,7.5-2.6,10.4c0,2.4,0.9,3.6,2.7,3.6
				c1.5,0,3.6-0.9,6.5-2.7c2.7-1.8,5.4-3.8,8.1-6c3.2-2.6,6.3-5.6,9.6-8.9c0.5-0.3,0.9-0.6,1.5-1.1c0.5-0.3,0.8-0.6,1.2-0.9
				c0.3-0.3,0.6-0.5,0.9-0.5c0.5,0,0.6,0.3,0.6,0.8l0.2,0.5c0,0.5-0.3,1.2-0.8,2.3c-0.5,1.1-1.5,2.4-3,4.1c-0.8,0.8-2.1,2-4.1,3.9
				c-2.1,2-4.4,3.9-6.8,6c-2.6,2-5.1,3.9-7.8,5.4c-2.7,1.7-5.1,2.4-7.2,2.4c-3.2,0-5.6-1.4-6.8-4.2c-1.4-2.9-2-6-2-9.5
				C726.1,145.6,726.5,142.7,727.3,139.9z M713.3,120.3c-1.8,3-3.6,6.2-5.3,9.3c-1.7,3.2-3.2,6.3-4.4,9.3c-1.2,3-2.3,5.7-3,8.1
				c-0.8,2.4-1.2,4.4-1.2,5.7c0,1.2,0.5,1.8,1.2,1.8c1.1,0,2.9-0.9,5.4-2.6c2.4-1.7,5.1-3.9,8.1-6.5c3-2.6,6-5.6,9.2-8.7
				s6-6.3,8.6-9.3c0.8-1.4,1.4-2.7,2-4.2c0.6-1.5,1.4-2.9,2.3-4.5c0.5-0.9,0.9-1.7,1.5-2.3c0.6-0.6,1.2-1.4,2.1-2
				c0.9-0.6,2-1.2,3.3-1.5c0.3-1.8,0.6-3.9,0.9-6.2c0.3-2.3,0.5-4.2,0.5-6.2c0-2.3-0.3-4.1-0.9-5.6S741.7,93,740,93
				c-1.8,0-3.9,0.9-6.2,2.6c-2.3,1.7-4.7,3.9-7.1,6.6c-2.4,2.7-4.7,5.7-7.1,8.9C717.2,114.2,715.1,117.3,713.3,120.3z M738.2,67.2
				c2.9,1.4,5.1,2.3,6.9,2.6c1.8,0.3,3.3,0.6,4.4,0.8c1.1,0.2,2.1,0.5,2.7,0.8c0.8,0.3,1.4,1.2,2.1,2.6c0.6,1.2,0.8,2.3,0.8,3.5
				c0,1.1-0.5,2-1.2,2.4c-1.2,0.9-2.7,0.9-4.4,0.5c-1.7-0.6-3.2-1.5-4.7-2.6s-2.9-2.1-4.1-3.2c-1.1-1.1-1.8-1.7-2-1.8
				c-1.1-1.4-2.3-2.7-3.6-3.9c-1.2-1.2-2.1-2.9-2.6-4.7c0-0.3,0.2-0.5,0.5-0.3c0.3,0.2,0.6,0.5,1.2,1.1c0.5,0.5,1.1,1.1,1.7,1.5
				C736.9,66.6,737.6,67,738.2,67.2z"/>
			<path class="st0" d="M698.1,199.2c0.9,2,2.4,3.6,4.5,5c2.1,1.2,4.7,2.3,7.2,3c2.7,0.8,5.4,1.4,8.3,1.7c2.9,0.3,5.4,0.5,7.7,0.5
				c7.2,0,14-2.1,20.4-6.5s12.6-9.8,18-16.2c5.6-6.6,10.5-13.7,15.2-21.2c4.5-7.5,8.6-14.7,11.9-21.3c-1.8,2-3.8,4.2-5.9,6.3
				c-2.1,2.3-4.2,4.2-6.3,5.9c-2.1,1.7-4.2,3.2-6.5,4.2c-2.1,1.1-4.2,1.7-6,1.7c-1.1,0-2.1-0.3-3.2-0.8c-1.1-0.5-1.8-1.2-2.6-2.3
				c-0.8-0.9-1.4-2-1.8-3.6c-0.5-1.5-0.8-3.5-0.8-5.9c0-3.6,0.9-8.1,2.6-13.7c1.8-5.6,5.1-12.6,9.9-21.3c6-10.4,12.3-18.2,18.8-23.7
				c6.5-5.6,12-8.3,16.7-8.3c3.2,0,5.7,1.2,7.2,3.5c1.7,2.3,2.4,5.4,2.4,9.3c0,4.5-1.1,10.2-3,17h0.6c0.5,0.2,0.9,0.3,1.5,0.5
				c0.3,0.3,0.6,0.6,0.9,0.9c0.3,0.3,0.6,0.8,0.6,1.7c0,1.2-0.6,2.9-2,5.1c-0.8,1.2-1.8,3-3.5,5.6c-1.7,2.6-3.2,5.4-4.8,8.6
				c-1.7,3.2-3,6.3-4.2,9.6c-1.2,3.3-1.8,6.2-1.8,8.7c0,2.4,0.9,3.6,2.7,3.6c1.5,0,3.6-0.9,6.5-2.7c2.7-1.8,5.4-3.8,8.1-6
				c3.2-2.6,6.3-5.6,9.6-8.9c0.5-0.3,0.9-0.6,1.5-1.1c0.5-0.3,0.8-0.6,1.2-0.9c0.3-0.3,0.6-0.5,0.9-0.5c0.5,0,0.6,0.3,0.6,0.8
				c0.2-0.2,0.2,0.3,0.2,1.4s-1.4,2.9-3.6,5.4c-0.9,0.9-2.3,2.3-4.4,4.2c-2.1,2-4.4,3.9-6.9,6c-2.6,2.1-5.3,3.8-8.1,5.3
				s-5.3,2.3-7.4,2.3c-2.7-0.2-4.7-1.7-6.2-4.4c-3.5,6.3-7.7,12.8-12.5,19.4c-4.8,6.6-10.1,12.8-15.9,18.3
				c-5.9,5.6-12.2,10.1-19.1,13.5c-6.9,3.6-14.1,5.3-21.6,5.3c-5.9,0-12-1.1-18.2-3.2c-6.3-2.1-12-5.4-17.3-9.8
				c-0.6-0.3-1.1-0.9-1.7-1.5c-0.6-0.5-1.1-1.1-1.7-1.8c-0.6-0.8-1.1-1.5-1.2-2.3c-0.8-1.4-0.9-2.7-0.8-4.2c0.2-1.5,0.8-2.6,1.7-3.2
				c1.4-1.1,2.7-1.2,3.6-0.6c1.1,0.6,2,1.5,2.9,2.9c0.9,1.2,1.7,2.7,2.3,4.4C696.9,196.6,697.5,198,698.1,199.2z M767.2,154.3
				c0.2,0.2,0.5,0.3,0.9,0.3c1.1,0,2.9-0.9,5.4-2.6c2.4-1.7,5.1-3.9,8.1-6.5c3-2.6,6-5.6,9.2-8.7c3.2-3.2,6-6.3,8.6-9.3
				c0.8-1.4,1.4-2.7,2-4.2c0.6-1.5,1.4-2.9,2.3-4.5c0.5-0.9,0.9-1.7,1.5-2.3c0.6-0.6,1.2-1.4,2.1-2c0.9-0.6,2-1.2,3.3-1.5
				c0.3-1.8,0.6-3.9,0.9-6c0.3-2.1,0.5-4.1,0.5-6c0-2.4-0.3-4.4-0.9-5.9c-0.6-1.5-1.8-2.3-3.5-2.3c-2.6,0-5.3,1.2-8.3,3.6
				c-3,2.4-5.9,5.6-8.9,9.3c-3,3.8-5.9,8-8.6,12.6c-2.9,4.7-5.3,9.2-7.5,13.7c-2.1,4.5-3.9,8.6-5.3,12.2c-1.4,3.6-2,6.3-2,8.3
				C766.9,153.5,767.1,154,767.2,154.3z"/>
			<path class="st0" d="M833.9,162.2c-2-0.2-3.5-0.9-4.5-2.1c-1.1-1.2-1.8-2.9-2.3-4.7c-0.5-1.8-0.8-3.9-0.6-6.2
				c0-2.3,0.3-4.5,0.8-6.5c0.5-2.7,1.4-5.9,2.6-9.3c1.4-3.5,2.9-7.1,4.5-10.7c1.7-3.6,3.5-7.1,5.1-10.4c1.8-3.3,3.3-6.2,4.5-8.6
				c0.6-1.1,1.1-2,1.7-3c0.5-1.1,1.1-2,1.7-2.9c1.2-2.4,2.6-4.7,3.8-6.9s2.6-4.5,4.1-6.9l0.2-0.3c0.3-0.3,0.6-0.8,1.1-1.2
				s0.9-0.5,1.5-0.2c0.6,0.3,1.2,0.8,2.1,1.2c0.9,0.5,1.5,1.4,2,2.4c0.5,1.1,0.6,2.4,0.5,4.1c-0.2,1.7-0.9,3.6-2.1,6.2
				c-1.1,2.3-2.1,3.9-2.7,5.3c-0.8,1.4-1.2,2.4-1.7,3.3c-0.2,0.3-0.3,0.8-0.6,1.1c-0.3,0.3-0.9,1.5-2,3.5s-2.1,4.2-3.6,6.8
				c-1.4,2.6-2.9,5.3-4.4,8.1c-1.5,2.9-2.7,5.4-3.9,7.7v0.3l-0.9,1.8c-1.1,1.8-1.8,3.6-2.7,5.3c-0.8,1.7-1.5,3.5-2,5.1
				c-0.9,2.1-1.5,3.9-2,5.6c-0.3,1.4-0.5,2.6-0.5,3.8s0.5,2,1.2,2.3c1.4,0.5,3.5-0.2,6.3-1.8c2.9-1.7,5.6-3.8,8.4-6.2
				c3.3-2.7,6.9-5.9,10.5-9.3c0.9-0.6,1.7-1.2,2.3-1.8c0.6-0.3,1.1-0.5,1.7-0.5c0.5,0.2,0.6,0.6,0.3,1.4c-0.2,0.8-0.5,1.4-0.9,2.1
				c-0.8,1.4-1.7,2.7-3,4.1c-0.8,0.8-2.1,2-4.2,4.1c-2.1,2.1-4.5,4.1-7.1,6.2c-2.6,2.1-5.3,3.9-8,5.4
				C838.4,161.6,836,162.4,833.9,162.2z M866.3,80.5c-1.2,1.7-2.3,2.4-3,2.1h-0.5c-0.6-0.5-0.9-1.2-0.9-2.3s0-2.1,0-3.2
				c0-1.1,0.2-2.1,0.5-2.9c0.2-0.9,0.3-1.5,0.3-1.8s0-0.5,0.2-0.5c0.5-1.5,0.9-3,1.5-4.4c0.6-1.2,1.2-2.3,1.8-3.2
				c0.6-0.9,1.5-1.5,2.6-2c1.2-0.3,2.3-0.2,3,0.6c0.8,0.8,1.2,1.8,1.5,3.2c0.2,1.4,0.2,2.9-0.3,4.5s-1.4,3.3-2.7,4.8
				c-0.5,0.5-0.9,1.1-1.5,1.5c-0.5,0.5-0.9,1.1-1.2,1.5C867.1,79.3,866.6,79.9,866.3,80.5z"/>
			<path class="st0" d="M865.4,160.1c-2.7-1.8-4.4-4.7-5.3-8.6c-0.8-3.2-0.6-7.7,0.2-13.2c0.8-5.6,3.3-12.8,7.7-21.5
				c4.1-8.1,8.4-15,13.1-20.6c1.8-2.4,3.8-4.7,6-6.8c2.1-2.1,4.4-3.8,6.8-5.1c2.3-1.2,4.7-2.1,6.9-2.3c2.3-0.3,4.7,0.3,6.8,1.7
				c1.1,0.8,1.8,1.7,2.6,2.9c0.8,1.1,1.2,2.3,1.7,3.9c0.3,1.7,0.5,3.6,0.3,6c-0.3,2.1-0.8,3.9-1.5,5.9c-0.8,1.5-1.7,3-2.7,4.4
				c-1.1,1.4-2.7,2.3-4.7,2.6c-1.1,0.2-2,0.2-2.4-0.3c-0.5-0.3-0.8-0.6-0.9-0.8c-1.1-1.2-1.5-2.6-1.7-4.1c0.2-0.9,0.5-1.5,1.1-1.8
				c0.6-0.3,1.1-0.6,1.5-1.1c1.1-0.3,2.4-1.1,3.8-2.3c1.4-1.2,2.1-3.2,2.3-6.2c-2.1,0-4.7,0.9-7.5,2.9c-2.6,1.8-5.7,4.8-9.5,8.7
				c-3.8,3.9-8.3,10.1-13.5,18.2c-2.9,4.8-5.1,9.2-6.8,13.4c-1.5,3.6-2.6,6.9-3,10.2s0.3,5.6,2.3,6.9c1.8,1.2,4.4,1.4,7.7,0.6
				c3.3-0.8,6.9-2.3,11-4.7c4.1-2.4,8.1-5.4,12.5-9.3c4.2-3.8,8.4-8.3,12.3-13.4c1.2-1.7,2.4-3.3,3.6-4.8c1.1-1.5,2.1-3,3-4.4
				c1.1-1.5,2-3,2.7-4.4c0.8-0.9,1.4-1.7,2-2.3c0.5-0.5,0.9-0.8,1.2-0.9c0.5-0.2,0.6,0.5,0.6,1.4c0,0.8,0,1.4-0.2,2
				c-0.2,1.2-0.9,2.9-2.1,4.8c-0.6,0.9-1.7,2.6-3.3,5.3c-1.7,2.6-3.5,5.4-5.6,8.3c-5.7,7.1-11.6,13.1-17.3,17.7
				c-2.6,2.1-5.1,3.9-7.8,5.9c-2.7,1.8-5.4,3.3-8.1,4.5c-2.7,1.1-5.4,1.8-8,2C870.1,161.8,867.7,161.3,865.4,160.1z"/>
			<path class="st0" d="M976.9,118.8c-2,0.8-4.2,1.1-6.8,1.2c-2.6,0.2-5.1-0.2-7.5-0.6c-1.5,3.6-3.5,7.8-5.7,12.8
				c-2.3,5-5.1,9.6-8.4,14.1c-3.3,4.4-7.4,8.1-11.9,11.3c-4.5,3.2-9.9,4.7-15.9,4.5c-1.8,0-3.6-0.3-5.1-0.8c-1.7-0.5-3-1.4-4.2-2.6
				s-2.1-2.9-2.9-4.8c-0.8-2.1-1.1-4.7-1.1-8.1c0-5.1,0.8-10.5,2.4-16.4c1.7-5.9,3.9-11.4,6.8-16.7c3-5.3,6.5-10.2,10.7-14.4
				c4.2-4.4,8.9-7.4,14.1-9.3c0.8-2.6,1.7-4.2,2.7-5.3c1.1-0.9,2.4-1.4,4.1-1.4c2.7,0,5,0.8,6.9,2.3c2,1.5,3.6,3.5,4.7,5.9
				c1.2,2.4,2.1,5.1,2.6,8c0.6,3,0.9,5.9,0.9,8.6c0,1.2,0,2.3,0,3.3c0,1.1,0,2.1-0.2,3.3c0,0.5,0.6,0.9,1.7,1.1
				c1.1,0.2,2.4,0.2,4.1,0.2c1.5-0.2,3-0.2,4.5-0.3c1.5-0.2,2.4-0.2,2.9-0.2c1.5,0,2.3,0.8,2.3,2.3
				C978.5,117.8,977.9,118.5,976.9,118.8z M957,117.6c-4.5-2.1-7.8-4.4-10.1-7.1c-2.3-2.7-3.9-5.6-4.8-8.6c-3,1.7-6,4.4-9.3,8
				c-3.3,3.6-6.3,7.7-9,12c-2.7,4.4-5,8.9-6.8,13.5c-1.8,4.7-2.7,8.9-2.7,12.6c0,2.9,0.8,4.8,2.4,5.6c1.7,0.9,3.5,1.2,5.4,1.2
				c0.8,0,1.4,0,2,0c0.6,0,1.1-0.2,1.7-0.3c0.6-0.2,1.1-0.3,1.7-0.5c7.1-2.6,13.1-6.9,18.3-13.1c5.3-6.2,9-13.7,11.4-22.4v-1.1H957z
				 M958.4,110c0-6.5-0.9-11.7-2.7-15.8c-1.8-4.1-3.8-6.2-5.9-6.2c-1.4,0-2.4,0.8-3,2.3s-0.9,3-0.9,4.4c0,2.7,0.5,5.1,1.5,7.1
				c0.6,1.1,1.1,2,1.7,3c2.1,3,5.1,5.6,9,7.4v-1.2C958.1,110.4,958.3,110.1,958.4,110z"/>
		</g>
	</g>
</g>
</svg>
