<?xml version="1.0" encoding="utf-8"?>
<!-- Generator: Adobe Illustrator 22.0.1, SVG Export Plug-In . SVG Version: 6.00 Build 0)  -->
<svg version="1.1" id="Warstwa_1" xmlns="http://www.w3.org/2000/svg" xmlns:xlink="http://www.w3.org/1999/xlink" x="0px" y="0px"
	 viewBox="0 0 612 292.9" style="enable-background:new 0 0 612 292.9;" xml:space="preserve">
<style type="text/css">
	.st0{fill:#C47A00;}
	.st1{fill:#F8F4E8;stroke:#DB7B00;stroke-width:2;stroke-miterlimit:10;}
	.st2{fill:none;stroke:#C47A00;stroke-width:0.75;stroke-miterlimit:10;stroke-dasharray:3.0086,3.0086;}
	.st3{fill:#FFFFFF;}
	.st4{fill:#300601;}
</style>
<g>
	<g>
		<path class="st0" d="M546.3,250.4H56.2c-0.6,0-1,0.5-1,1s0.5,1,1,1h192.6c0.2,0.9,0.6,1.7,1.4,2.3c1.1,0.9,2.5,1.6,4.1,2
			c-0.8,1.4-0.9,2.4-0.4,3c0.5,0.7,1.3,0.9,2.5,0.7c0.8,0,1.5-0.2,2-0.6c0.6-0.3,1.2-0.7,1.9-1c-0.2,0.8-0.4,1.4-0.9,2
			c-0.4,0.6-0.6,1.1-0.4,1.4c0.1,0.6,0.5,0.9,1.2,0.9c0.7,0.1,1.5-0.1,2.4-0.7c0.8-0.2,1.6-0.7,2.4-1.4c0.8-0.7,1.6-1.4,2.4-2.1
			c0.7-0.7,1.4-1.5,2-2.2c0.6-0.7,1.1-1.3,1.6-1.8c0.7-0.7,1.7-1.4,3-1.9c1.3-0.5,2.3-0.7,3.1-0.7c0.3,0.1,0.4,0.4,0.5,0.9
			c0.1,0.6-0.1,0.9-0.4,1.1c-2.1,1.2-3.4,2.9-3.9,4.9c-0.1,0.7-0.2,1.4-0.3,2.3c-0.1,0.9-0.2,1.7-0.3,2.6c-0.1,0.8-0.2,1.5-0.4,2.2
			c-0.2,0.6-0.6,0.9-1.1,0.9c-0.2,0-0.4-0.1-0.4-0.2c-0.1-0.2-0.2-0.4-0.3-0.6c-0.2-0.2-0.3-0.4-0.6-0.5c-0.2-0.1-0.6-0.2-1.1-0.1
			c-0.4,0.1-0.7,0.3-1.1,0.7c-0.4,0.4-0.4,1-0.3,1.6c0.1,0.9,0.6,1.7,1.3,2.3c0.7,0.6,1.5,0.8,2.5,0.7c1.4-0.3,2.4-0.9,3.1-1.8
			c0.7-0.9,1.1-1.9,1.5-2.9c0.3-1,0.5-2,0.7-3c0.1-0.9,0.3-1.5,0.6-1.8c0.3-0.2,0.8-0.3,1.4-0.2c0.7,0,1.3,0.1,2.1,0.1
			c0.7,0,1.4,0,2.1-0.3c0.7-0.2,1.1-0.9,1.3-1.8c0.2-0.7,0.1-1.2-0.2-1.6c-0.3-0.5-0.7-0.9-1.1-1.3c-0.4-0.4-0.9-0.7-1.5-1
			c-0.5-0.3-1-0.6-1.3-0.9c-0.3-0.3-0.5-0.7-0.6-1.2c-0.1-0.5,0.1-0.8,0.6-0.8c2.4-0.1,4.8,0.1,7,0.8c2.2,0.7,4.2,1.7,5.8,3
			c1.7,1.3,3.1,2.9,4.1,4.8c1.1,2,1.7,4.2,1.9,6.5h-1.3c-0.2-0.9-0.7-1.6-1.4-2.1c-0.7-0.5-1.5-0.7-2.4-0.7c-1,0-1.8,0.3-2.6,1
			c-0.8,0.7-1.2,1.6-1.1,2.7c0,1.2,0.4,2.2,1.2,2.9c0.7,0.7,1.6,1.1,2.6,1.1c0.9,0,1.8-0.2,2.5-0.8c0.7-0.5,1.2-1.2,1.3-2h1.4
			c-0.1,2.2-0.5,4.2-1.3,5.9c-0.8,1.7-1.8,3.2-2.9,4.4c-1.2,1.2-2.5,2.1-4,2.7c-1.5,0.6-2.9,0.9-4.4,0.8c-1.5-0.1-2.8-0.5-4.1-1.4
			c-1.3-0.9-1.9-2.1-1.8-3.7c0-0.8,0.2-1.5,0.7-2.2c0.4-0.7,1-1,1.9-1c0.5,0.1,0.8,0.3,0.9,0.7c0.1,0.4,0.2,0.8,0.4,1.2
			c0.1,0.3,0.4,0.6,0.8,0.8c0.4,0.2,0.8,0.2,1.1,0c0.4,0,0.8-0.3,1-0.7c0.2-0.4,0.4-0.9,0.4-1.3c0.1-1-0.2-2-0.9-2.9
			c-0.7-1-1.6-1.5-2.8-1.5c-1.6,0-3.1,0.7-4.5,2c-1.4,1.3-2,3.1-1.9,5.3c0.2,2,0.8,3.5,1.7,4.8c0.9,1.2,2,2.2,3.4,2.9
			c1.3,0.7,2.8,1.1,4.4,1.3c1.5,0.2,3.1,0.1,4.4-0.2c0.2,0.4,0.5,0.7,0.8,0.9c0.3,0.2,0.9,0.3,1.6,0.3c0.7,0,1.2-0.2,1.6-0.7
			c0.4-0.5,0.8-1,1.2-1.5c1.5-2.4,2.5-5.3,3-8.5c0.6-3.2,0.8-6.4,0.7-9.6c0-2.6-0.6-5.1-1.5-7.3c-1-2.2-2.4-4.1-4.1-5.7
			c-1.4-1.3-3-2.3-4.8-3.1h23.1c-1.8,0.8-3.4,1.8-4.8,3.1c-1.8,1.6-3.1,3.5-4.1,5.7c-1,2.2-1.5,4.6-1.6,7.3
			c-0.1,3.2,0.2,6.4,0.7,9.6c0.6,3.2,1.5,6.1,2.9,8.5c0.4,0.5,0.8,1.1,1.2,1.5c0.4,0.5,1,0.7,1.6,0.7c1.2,0,2-0.4,2.4-1.1
			c1.5,0.3,3,0.4,4.5,0.2c1.5-0.1,3-0.6,4.3-1.3c1.3-0.7,2.4-1.7,3.4-2.9c1-1.2,1.5-2.8,1.6-4.8c0.2-2.2-0.5-4-1.9-5.3
			c-1.5-1.3-2.9-2-4.5-2c-1.2,0-2.1,0.6-2.7,1.5c-0.6,1-0.9,2-0.9,2.9c0.1,0.5,0.2,0.9,0.4,1.3c0.2,0.4,0.5,0.6,0.9,0.7
			c0.9,0.2,1.5,0,1.9-0.8c0.2-0.4,0.4-0.8,0.4-1.2c0.1-0.4,0.4-0.7,0.8-0.7c0.8,0,1.5,0.4,1.9,1c0.4,0.7,0.7,1.4,0.7,2.2
			c0,1.6-0.6,2.9-1.8,3.7c-1.2,0.9-2.6,1.3-4,1.4c-1.5,0.1-2.9-0.2-4.4-0.8c-1.5-0.6-2.8-1.5-3.9-2.7c-1.2-1.2-2.2-2.6-3-4.4
			c-0.8-1.7-1.2-3.7-1.3-5.9h1.4c0.1,0.8,0.6,1.4,1.3,2c0.7,0.5,1.5,0.8,2.4,0.8c1.1,0,2-0.4,2.7-1.1c0.7-0.7,1.1-1.6,1.1-2.9
			c0.1-1.1-0.3-2-1.1-2.7c-0.8-0.7-1.7-1-2.7-1c-0.8,0-1.5,0.2-2.3,0.7c-0.7,0.5-1.3,1.2-1.5,2.1h-1.3c0.2-2.4,0.9-4.5,1.9-6.5
			c1.1-2,2.4-3.6,4.2-4.8c1.7-1.3,3.7-2.3,5.9-3c2.2-0.7,4.6-0.9,7-0.8c0.4,0,0.6,0.2,0.5,0.8c-0.1,0.5-0.3,0.9-0.6,1.2
			c-0.3,0.4-0.8,0.7-1.3,1c-0.5,0.3-1,0.7-1.5,1c-0.4,0.4-0.8,0.7-1.1,1.2c-0.3,0.4-0.4,1-0.2,1.6c0.2,1,0.6,1.6,1.3,1.8
			c0.6,0.2,1.3,0.3,2.1,0.3c0.8,0,1.5-0.1,2.2-0.1c0.7-0.1,1.1,0,1.4,0.2c0.3,0.3,0.5,0.9,0.6,1.8c0.2,0.9,0.4,2,0.7,3
			c0.3,1.1,0.8,2,1.5,2.9c0.7,0.9,1.7,1.5,3,1.8c0.9,0.2,1.8-0.1,2.5-0.7c0.7-0.6,1.2-1.4,1.3-2.3c0.2-0.6,0-1.1-0.3-1.6
			c-0.3-0.4-0.7-0.7-1-0.7c-0.5,0-0.9,0-1.2,0.1c-0.3,0.1-0.4,0.3-0.6,0.5c-0.1,0.2-0.2,0.4-0.2,0.6c-0.1,0.2-0.2,0.2-0.4,0.2
			c-0.5,0-0.9-0.3-1.1-0.9c-0.2-0.6-0.4-1.3-0.5-2.2c-0.1-0.9-0.2-1.7-0.2-2.6c-0.1-0.9-0.2-1.6-0.3-2.3c-0.2-1.1-0.7-2-1.3-2.8
			c-0.7-0.9-1.5-1.5-2.5-2.1c-0.3-0.1-0.4-0.5-0.3-1.1c0.1-0.6,0.2-0.9,0.5-0.9c0.8,0,1.8,0.2,3.1,0.7c1.3,0.5,2.3,1.1,3,1.9
			c0.4,0.5,0.9,1.1,1.5,1.8c0.7,0.7,1.3,1.4,2,2.2c0.8,0.7,1.5,1.4,2.4,2.1c0.9,0.7,1.7,1.1,2.4,1.4c0.9,0.5,1.7,0.7,2.4,0.7
			c0.7-0.1,1.1-0.4,1.2-0.9c0.1-0.4-0.1-0.8-0.5-1.4c-0.4-0.6-0.7-1.3-0.7-2c0.7,0.3,1.3,0.7,1.9,1c0.6,0.3,1.2,0.5,2,0.6
			c1.2,0.2,2-0.1,2.5-0.7c0.5-0.6,0.3-1.6-0.4-3c1.6-0.4,3-1,4.1-2c0.8-0.6,1.2-1.4,1.4-2.3h192.6c0.6,0,1-0.5,1-1
			S546.9,250.4,546.3,250.4z M278.2,259.2c-0.4,0-0.7-0.2-0.7-0.7c0-0.3,0.2-0.5,0.7-0.5c0.4,0,0.6,0.2,0.6,0.5
			C278.8,259,278.6,259.2,278.2,259.2z M258.4,252.5h1.8C259.6,252.5,259,252.5,258.4,252.5z M342.2,252.5h1.8
			C343.4,252.5,342.8,252.5,342.2,252.5z"/>
		<path class="st0" d="M39.1,247.9h524.5c0.2,0,0.4-0.5,0.4-1s-0.2-1-0.4-1H39.1c-0.2,0-0.4,0.5-0.4,1S38.9,247.9,39.1,247.9z"/>
	</g>
	<g>
		<g>
			<path class="st0" d="M549.5,47.5c1.9-0.6,3.2-1.6,3.9-3.1c-3,1.2-6.1,1.8-9.4,1.8c-3.2,0.1-6.3-1-9.2-3c0.1,1.4,1.1,2.6,2.8,3.4
				c1.7,0.9,3.6,1.4,5.7,1.6C545.5,48.3,547.5,48.1,549.5,47.5z"/>
			<path class="st0" d="M535.1,34.5c0.6,1.3,1.1,2.8,1.4,4.2c0.4,1.5,1.2,2.8,2.2,3.8c1,1.1,3.1,1.5,6.5,1.2c2.6-0.3,4.7-0.9,6-2
				c1.4-1.1,2.5-2.4,3.3-3.7c0.9-1.4,1.6-2.8,2.3-4.1c0.8-1.4,1.8-2.5,3.1-3.3c-1.2-0.4-2-0.5-2.8-0.3c-0.8,0.1-1.4,0.4-2,0.8
				c-0.7,0.4-1.4,0.8-1.9,1.2c-0.7,0.5-1.3,0.8-2,1.1c-0.7-0.8-0.5-1.8,0.3-2.8c0.8-1.1,1-2.1,0.9-3.2c-0.1-1-0.8-2-2-2.7
				c-1.1-0.8-1.9-1.6-2.7-2.3c-1,0.8-2.2,1.8-3.6,2.9c-1.3,1.1-2,2.4-1.9,3.8c-0.2,0.7,0,1.5,0.3,2.2c0.4,0.7,0.7,1.4,0.9,2
				c0.2,0.6,0.3,1.3,0.2,1.9c-0.1,0.6-0.6,1.1-1.7,1.6c-0.6-0.8-1.2-1.8-1.8-2.8c-0.6-1-1.2-2-2-2.7c-0.8-0.7-1.7-1.1-2.9-1.1
				c-1.2,0-2.8,0.6-4.8,1.9C532.9,32.4,534.4,33.2,535.1,34.5z"/>
			<path class="st0" d="M531,61c0.8,0.7,1.8,1.3,2.9,1.8c1,0.4,2.1,0.7,3.4,0.7c1.2,0.2,2.5,0,3.7-0.4c1.1-1.9,2.1-4,2.9-6.2
				c0.7-2.3,0.8-4.4,0.2-6.6c-2-0.4-3.7-0.8-5.4-1.3c-1.7-0.5-3.3-1.1-4.5-1.8c-0.3,0.9-0.9,1.8-1.6,2.8c-0.7,0.9-1.4,1.9-2.1,2.9
				c-0.5,1.1-1,2-1.3,2.9c-0.3,0.9-0.3,1.8,0.1,2.7C529.6,59.4,530.2,60.2,531,61z"/>
			<path class="st0" d="M544.3,63.6c1.3,0.7,2.7,1,4.3,0.9c1.6-0.1,2.8-0.5,4.1-1.2c1.7-1.2,3.1-2.5,4-3.9c1-1.4,1.5-2.8,1.7-4.2
				c0.1-1.4-0.2-2.7-0.9-4c-0.7-1.3-1.7-2.4-2.9-3.2c-1.2,0.7-2.3,1.3-3.3,1.9c-1,0.5-2.2,1-3.5,1.5c0.6,2.1,0.6,4.2-0.1,6.4
				C546.8,59.8,545.8,61.8,544.3,63.6z"/>
			<path class="st0" d="M571.4,74.8c-2.5-0.1-4.7,0-6.8,0.5c-2,0.6-3.9,1.3-5.9,2.2c-1.9,0.8-4.1,1.2-6.5,1.4
				c0.7-0.9,1.5-2.3,2.3-4.1c0.9-1.8,1.2-3.4,0.6-4.7c-0.9,1.9-2.5,3.7-4.8,5.6c-2.4,1.9-4.8,3.7-7.3,5.6c-2.6,1.8-4.9,3.5-7.1,5.1
				c-2.1,1.6-3.6,3-4.2,4.3c0.9-1.8,1.9-3.7,3.2-5.6c1.3-2,2.4-3.8,3.6-5.7c1-1.9,2.1-3.7,3.1-5.4c0.8-1.8,1.5-3.5,1.8-5
				c-0.3-0.3-0.9-0.6-1.4-0.9c-0.6-0.3-1-0.5-1.3-0.7c-1.1,2.4-2.6,5-4.3,7.8c-1.6,2.8-3.4,5.6-5.4,8.4c-2,2.7-4.1,5.4-6.3,8.1
				c-2.2,2.7-4.5,5.1-6.9,7.4c-0.5-2.3-0.3-4.9,0.5-7.7c0.8-2.8,1.8-5.8,2.7-8.9c1-3.2,1.7-6.5,2.2-9.8c0.5-3.4,0.2-6.8-1-10.1
				c-0.7-0.6-1.6-1.1-2.5-1.8c-0.9-0.7-1.6-0.8-2.2-0.5c2.2,3.4,3.1,7.1,2.8,11.3c-0.4,4.1-1.1,8.2-2.1,12.1
				c-1.1,4-2.1,7.5-2.9,10.6c-0.9,3.2-0.6,5.4,0.6,6.7c-1.7,1.4-3.5,2.9-5.5,4.4c-2,1.6-4,3.2-5.9,4.7c-2,1.5-3.9,2.8-6,4
				c-2,1.1-3.8,2-5.5,2.4c2.5-2.6,4.6-5,6.4-7.4c1.8-2.4,3.3-4.8,4.5-7.3c0.8-1.4,1.3-2.8,1.9-4.3c0.5-1.6,1.1-3.1,1.8-4.5
				c0.8-1.6,1.7-3.1,2.9-4.5c1.1-1.4,2.6-2.7,4.5-3.9c-3.7-0.2-6.8,0.5-9,1.9c-2.3,1.5-4,2.9-5.2,4.2c-1.7-1-2.8-1.9-3-2.9
				c-0.2-0.9,0.1-1.8,0.8-2.7c0.7-1,1.7-1.9,2.9-2.9c1.3-0.9,2.6-1.9,3.8-3c1.3-1.1,2.3-2.2,3.3-3.3c0.9-1.2,1.2-2.5,1.1-3.8
				c-1.4,0.2-2.9,0.4-4.6,1c-1.8,0.5-3.4,1.2-5.1,2.1c-1.6,0.8-3.1,1.7-4.4,2.5c-1.3,0.9-2.3,1.8-2.9,2.6c-1.8-2.1-2.5-5-1.9-8.4
				c0.4-3.5,1.8-7.1,3.7-10.8c-2.2,1.3-4.2,2.8-6.2,4.9c-2,2.1-3.5,4.1-4.6,6.4c-1.1,2.2-1.7,4.4-1.8,6.5c0,2,0.8,3.8,2.6,5
				c-1.5,0.3-3.3,0.4-5.6,0.5c-2.2-0.1-4.1-0.2-5.4-0.7c-0.1,1.5,0.5,2.6,1.7,3.4c1.2,0.8,2.6,1.3,4.2,1.7c1.6,0.4,2.9,0.7,4.3,1
				c1.2,0.2,1.8,0.6,1.9,1.2c-0.1,0.3-0.5,0.6-1.6,0.8c-0.9,0.3-2,0.6-3.2,1c-1.2,0.4-2.2,0.9-3.3,1.5c-1,0.7-1.5,1.7-1.5,2.7
				c1.1,0.3,2.2,0.4,3.4,0.3c1.1-0.1,2.3-0.2,3.4-0.2c1.2-0.1,2.3,0,3.4,0.2c1.1,0.3,2,0.7,2.9,1.4c1.6,1.4,2.6,3.1,3.1,5
				c0.6,1.9,0.6,3.9,0.2,6c-0.6,2-1.5,4.1-3,6c-1.4,2-3.4,3.8-5.9,5.3c3.4-2.7,5.7-5.6,6.5-8.8c0.9-3.2,0.9-5.9,0-8.2
				c-0.8-2.3-2.4-3.7-4.6-4.3c-2.3-0.7-4.8,0.5-7.5,3c2.6,0.6,4.7,1.4,6,2.7c1.5,1.2,2.2,2.6,2.2,4.1c0,1.6-0.5,3.1-1.7,4.8
				c-1.2,1.6-2.9,3-5.3,4.1c-3.3,1.5-7.1,2.7-11.9,3.6c-4.7,0.8-9.9,1.4-15.5,1.7c-5.5,0.3-11.4,0.4-17.7,0.1
				c-4.9-0.1-9.7-0.4-14.5-0.7c0.9-0.4,1.8-0.7,2.6-1.1c4.9-2.3,9-4.7,12.4-7.2c1.9-1.5,3.8-2.4,5.6-2.9c1.8-0.4,3.3-0.4,4.6,0
				c1.3,0.3,2.2,0.3,2.7,0c0.6-0.2,0.9-0.6,1.1-1.1c0.2-0.4,0.2-1,0.1-1.6c-0.1-0.6-0.3-1.1-0.8-1.6c-1-1.1-2-1.7-3-1.8
				c-1-0.2-2.6-0.4-4.4-0.5c0.4-1.3,1.2-2.1,2.2-2.5c1-0.5,2.2-0.6,3.7-0.7c1.4,0,2.9,0.2,4.5,0.4c1.6,0.2,3.1,0.4,4.4,0.3
				c1.5,0.1,2.3-0.2,2.3-0.9c0.1-0.6-0.4-1.2-1.5-1.7c-1.4-1-2.5-1.5-3.3-1.8c-0.8-0.2-1.1-0.7-1.1-1.7c0.1-0.6,0.8-1,1.9-1.5
				c1.2-0.3,2.5-0.5,4-0.6c1.5,0,2.9,0.2,4.2,0.5c1.3,0.3,2.2,0.9,2.5,1.8c0.3,0.7,0.4,1.3,0.2,1.8c-0.1,0.5-0.4,1.1-0.8,1.5
				c-0.4,0.6-0.8,1-1.2,1.6c-0.4,0.5-0.8,1.1-0.9,1.7c-0.2,0.7-0.2,1.5,0.1,2.1c0.3,0.6,0.6,1.2,1,1.8c0.5,0.5,1,0.8,1.7,0.9
				c0.7,0.2,1.2,0,1.9-0.3c1.7-0.9,2.7-2.5,3-4.6c0.3-2.2,0.1-4.2-0.5-6.2c-0.6-1.8-1.6-3.4-2.7-4.6c-1.3-1.3-2.7-2.3-4.3-3
				c-1.6-0.7-3.4-1.3-5.2-1.6c-1.9-0.4-4-0.6-5.9-0.6c-0.8,0-1.4,0.3-1.8,0.9c-0.4,0.7-0.6,1.3-0.9,2.1c-0.2,0.7-0.6,1.3-1,1.9
				c-0.5,0.7-1.2,0.9-2.1,0.9c0-2.3-0.2-4.2-0.6-6c-0.5-1.8-1.1-3.2-2-4.3c-1-1.1-2.1-1.8-3.4-2.2c-1.4-0.4-3-0.3-4.9,0.3
				c-1.5-1.8-2.9-3.2-4.4-4.4c-1.5-1.1-3.4-1.7-6-1.6c-1.5,0.1-2.9,0.5-4.1,1.3c-1.1,0.7-1.9,1.8-2.2,3.4c-1.2-0.4-2.4-0.4-3.8,0.1
				c-1.3,0.5-2.4,1.1-3.4,2c-1,1-1.8,2-2.4,3.3c-0.5,1.3-0.7,2.5-0.5,3.7c0.9,4.5,3.2,6.6,6.7,6.3c-0.4-0.9-0.2-1.5,0.7-1.8
				c1.1-0.3,1.9-0.2,2.8,0.4c1.5,1.1,2.3,2.7,2.2,4.9c0,2.3-0.6,4.5-1.7,6.9c-1,2.4-2.7,4.6-4.6,6.5c-2.1,2-4.4,3.3-7.2,3.8
				c0.5-1.6,1.2-3.1,1.8-4.6c0.6-1.4,1.3-2.9,1.9-4.2c0.6-1.4,0.7-2.3,0.1-2.8c-0.6-0.4-1.3-0.2-1.9,0.6c-1.5,1.6-2.9,3.2-4.2,4.8
				c-1.3,1.5-2.6,3-4,4.3c-1.5,1.4-3,2.6-4.5,3.6c-1.7,1-3.5,1.9-5.6,2.6c-3.3,1.1-6.1,1.3-8.6,0.9c-2.6-0.6-4.5-1.6-6.1-3.3
				c1.4,0,2.7-0.2,4.1-0.5c1.4-0.4,2.5-0.9,3.5-1.5c1-0.7,1.7-1.4,2.1-2.3c0.3-0.9,0.3-1.7-0.2-2.7c-2.3,1-4.6,1.6-7.4,1.7
				c-2.7,0.1-5.3-0.4-7.9-1.2c-2.6-1-4.8-2.3-6.8-4c-2-1.8-3.3-3.9-3.8-6.5c-0.4-1.8-0.4-3.6,0.1-5.4c0.5-1.9,1.3-3.5,2.5-4.9
				c1.1-1.4,2.5-2.5,4.2-3.2c1.6-0.7,3.4-0.9,5.5-0.6c0.8,0.2,1.5,0.2,2.2-0.2c0.6-0.3,1-0.7,1.2-1.2c0.3-0.4,0.3-1,0.2-1.6
				c-0.2-0.8-0.4-1.3-0.9-1.9c-0.8-0.9-1.7-1.7-3-2.4c-1.3-0.7-2.6-1.2-4.1-1.4c3-3,6.3-4.9,10.1-5.9c3.7-0.9,7.2-1,10.5-0.3
				c3.2,0.7,5.9,2.2,8.1,4.6c2.1,2.4,3,5.5,2.6,9.2c-3.2-1.6-6.2-1.9-9.2-0.8c-1.4,0.5-2.5,1.4-3.3,2.7c-0.8,1.3-1.2,2.9-0.8,4.5
				c1.1,4,4,5.8,8.9,5.3c2.3-0.3,4.4-1.2,6.1-2.8c1.8-1.5,2.8-3.7,3.1-6.6c0.4-3.3,0.1-6.4-1.1-9.1c-1.3-2.7-3.1-5.3-5.3-7.6
				c0.5-1.1,1.6-1.9,3.3-2.3c1.5-0.5,3-0.5,4.2-0.2c-0.3-1.4-0.9-2.6-1.9-3.3c-0.9-0.8-2-1.3-3.1-1.2c-1.1-0.1-2.3,0.3-3.5,0.9
				c-1.2,0.7-2.2,1.8-3,3.4c-3.8-1.6-8-2-12.4-1.3c-4.4,0.8-8.3,2.1-11.5,3.9c-3.2,1.7-5.9,3.9-7.8,6.3c-2,2.5-3.4,4.9-4.3,7.5
				c-0.8,2.7-1.3,5.4-1.2,8.2c0.1,2.8,0.4,5.5,0.9,8.2c0.4,2.1,1.2,4.2,2.4,6.1c1.3,2,2.5,3.9,3.8,5.8c1.3,2,2.5,3.9,3.7,5.8
				c1.3,1.9,2,3.8,2.4,5.8c0.3,1.4,0.3,2.8,0,4.2c-0.2,1.4-0.9,2.9-1.9,4.5c1.7,0,3.4-0.3,4.7-1.1c1.2-0.7,2.3-1.7,3-2.9
				c0.7-1.2,1.1-2.5,1.2-4c0.2-1.4-0.2-2.8-0.9-4.2c4.8,2.9,10.1,4.9,15.6,5.8c5.5,0.9,11.1,0.8,16.6-0.3c0.8-0.2,1.5-0.3,2.3-0.5
				c2.9,0.6,6.5,1,10.9,1.3c4.8,0.4,10.2,0.5,16,0.4c5.8-0.1,11.8-0.4,18-0.8c6.3-0.4,12.3-1.1,18.1-2c5.9-0.9,11.3-2,16.4-3.2
				c5-1.3,9.2-2.7,12.5-4.3c1.7-0.8,3.7-1.2,6-1c2.3,0,4.1,0.8,5.2,2.3c1.1,1.3,1.8,2.8,2,4.4c0.2,1.6,1,2.9,2.3,4
				c1.2,1,2.7,1.5,4.6,1.8c1.8,0.2,3.6,0.1,5.2-0.2c-0.6-0.9-0.9-1.9-0.8-2.7c0.1-0.9,0.2-1.7,0.3-2.5c0.2-0.8,0.2-1.7-0.1-2.7
				c-0.2-0.9-0.9-1.9-2-2.7c-1.5-1.3-3.1-2.1-4.8-2.6c-1.7-0.4-3.3-0.6-4.9-0.6c-1.6-0.1-3.3-0.1-4.9-0.1c-1.6,0-3.3-0.1-4.8-0.6
				c3.5-1.9,6.7-4.1,9.4-6.2c2.8-2.2,5.3-4.3,7.4-6.5c2.4,1.9,4.9,2.8,7.3,3c2.5,0.1,4.9,0.2,7,0.2c2.3,0,4.1,0.2,5.5,0.7
				c1.5,0.5,2.4,2,2.7,4.5c2-1.4,3-3.1,3.2-5c0.3-2-0.4-3.5-2.1-4.7c1-0.2,2.5-0.5,4.4-0.9c2-0.3,3.9-0.8,5.9-1.4
				c2.1-0.6,3.9-1.4,5.5-2.2c1.5-0.9,2.6-2,2.9-3.2c0.1-0.8-0.2-1.4-0.8-2c-0.5-0.5-1.3-0.9-2.1-1.4c-0.8-0.5-1.5-0.8-2.3-1
				c-0.7-0.3-1-0.6-1.1-0.8c0.1-0.7,0.8-1.1,2.2-1.3c1.4-0.2,3.1-0.5,5.3-1c2.2-0.5,4.7-1.3,7.5-2.3c2.8-1.1,5.6-2.9,8.7-5.3
				C576.9,76,573.8,75,571.4,74.8z M416.9,114.2c2.9-3.2,5.2-6.7,6.6-10.4c1.4-3.6,2-7.4,1.7-11.2c-0.3-3.8-1.4-7.3-3.4-10.6
				c-0.4-0.5-0.3-1-0.2-1.5c0.3-0.4,0.7-0.8,1.1-1.1c0.6-0.2,1.2-0.3,1.9-0.2c0.8,0,1.4,0.3,2.2,0.8c1.5,1.2,2.7,2.9,3.6,5
				c0.9,2.2,1.6,4.6,1.9,7.1c0.4,2.7,0.5,5.3,0.3,8c-0.2,2.7-0.6,5-1.3,7.1c-0.9,2.3-2.2,4.5-3.9,6.5c-1.7,1.9-3.7,3.6-6,4.8
				c-2.3,1.4-4.7,2.3-7.4,3.1c-2.6,0.7-5.3,1-8,0.8C410.3,120.3,414,117.6,416.9,114.2z M494.9,108.2c0.2-2.4,0.1-4.6-0.6-6.9
				c-0.7-2.2-1.5-4.4-2.7-6.6c-1.3-2.1-2.2-4.1-3.1-6c-0.9-1.9-1.4-3.8-1.6-5.5c-0.1-1.7,0.5-3.4,1.9-5.1c-0.1,2.9,0.3,5.3,1.1,7.6
				c0.8,2.2,1.8,4.3,2.9,6.2c1.2,1.9,2.1,3.7,3.1,5.5c1,1.8,1.5,3.6,1.8,5.4c0.2,1.8-0.2,3.7-1.1,5.8c-0.9,2.1-2.8,4.3-5.5,6.6
				C493.4,112.9,494.6,110.6,494.9,108.2z M535.5,88.3c1.4-1,2.8-1.9,4.2-2.6c1.5-0.8,2.8-1.3,4.3-1.8c1.4-0.5,2.6-0.6,3.7-0.7
				c-1.2,0.4-2.3,0.9-3.7,1.7c-1.4,0.7-2.7,1.4-4,2.2c-1.4,0.8-2.7,1.6-4,2.4c-1.4,0.8-2.6,1.3-3.7,1.7
				C533.1,90.2,534.2,89.3,535.5,88.3z M544.8,97.9c-3.8,1.1-7.4,1.9-10.6,2.5c-3.3,0.6-6.1,0.8-8.3,0.7c-2.2-0.1-3.2-0.7-2.8-1.7
				c3.7,0.3,7.4-0.1,11-0.8c3.7-0.8,6.9-1.5,9.8-2.4c2.8-0.8,5.3-1.5,7.1-2.1c1.9-0.7,3-0.7,3.5-0.1
				C551.8,95.5,548.6,96.8,544.8,97.9z M551.6,88.9c-2.4,1.5-5.1,2.9-8,4.1c-2.9,1.2-5.8,2-8.6,2.7c-2.9,0.7-5.3,0.7-7.3,0
				c4.9-1.7,10.1-3.5,15.7-5.4c5.6-2,10.3-3.8,14.3-5.6C556.2,86,554.2,87.4,551.6,88.9z"/>
			<path class="st0" d="M464.8,132.6c0.8,1.2,1,2.3,0.9,3.6c-0.3,1.3-0.7,2.6-1.1,4c-0.6,1.4-1.1,2.8-1.4,4.2
				c-0.4,1.5-0.3,3,0.2,4.4c-0.8-0.8-1.3-1.8-1.5-3.1c-0.3-1.3-0.4-2.6-0.6-3.7c-1.3,0.5-2.7,1.5-4.2,3c-1.6,1.4-2.5,2.9-2.9,4.5
				c-0.5-1.2-0.3-2.5,0.6-3.8c0.9-1.3,1.9-2.5,3.2-3.7c1.2-1.2,2.4-2.4,3.4-3.6c1-1.1,1.5-2.2,1.4-3.2c-0.2-1.8-1.5-3.1-4-4
				c-0.5,1.4-0.7,2.8-0.8,4.1c-0.1,1.4-0.6,2.7-1.9,4c-0.2-0.9-0.4-1.7-0.5-2.6c0-1-0.2-1.9-0.4-2.8c-0.2-0.9-0.5-1.7-1-2.4
				c-0.5-0.7-1.2-1.3-2.2-1.7c-1.6-0.7-3.5-0.9-5.7-0.4c-2.3,0.4-4.6,1-7.1,1.7c2.3,0.4,3.9,1.2,5,2c1,0.9,1.6,2.1,1.9,3.2
				c0.1,1.2-0.1,2.4-0.6,3.8c-0.5,1.4-1.1,2.8-1.8,4.3c2.2-1,4-2.4,5.6-4.5c1.5-2,2.4-3.9,2.6-5.8c0.9,0.6,1.3,1.5,1.2,2.5
				c0,1-0.3,2.2-0.7,3.5c-0.4,1.3-0.8,2.6-1.3,4c-0.5,1.4-0.6,2.7-0.6,3.8c0.2,3.5,2.1,6.2,5.6,7.9c0.5-1.4,0.7-2.9,0.8-4.6
				c0.1-1.6,0.7-3.1,1.8-4.5c0.8,0.4,1.4,1,1.9,1.8c0.5,0.7,1.1,1.5,1.6,2.2c0.5,0.7,1.2,1.4,1.8,2c0.7,0.6,1.5,1,2.3,1.2
				c-0.9-1.6-0.9-3.5-0.1-5.5c0.8-2.1,1.6-4.1,2.4-6.1c0.7-2,1-3.9,0.9-5.6C469.2,135,467.8,133.6,464.8,132.6z"/>
			<path class="st0" d="M513.3,59.6c1.6,0,3.2-0.7,4.6-2c1.4-1.3,2-2.6,1.9-3.9c-0.2-1.3-0.9-2.4-2-3.2c-1.2-0.9-2.5-1.3-4.2-1.3
				c-1.7-0.1-3.2,0.6-4.7,1.9c-1.4,1.3-2,2.6-1.7,3.9c0.2,1.3,0.9,2.4,2,3.2C510.4,59.1,511.7,59.5,513.3,59.6z M512.2,54.2
				c0.3-0.5,0.8-0.7,1.5-0.6c0.6,0.2,0.8,0.5,0.6,1.1c-0.4,0.6-0.8,0.8-1.4,0.7C512.2,55.2,512,54.8,512.2,54.2z"/>
		</g>
	</g>
	<g>
		<g>
			<path class="st0" d="M52.4,50.1c-2-0.5-3.4-1.5-4.3-2.9c3.2,1.1,6.4,1.6,9.8,1.4c3.4-0.1,6.4-1.3,9.4-3.4c0,1.4-1,2.6-2.7,3.5
				c-1.7,1-3.6,1.5-5.8,1.8C56.7,50.8,54.5,50.6,52.4,50.1z"/>
			<path class="st0" d="M66.6,36.5c-0.5,1.4-1,2.9-1.3,4.3c-0.3,1.5-1.1,2.8-2,3.9c-1,1.1-3.1,1.6-6.7,1.5c-2.7-0.2-4.9-0.7-6.3-1.7
				c-1.6-1-2.8-2.3-3.7-3.5c-1-1.4-1.9-2.7-2.6-4c-0.9-1.3-2-2.4-3.4-3.2c1.2-0.4,2.1-0.6,2.8-0.5c0.8,0.1,1.5,0.3,2.1,0.7
				c0.8,0.4,1.5,0.7,2.1,1.1c0.7,0.5,1.4,0.8,2.1,1c0.7-0.8,0.5-1.8-0.4-2.8c-0.9-1-1.2-2.1-1.1-3.1c0.1-1,0.7-2,1.9-2.8
				c1.1-0.9,1.9-1.7,2.7-2.5c1.1,0.8,2.3,1.7,3.9,2.8c1.4,1.1,2.2,2.3,2.2,3.7c0.2,0.7,0.1,1.5-0.2,2.2c-0.3,0.7-0.7,1.4-0.9,2.1
				c-0.2,0.7-0.2,1.4-0.1,1.9c0.1,0.6,0.7,1.1,1.9,1.6c0.5-0.8,1.2-1.9,1.7-2.9c0.5-1.1,1.1-2.1,1.9-2.8c0.8-0.8,1.7-1.2,3-1.3
				c1.3-0.1,2.9,0.5,5.1,1.6C68.8,34.3,67.3,35.1,66.6,36.5z"/>
			<path class="st0" d="M72.4,62.8c-0.8,0.8-1.8,1.4-2.9,1.9c-1,0.5-2.2,0.8-3.5,0.9c-1.2,0.2-2.6,0.2-3.9-0.3
				c-1.3-1.9-2.4-3.9-3.4-6.1c-0.8-2.2-1.1-4.4-0.5-6.5c2-0.4,3.8-1,5.6-1.5c1.8-0.5,3.3-1.2,4.6-2c0.4,0.9,1.1,1.8,1.8,2.8
				c0.8,0.9,1.6,1.9,2.3,2.8c0.6,1,1.1,1.9,1.5,2.9c0.4,0.9,0.4,1.8,0.1,2.7C73.7,61.1,73.2,61.9,72.4,62.8z"/>
			<path class="st0" d="M58.8,66c-1.3,0.8-2.7,1.1-4.4,1.1c-1.6,0-3-0.4-4.3-1.1c-1.8-1.1-3.4-2.4-4.4-3.7c-1.1-1.4-1.7-2.7-2-4.2
				c-0.2-1.4,0.1-2.7,0.7-4.1c0.6-1.3,1.6-2.4,2.9-3.3c1.3,0.7,2.4,1.2,3.6,1.7c1,0.4,2.3,0.9,3.7,1.4c-0.5,2.1-0.4,4.2,0.5,6.4
				C55.9,62.3,57.2,64.3,58.8,66z"/>
			<path class="st0" d="M31.3,78.4c2.6-0.2,4.9-0.2,7.1,0.2c2.1,0.5,4.2,1.1,6.2,1.9c2,0.7,4.3,1.1,6.8,1.1c-0.8-0.9-1.7-2.2-2.6-4
				c-1.1-1.8-1.4-3.4-0.9-4.6c1,1.9,2.8,3.6,5.3,5.4c2.6,1.8,5.2,3.5,7.9,5.3c2.8,1.7,5.3,3.2,7.6,4.7c2.3,1.5,3.9,2.8,4.6,4.1
				c-1.1-1.8-2.2-3.6-3.7-5.5c-1.4-1.9-2.8-3.7-4.1-5.5c-1.2-1.8-2.4-3.6-3.5-5.3c-0.9-1.8-1.8-3.4-2.2-4.9c0.3-0.3,0.9-0.6,1.4-1
				c0.6-0.3,1-0.6,1.3-0.8c1.3,2.4,3,4.9,4.9,7.6c1.8,2.8,3.9,5.4,6.1,8.1c2.2,2.6,4.6,5.3,7,7.8c2.5,2.6,4.9,4.9,7.6,7.1
				c0.4-2.3,0-4.9-0.9-7.7c-1-2.8-2.2-5.8-3.3-8.8c-1.2-3.2-2.1-6.4-2.9-9.7c-0.7-3.3-0.6-6.8,0.5-10.1c0.7-0.6,1.6-1.2,2.5-1.9
				c0.9-0.7,1.7-0.9,2.2-0.6c-2.1,3.5-2.8,7.2-2.2,11.4c0.6,4.1,1.6,8.1,2.9,12c1.4,4,2.6,7.4,3.6,10.5c1.1,3.1,1,5.4-0.2,6.7
				c1.8,1.3,3.8,2.7,6,4.2c2.1,1.5,4.3,3,6.4,4.4c2.2,1.5,4.2,2.7,6.5,3.7c2.1,1,4.1,1.8,5.8,2.2c-2.8-2.5-5.1-4.8-7-7.1
				c-2-2.3-3.7-4.6-5.1-7.1c-0.9-1.3-1.5-2.8-2.2-4.2c-0.6-1.5-1.3-3-2.1-4.4c-0.9-1.5-2-3-3.2-4.4c-1.3-1.4-2.9-2.6-4.9-3.7
				c3.9-0.3,7.1,0.2,9.5,1.5c2.5,1.4,4.3,2.7,5.7,4c1.7-1,2.8-2,3-3c0.1-0.9-0.2-1.8-1-2.7c-0.8-1-1.9-1.9-3.2-2.7
				c-1.4-0.9-2.9-1.8-4.1-2.8c-1.4-1-2.6-2.1-3.6-3.2c-1-1.1-1.4-2.4-1.4-3.7c1.5,0.1,3,0.3,4.8,0.8c1.9,0.4,3.6,1,5.4,1.8
				c1.7,0.7,3.3,1.5,4.7,2.3c1.4,0.9,2.5,1.7,3.2,2.5c1.7-2.2,2.3-5.1,1.5-8.5c-0.6-3.5-2.2-7-4.5-10.7c2.3,1.2,4.5,2.7,6.7,4.6
				c2.2,2,3.9,4,5.1,6.2c1.3,2.2,2.1,4.3,2.3,6.4c0.1,2-0.6,3.8-2.4,5.2c1.5,0.2,3.5,0.3,5.8,0.2c2.3-0.2,4.2-0.4,5.6-1
				c0.2,1.5-0.3,2.7-1.5,3.5c-1.2,0.8-2.6,1.5-4.2,1.9c-1.6,0.5-3,0.8-4.4,1.2c-1.2,0.3-1.9,0.7-1.9,1.3c0.1,0.3,0.5,0.6,1.7,0.8
				c1,0.2,2.1,0.5,3.3,0.8c1.2,0.3,2.4,0.8,3.5,1.4c1.1,0.7,1.7,1.6,1.7,2.6c-1.1,0.3-2.3,0.5-3.5,0.4c-1.2-0.1-2.4-0.1-3.5-0.1
				c-1.2,0-2.4,0.1-3.5,0.4c-1.1,0.3-2.1,0.8-3,1.6c-1.6,1.5-2.5,3.2-2.9,5.2c-0.5,2-0.4,4,0.1,6c0.7,2,1.8,4,3.5,5.9
				c1.5,2,3.8,3.6,6.4,5c-3.7-2.6-6.2-5.4-7.3-8.5c-1.1-3.1-1.3-5.9-0.5-8.2c0.7-2.3,2.3-3.8,4.5-4.5c2.3-0.8,5,0.3,7.9,2.7
				c-2.7,0.7-4.8,1.7-6.1,2.9c-1.4,1.3-2.1,2.7-2.1,4.2c0.1,1.6,0.7,3.1,2,4.7c1.3,1.6,3.2,2.8,5.7,3.9c3.5,1.4,7.5,2.4,12.6,3
				c5,0.6,10.3,0.9,16.2,1c5.7,0.1,11.9-0.1,18.4-0.6c5.1-0.3,10-0.8,15-1.4c-0.9-0.3-1.9-0.7-2.8-1c-5.2-2-9.6-4.3-13.3-6.7
				c-2.1-1.4-4.1-2.3-6-2.7c-1.9-0.3-3.4-0.2-4.8,0.3c-1.3,0.4-2.2,0.4-2.8,0.2c-0.6-0.2-0.9-0.5-1.2-1.1c-0.2-0.4-0.2-1-0.1-1.6
				c0.1-0.6,0.3-1.1,0.8-1.6c0.9-1.1,1.9-1.7,3-1.9c1.1-0.2,2.6-0.5,4.6-0.7c-0.5-1.2-1.4-2.1-2.4-2.4c-1.1-0.5-2.3-0.5-3.9-0.5
				c-1.4,0.1-3,0.3-4.7,0.6c-1.7,0.2-3.1,0.5-4.5,0.5c-1.6,0.2-2.4-0.1-2.4-0.8c-0.2-0.6,0.3-1.2,1.4-1.7c1.4-1,2.6-1.7,3.4-1.9
				c0.8-0.3,1.1-0.8,1-1.8c-0.2-0.6-0.9-1-2.1-1.4c-1.2-0.3-2.6-0.4-4.2-0.4c-1.5,0.1-3,0.3-4.3,0.7c-1.3,0.4-2.2,1-2.5,1.9
				c-0.2,0.7-0.3,1.3-0.1,1.8c0.2,0.5,0.5,1,0.9,1.5c0.4,0.6,0.9,1,1.3,1.6c0.4,0.5,0.9,1.1,1,1.7c0.3,0.7,0.3,1.5,0.1,2.1
				c-0.2,0.6-0.6,1.3-0.9,1.8c-0.5,0.5-1,0.8-1.7,1c-0.7,0.2-1.3,0.1-2-0.2c-1.8-0.9-3-2.4-3.4-4.5c-0.4-2.2-0.4-4.2,0.2-6.2
				c0.5-1.9,1.4-3.5,2.5-4.8c1.2-1.4,2.7-2.4,4.3-3.2c1.7-0.8,3.4-1.4,5.3-1.8c2-0.5,4.1-0.7,6.1-0.8c0.8-0.1,1.5,0.2,1.9,0.8
				c0.4,0.6,0.7,1.3,1.1,2c0.3,0.7,0.7,1.3,1.1,1.8c0.5,0.7,1.3,0.9,2.2,0.8c-0.2-2.3,0-4.2,0.3-6c0.4-1.8,1-3.2,1.8-4.4
				c0.9-1.1,2.1-1.9,3.4-2.4c1.5-0.5,3.1-0.4,5.1,0.1c1.4-1.8,2.8-3.4,4.3-4.6c1.5-1.1,3.5-1.8,6.2-1.9c1.5,0,3,0.4,4.3,1.1
				c1.2,0.7,2,1.8,2.4,3.3c1.2-0.5,2.5-0.5,4-0.1c1.3,0.4,2.5,1,3.7,1.8c1.1,0.9,2,2,2.7,3.2c0.6,1.3,0.9,2.5,0.7,3.7
				c-0.7,4.6-2.9,6.7-6.6,6.6c0.4-0.9,0.1-1.5-0.9-1.8c-1.1-0.3-2-0.1-2.9,0.5c-1.4,1.1-2.2,2.8-2,5c0.2,2.3,0.9,4.5,2.2,6.8
				c1.2,2.3,3,4.4,5.2,6.3c2.3,1.9,4.8,3.1,7.7,3.5c-0.7-1.6-1.5-3-2.1-4.5c-0.7-1.4-1.5-2.8-2.2-4.1c-0.7-1.4-0.8-2.3-0.2-2.8
				c0.6-0.4,1.3-0.3,2,0.5c1.7,1.5,3.2,3.1,4.7,4.6c1.4,1.5,2.9,2.9,4.4,4.2c1.6,1.3,3.2,2.4,4.8,3.5c1.8,0.9,3.7,1.7,5.9,2.4
				c3.4,0.9,6.4,1.1,9,0.5c2.7-0.7,4.6-1.8,6.2-3.5c-1.4,0.1-2.8,0-4.3-0.4c-1.5-0.3-2.7-0.8-3.8-1.3c-1.1-0.6-1.8-1.3-2.4-2.2
				c-0.4-0.8-0.4-1.7,0-2.7c2.4,0.9,4.9,1.4,7.7,1.4c2.8-0.1,5.5-0.6,8.2-1.6c2.6-1.1,4.8-2.5,6.8-4.3c1.9-1.8,3.2-4.1,3.6-6.6
				c0.3-1.8,0.2-3.7-0.5-5.4c-0.6-1.8-1.5-3.4-2.9-4.8c-1.2-1.3-2.7-2.4-4.5-3c-1.7-0.6-3.6-0.7-5.7-0.4c-0.8,0.3-1.6,0.2-2.3-0.1
				c-0.6-0.3-1.1-0.6-1.4-1.2c-0.3-0.4-0.4-1-0.3-1.6c0.1-0.8,0.3-1.3,0.8-1.9c0.8-0.9,1.7-1.8,2.9-2.6c1.3-0.8,2.6-1.3,4.2-1.6
				c-3.3-2.8-6.8-4.6-10.8-5.4c-3.8-0.8-7.6-0.7-10.9,0.2c-3.3,0.9-6,2.5-8.2,5c-2,2.5-2.8,5.6-2.2,9.3c3.2-1.7,6.3-2.1,9.5-1.2
				c1.5,0.4,2.6,1.3,3.6,2.6c1,1.3,1.4,2.8,1.1,4.4c-0.9,4-3.9,6-8.9,5.7c-2.4-0.2-4.6-1-6.5-2.5c-2-1.5-3.2-3.6-3.6-6.5
				c-0.6-3.3-0.4-6.4,0.6-9.1c1.2-2.7,2.9-5.4,5-7.9c-0.6-1.1-1.8-1.8-3.5-2.2c-1.6-0.4-3.1-0.4-4.4,0c0.2-1.4,0.8-2.6,1.8-3.4
				c0.9-0.8,2-1.3,3.1-1.4c1.2-0.1,2.4,0.2,3.7,0.8c1.3,0.7,2.4,1.7,3.3,3.2c3.8-1.7,8.2-2.4,12.8-1.8c4.6,0.6,8.7,1.7,12.1,3.4
				c3.5,1.6,6.3,3.7,8.4,5.9c2.2,2.4,3.8,4.7,4.9,7.3c1,2.7,1.6,5.3,1.7,8.1c0.1,2.8-0.1,5.5-0.5,8.3c-0.3,2.1-1,4.2-2.1,6.2
				c-1.2,2.1-2.4,4-3.6,6c-1.2,2.1-2.4,4-3.5,6c-1.2,2-1.9,3.9-2.2,5.9c-0.2,1.4-0.2,2.8,0.3,4.2c0.3,1.4,1.1,2.9,2.3,4.4
				c-1.8,0.1-3.6-0.2-5-0.9c-1.3-0.7-2.4-1.6-3.3-2.7c-0.8-1.2-1.3-2.4-1.5-3.9c-0.3-1.4,0-2.8,0.6-4.3c-4.8,3.2-10.1,5.4-15.8,6.5
				c-5.7,1.2-11.4,1.3-17.2,0.4c-0.8-0.1-1.6-0.3-2.4-0.4c-3,0.7-6.7,1.3-11.2,1.8c-5,0.6-10.5,0.9-16.6,1.1c-6,0.1-12.2,0.2-18.7,0
				c-6.5-0.2-12.8-0.6-18.9-1.2c-6.2-0.7-11.8-1.5-17.2-2.4c-5.3-1.1-9.7-2.3-13.2-3.8c-1.9-0.7-3.9-1-6.2-0.8
				c-2.4,0.1-4.2,0.9-5.2,2.5c-1.1,1.4-1.7,2.9-1.8,4.5c-0.1,1.6-0.9,3-2.1,4.1c-1.2,1-2.7,1.6-4.7,2c-1.8,0.3-3.7,0.3-5.4,0
				c0.6-0.9,0.8-1.9,0.6-2.8c-0.1-0.9-0.3-1.6-0.4-2.5c-0.3-0.8-0.3-1.7-0.1-2.7c0.1-0.9,0.8-1.9,1.9-2.8c1.5-1.3,3.1-2.2,4.8-2.8
				c1.7-0.4,3.4-0.7,5.1-0.8c1.6-0.2,3.4-0.3,5.1-0.3c1.7,0,3.4-0.3,4.9-0.8c-3.7-1.8-7.1-3.8-10.1-5.8c-3-2-5.7-4.1-8.1-6.1
				c-2.3,2-4.9,3-7.4,3.3c-2.6,0.2-5,0.4-7.3,0.5c-2.4,0.1-4.2,0.4-5.7,0.9c-1.5,0.6-2.4,2.1-2.5,4.6c-2.1-1.3-3.3-3-3.6-4.8
				c-0.4-2,0.2-3.5,1.9-4.8c-1-0.1-2.6-0.4-4.6-0.7c-2.1-0.2-4.1-0.6-6.2-1.1c-2.2-0.5-4.1-1.2-5.8-2c-1.6-0.9-2.8-1.9-3.2-3
				c-0.2-0.8,0.1-1.4,0.7-2c0.5-0.5,1.3-1,2.1-1.4c0.8-0.5,1.5-0.9,2.3-1.2c0.7-0.4,1-0.7,1.1-0.9c-0.1-0.7-0.9-1-2.3-1.2
				c-1.4-0.2-3.3-0.4-5.6-0.8c-2.3-0.4-5-1.1-7.9-2c-3-1-6-2.7-9.3-4.9C25.6,79.8,28.8,78.6,31.3,78.4z M193.8,111
				c-3.2-3.1-5.8-6.5-7.4-10.2c-1.6-3.5-2.5-7.3-2.4-11.1c0.1-3.8,1-7.3,2.9-10.7c0.3-0.5,0.3-1,0.1-1.5c-0.3-0.4-0.8-0.8-1.2-1.1
				c-0.6-0.2-1.2-0.3-2-0.1c-0.8,0.1-1.5,0.4-2.2,0.9c-1.5,1.2-2.6,3-3.5,5.2c-0.8,2.2-1.3,4.7-1.6,7.2c-0.3,2.7-0.2,5.3,0.2,8
				c0.4,2.7,0.9,5,1.7,7.1c1.1,2.3,2.5,4.4,4.4,6.3c1.9,1.8,4.1,3.4,6.5,4.6c2.5,1.3,5,2.1,7.9,2.7c2.7,0.6,5.5,0.7,8.4,0.5
				C201,116.7,197,114.2,193.8,111z M112.6,108.4c-0.4-2.4-0.4-4.6,0.2-6.9c0.6-2.3,1.3-4.5,2.4-6.7c1.2-2.2,2.1-4.2,2.8-6.1
				c0.8-2,1.2-3.9,1.3-5.6c0-1.7-0.7-3.4-2.3-5c0.3,2.9,0,5.3-0.7,7.7c-0.7,2.2-1.6,4.4-2.7,6.4c-1.1,2-2,3.8-2.9,5.7
				c-0.9,1.8-1.4,3.6-1.5,5.4c-0.1,1.8,0.4,3.7,1.5,5.7c1.1,2,3.1,4.1,6.1,6.4C114.4,113.1,113.1,110.8,112.6,108.4z M69.4,90.3
				c-1.5-0.9-3-1.7-4.5-2.4c-1.6-0.7-3-1.2-4.6-1.7c-1.5-0.4-2.8-0.5-3.9-0.5c1.2,0.3,2.5,0.8,3.9,1.5c1.5,0.6,2.8,1.3,4.2,2.1
				c1.5,0.7,2.9,1.5,4.3,2.2c1.5,0.7,2.8,1.1,3.9,1.5C72,92.1,70.7,91.2,69.4,90.3z M60.2,100.3c4,0.9,7.8,1.6,11.1,2
				c3.5,0.5,6.4,0.5,8.6,0.4c2.3-0.2,3.3-0.8,2.8-1.8c-3.8,0.4-7.7,0.3-11.4-0.3c-3.9-0.6-7.3-1.2-10.3-2c-3-0.7-5.6-1.3-7.5-1.8
				c-2.1-0.6-3.2-0.6-3.6,0C52.9,98.2,56.3,99.4,60.2,100.3z M52.6,91.6c2.6,1.4,5.5,2.7,8.5,3.7c3.1,1,6.2,1.8,9.1,2.3
				c3.1,0.5,5.6,0.5,7.6-0.3c-5.2-1.5-10.7-3-16.6-4.7c-5.9-1.7-10.9-3.3-15.1-4.9C47.7,88.9,49.8,90.2,52.6,91.6z"/>
			<path class="st0" d="M145.2,131.4c-0.7,1.2-0.9,2.4-0.7,3.7c0.4,1.3,0.8,2.5,1.4,4c0.7,1.4,1.3,2.8,1.7,4.2
				c0.5,1.5,0.5,2.9,0.1,4.4c0.8-0.8,1.3-1.8,1.4-3.1c0.2-1.3,0.3-2.6,0.4-3.8c1.4,0.5,2.9,1.4,4.6,2.8c1.7,1.3,2.8,2.8,3.2,4.4
				c0.5-1.3,0.1-2.5-0.8-3.8c-1-1.3-2.2-2.4-3.5-3.6c-1.4-1.2-2.6-2.3-3.7-3.4c-1.1-1.1-1.7-2.1-1.7-3.1c0.1-1.8,1.4-3.2,4-4.2
				c0.6,1.4,0.9,2.8,1.1,4.1c0.2,1.4,0.8,2.6,2.2,3.9c0.1-0.9,0.3-1.7,0.3-2.7c0-1,0.1-1.9,0.2-2.8c0.1-0.9,0.4-1.7,0.9-2.5
				c0.5-0.8,1.2-1.3,2.1-1.8c1.6-0.8,3.5-1.1,5.8-0.7c2.5,0.3,4.8,0.8,7.5,1.4c-2.3,0.5-4,1.3-5.1,2.3c-1,1-1.6,2.1-1.7,3.3
				c0,1.2,0.2,2.4,0.8,3.8c0.6,1.3,1.3,2.7,2.1,4.2c-2.3-0.9-4.3-2.3-6.1-4.2c-1.7-1.9-2.7-3.8-3-5.7c-0.9,0.6-1.3,1.5-1.1,2.6
				c0,1,0.4,2.2,0.9,3.5c0.5,1.3,1,2.6,1.5,3.9c0.6,1.3,0.8,2.6,0.8,3.8c0,3.5-1.8,6.3-5.3,8.1c-0.6-1.4-0.9-2.9-1.1-4.6
				c-0.2-1.6-0.9-3.1-2.1-4.4c-0.8,0.5-1.4,1.1-1.9,1.8c-0.5,0.8-1,1.5-1.5,2.3c-0.5,0.8-1.1,1.5-1.7,2.1c-0.7,0.6-1.5,1-2.3,1.3
				c0.8-1.7,0.8-3.5-0.2-5.5c-0.9-2.1-1.9-4-2.9-6c-0.9-1.9-1.3-3.8-1.3-5.6C140.8,134,142.2,132.6,145.2,131.4z"/>
			<path class="st0" d="M90.7,60.6c-1.7,0-3.3-0.5-4.9-1.8c-1.5-1.2-2.2-2.5-2.2-3.8c0.1-1.3,0.8-2.4,1.9-3.3
				c1.1-0.9,2.5-1.4,4.3-1.5c1.7-0.1,3.4,0.4,5,1.7c1.5,1.2,2.2,2.5,2,3.9c-0.1,1.3-0.8,2.4-1.9,3.3C93.7,60,92.4,60.4,90.7,60.6z
				 M91.5,55.1c-0.3-0.5-0.9-0.7-1.5-0.5c-0.6,0.2-0.8,0.5-0.6,1.1c0.4,0.6,0.9,0.8,1.5,0.6C91.6,56.2,91.8,55.7,91.5,55.1z"/>
		</g>
	</g>
	<g>
		<circle class="st1" cx="305.7" cy="79.9" r="74"/>
		<circle class="st2" cx="305.7" cy="79.9" r="71.3"/>
	</g>
	<g>
		<path class="st3" d="M230.1,20.1c2.2-2.2,5-3.7,8-4.4c4.3,2.3,8.6,5.9,12.1,9.7c13.8,14.8,23.7,34,39.8,51.4l-1.7,1.7L230.1,20.1
			L230.1,20.1z"/>
		<path class="st3" d="M238.2,15.6c3-0.7,6.2-0.6,9.5,0.3c4.1,1.2,8.1,3.5,11.2,6.7c5.5,5.8,8.7,12.9,11.8,20
			c4.2,9.6,14.1,24.3,21.1,32.4l-1.6,1.6c-16.2-17.4-26-36.6-39.8-51.4C246.8,21.5,242.5,18,238.2,15.6z"/>
		<path class="st3" d="M225.7,28.1c0.7-3.1,2.2-5.8,4.4-8l58.3,58.3l-1.7,1.7c-17.4-16.2-36.6-26-51.4-39.8
			C231.6,36.7,228,32.5,225.7,28.1z"/>
		<path class="st3" d="M226,37.6c-0.9-3.2-1-6.5-0.3-9.5c2.3,4.3,5.9,8.6,9.7,12.1c14.8,13.8,34,23.7,51.4,39.8l-1.6,1.6
			c-8.1-7-22.7-17-32.3-21.2c-7.2-3.1-14.3-6.2-20.1-11.7C229.5,45.6,227.2,41.7,226,37.6z"/>
	</g>
	<g>
		<g>
			<path class="st3" d="M34.2,161.2c0.3-0.4,0.6-0.8,0.9-1.3c0.6-0.7,1.3-1.4,2.1-2c1.1-1.3,2.3-2.6,3.7-4c1.3-1.4,2.7-2.9,4.3-4.3
				c4.7-4.1,9.4-6.9,14.1-8.5c5.7-1.9,11.3-1.6,16.8,0.8c0.1,0,0.4,0.2,1,0.5c0.6,0.4,1.3,0.9,2.2,1.7c0.9,0.8,1.8,1.8,2.7,3
				c0.9,1.2,1.7,2.8,2.4,4.6c2.5,7,2,15.7-1.4,26c-0.4,1.5-1.1,3.2-2,5.2c-0.9,2-2,4.1-3.4,6.4c-1.4,2.3-3.1,4.6-5.1,6.9
				c-2,2.4-4.3,4.5-6.9,6.5c-4.8,3.6-10,6-15.7,7.4c-1.7,0.4-3.5,0.7-5.3,0.9c-1.8,0.2-3.6,0.3-5.5,0.3c-3.1,0-6.3-0.3-9.5-0.9h-0.1
				c-0.3,0-1.4-0.3-3.3-0.9c-1.7,3.7-3.2,7.2-4.3,10.6c-1.1,3.4-1.9,6.6-2.3,9.5c-0.2,0.9-0.5,1.4-0.9,1.3c-0.4-0.1-0.7-0.1-0.9-0.2
				v-0.2c-1-0.5-1.6-1.6-2-3.3v-1.6c0.4-2,1.1-4.5,1.9-7.6c0.8-3,2-6.6,3.5-10.5c-1.7-0.8-3.6-1.8-5.6-2.8c-2-1-3.9-2.3-5.7-3.8
				c-0.4-0.2-0.8-0.4-1.2-0.7c-0.4-0.3-0.8-0.5-1.1-0.7c-0.3-0.3-0.7-0.6-1.2-0.9c-0.7-0.5-1.3-1-1.8-1.6c-0.4-0.5-0.8-1.1-1.2-1.7
				s-0.6-1.4-0.6-2.2c0-0.9,0.2-1.7,0.7-2.1c0.5-0.5,1-0.7,1.7-0.6c0.7,0.1,1.4,0.4,2.2,0.9c0.8,0.6,1.4,1.5,2,2.8
				c0.3,0.8,0.7,1.6,1.2,2.4c0.4,0.6,0.9,1.3,1.5,2c0.6,0.7,1.2,1.2,1.9,1.7h-0.1c1.5,1,3,1.9,4.4,2.7c1.5,0.7,2.9,1.4,4.3,2
				c2.9-7.4,7-16,12.4-25.6c5.4-9.6,12.7-20,21.8-31.1c0.4-0.5,0.9-0.6,1.3-0.3c0.3,0.2,0.7,0.5,1.2,1c0.4,0.5,0.8,1.1,1,1.8
				c0.2,0.7,0.2,1.6-0.1,2.7c-0.3,1-0.9,2.3-1.8,3.6c-3.7,5.1-7.3,10.5-11,16c-3.1,4.7-6.5,10-10,15.9c-3.6,5.9-6.7,11.8-9.5,17.8
				c1.3,0.4,2.1,0.6,2.5,0.6c5,0.9,9.8,1.2,14.3,0.6c5.3-0.7,9.9-2.7,13.8-5.9c3.9-3.2,7.2-6.6,9.8-10.3c3-4.2,5.6-8.9,7.7-14
				c2.2-6,3.5-11,3.8-15c0.4-4,0.3-7.3-0.2-9.8c-0.5-2.5-1.3-4.4-2.3-5.7c-1-1.3-2-2.2-2.9-2.8c-8.5-3.2-17.7-0.7-27.4,7.7
				c-1.2,1.2-2.3,2.3-3.3,3.3c-1,1-2,2.1-2.9,3.1c-0.5,0.6-1,1.3-1.3,2.1c-0.3,0.8-0.6,1.5-0.8,2.1c-0.3,0.7-0.4,1.5-0.5,2.2
				c-0.7,2.6-1.8,4.2-3.3,4.6c-1.5,0.5-2.5-0.2-2.9-2c-0.2-0.7-0.2-1.5,0.1-2.3c0.2-0.8,0.5-1.5,1-2.1
				C33,162.5,33.5,161.8,34.2,161.2z"/>
			<path class="st3" d="M80.9,229.3c-1.7-1.2-2.7-2.9-3.3-5.3c-0.4-2-0.4-4.7,0.1-8.2s2.1-7.9,4.9-13.4c2.5-4.9,5.2-9.1,8.1-12.6
				c1.1-1.5,2.4-2.9,3.7-4.2c1.3-1.3,2.7-2.4,4.2-3.1c1.4-0.8,2.9-1.3,4.3-1.4c1.4-0.2,2.8,0.1,4.2,0.9c1,0.6,1.7,1.5,2.1,2.7
				c0.4,1,0.6,2.4,0.5,4c-0.1,1.6-0.6,3.7-1.6,6.2c-1,2.4-2.3,4.5-4.2,6.3c-1.6,1.5-3.7,2.8-6.3,3.9c-2.7,1.2-6,1.5-10,1.1l-0.1,0.3
				c-1.8,2.9-3.2,5.7-4.2,8.2c-1,2.1-1.6,4.1-1.8,6.1c-0.3,2,0.2,3.4,1.4,4.2c1.1,0.7,2.7,0.9,4.8,0.4c2-0.5,4.3-1.4,6.8-2.9
				c2.5-1.5,5-3.4,7.7-5.7c2.7-2.4,5.2-5.1,7.6-8.3c0.7-1,1.4-2,2.1-3c0.7-0.9,1.3-1.8,1.8-2.7c0.6-0.9,1.2-1.8,1.7-2.7
				c0.4-0.5,0.8-1,1.2-1.4c0.3-0.3,0.7-0.5,0.9-0.6c0.3-0.1,0.4,0.2,0.4,0.9c-0.1,0.4-0.2,0.8-0.3,1.3c-0.2,0.4-0.3,0.9-0.5,1.4
				c-0.1,0.5-0.4,1-0.7,1.6c-0.4,0.5-1.1,1.6-2.1,3.2c-1,1.6-2.1,3.3-3.4,5.1c-3.7,4.4-7.3,8.1-10.8,11c-1.6,1.3-3.2,2.5-4.8,3.6
				c-1.7,1.2-3.3,2.1-5,2.8c-1.7,0.7-3.3,1.1-5,1.2C83.8,230.4,82.3,230.1,80.9,229.3z M106.1,188.3c-1.1-0.1-2.5,0.4-4,1.4
				c-1.4,0.8-3.1,2.3-5.2,4.5c-2.1,2.2-4.5,5.3-7.3,9.4c1.5-0.1,3.1-0.4,5-0.8c1.8-0.4,3.5-1.2,5.2-2.3c1.6-1.1,3-2.6,4.2-4.6
				C105.1,194,105.8,191.4,106.1,188.3z"/>
			<path class="st3" d="M141.4,200.5c-1.7,3.4-3.3,6.6-4.8,9.8c-1.5,3.2-2.7,6.3-3.7,9.4c-0.4,1.3-0.7,2.4-0.9,3.5
				c-0.2,0.8-0.2,1.6-0.2,2.4c0,0.7,0.4,1.2,1,1.4c0.9,0.3,2.2-0.1,3.8-1.1c1.7-1,3.4-2.3,5.2-3.8c2-1.7,4.2-3.6,6.5-5.8
				c0.5-0.4,1-0.8,1.4-1.1c0.3-0.2,0.7-0.3,1-0.2c0.3,0.1,0.4,0.3,0.2,0.9c-0.1,0.4-0.3,0.8-0.5,1.3c-0.4,0.8-1,1.7-1.8,2.5
				c-0.4,0.4-1.3,1.3-2.5,2.5c-1.3,1.3-2.7,2.5-4.4,3.9c-1.7,1.3-3.3,2.4-5,3.4c-1.7,0.9-3.2,1.4-4.5,1.3c-1.3-0.1-2.3-0.6-3.1-1.6
				c-0.7-0.9-1.3-2.1-1.6-3.5c-0.3-1.4-0.5-2.8-0.4-4.4c0.1-1.6,0.3-3,0.8-4.4c-1.3,1.6-2.8,3.3-4.4,5.1c-1.7,1.8-3.3,3.5-5.1,4.9
				c-1.7,1.4-3.5,2.5-5.2,3.2c-1.7,0.7-3.2,0.8-4.6,0.2c-1.7-1-2.7-2.8-3-5.2c-0.3-2,0-4.9,0.9-8.7c1-3.8,3.2-8.8,6.8-15
				c2.2-3.8,4.4-7,6.8-9.8c2.3-2.7,4.6-4.9,6.8-6.5c2.2-1.6,4.3-2.7,6.2-3.2c1.9-0.5,3.6-0.4,5,0.3c1.7,0.7,2.7,2.4,3.1,5
				c3.1-6,6.8-12.3,11.2-19c4.3-6.7,9.4-13.6,15.3-20.7c0.4-0.5,0.9-0.6,1.4-0.3c0.3,0.2,0.7,0.6,1.1,1c0.4,0.5,0.7,1.1,0.9,1.8
				c0.2,0.7,0.2,1.6-0.1,2.7c-0.3,1-0.9,2.3-1.8,3.6c-3.2,4.4-6.4,9.1-9.7,14c-2.8,4.2-5.8,8.9-9.1,14.2
				C147.3,189.6,144.2,195,141.4,200.5z M123.2,217.1c1.6-1.6,3-3.4,4.4-5.3c1.4-2,2.6-3.9,3.7-5.7c1.1-1.8,2-3.5,2.8-5
				c0.8-1.5,1.3-2.6,1.7-3.3c0.1-0.2,0.2-0.3,0.2-0.4c0-0.1,0.1-0.2,0.2-0.4c0.2-0.2,0.3-0.5,0.3-0.8c0-0.3,0.2-0.6,0.3-0.8
				c0.8-1.7,1.2-3,1.2-4c0-1,0-1.6-0.1-1.8c-0.3-0.8-0.7-1.4-1.4-1.7c-1-0.4-2.3-0.2-3.8,0.8c-1.5,0.9-3,2.3-4.6,3.9
				c-1.6,1.7-3.2,3.6-4.8,5.8c-1.6,2.2-3,4.3-4.2,6.3c-1.3,2.1-2.5,4.3-3.7,6.6c-1.1,2.3-2.1,4.5-2.9,6.4c-0.8,2-1.4,3.7-1.8,5.2
				c-0.3,1.5-0.3,2.4,0,2.8c0.5,0.5,1.7,0.1,3.7-1.3c1.9-1.4,4.1-3.1,6.5-5.3h0.1c0.3-0.3,0.7-0.6,1-0.9
				C122.5,217.8,122.8,217.5,123.2,217.1z"/>
			<path class="st3" d="M169.7,216.7c-1.1,1.5-2.4,3-3.8,4.6c-1.4,1.6-2.9,3.1-4.5,4.5c-1.6,1.4-3.1,2.6-4.6,3.5
				c-1.5,0.9-3,1.3-4.4,1.3c-0.7,0-1.3-0.2-2-0.5c-0.6-0.3-1.1-0.8-1.6-1.4c-0.4-0.5-0.8-1.3-1.1-2.2c-0.3-0.9-0.5-2.1-0.5-3.6
				c0-2.2,0.5-5,1.6-8.5c1.1-3.5,3.2-7.9,6.2-13.2c3.7-6.4,7.6-11.3,11.7-14.7c4-3.4,7.5-5.1,10.4-5.1c2,0,3.5,0.7,4.5,2.1
				c1,1.4,1.5,3.3,1.5,5.7c0,2.8-0.6,6.3-1.8,10.5h0.4c0.3,0.1,0.6,0.2,0.9,0.3c0.2,0.2,0.4,0.4,0.6,0.6c0.2,0.2,0.3,0.5,0.3,1
				c0,0.4-0.5,1.5-1.6,3.3c-1,1.8-2.2,3.9-3.5,6.2c-1.3,2.4-2.4,4.8-3.5,7.3c-1,2.5-1.6,4.7-1.6,6.4c0,1.5,0.6,2.2,1.7,2.2
				c1,0,2.3-0.6,4-1.7c1.7-1.1,3.4-2.3,5-3.7c1.9-1.6,3.9-3.4,6-5.5c0.3-0.2,0.6-0.4,0.9-0.6c0.3-0.2,0.5-0.4,0.7-0.6
				c0.2-0.2,0.4-0.2,0.6-0.2c0.3,0,0.4,0.2,0.4,0.5l0.1,0.3c0,0.3-0.2,0.8-0.5,1.4c-0.3,0.6-0.9,1.5-1.9,2.5
				c-0.4,0.4-1.3,1.2-2.5,2.4c-1.3,1.2-2.7,2.4-4.2,3.7c-1.6,1.3-3.2,2.4-4.9,3.4c-1.7,1-3.2,1.5-4.5,1.5c-2,0-3.4-0.9-4.2-2.6
				c-0.8-1.7-1.2-3.7-1.2-5.9C169,220.3,169.2,218.5,169.7,216.7z M161,204.6c-1.1,1.9-2.2,3.8-3.3,5.8c-1,2-2,3.9-2.7,5.7
				c-0.8,1.8-1.4,3.5-1.9,5c-0.5,1.5-0.7,2.7-0.7,3.5c0,0.7,0.3,1.1,0.8,1.1c0.7,0,1.8-0.5,3.3-1.6c1.5-1,3.2-2.4,5-4
				c1.8-1.6,3.7-3.4,5.7-5.4c2-2,3.7-3.9,5.3-5.8c0.4-0.8,0.8-1.7,1.2-2.6c0.4-0.9,0.8-1.8,1.4-2.8c0.3-0.5,0.6-1,0.9-1.4
				c0.3-0.4,0.8-0.8,1.3-1.3c0.5-0.4,1.2-0.7,2.1-0.9c0.2-1.2,0.3-2.4,0.5-3.8c0.2-1.4,0.3-2.6,0.3-3.8c0-1.4-0.2-2.5-0.6-3.5
				c-0.4-0.9-1.1-1.4-2.2-1.4c-1.1,0-2.4,0.5-3.8,1.6c-1.4,1-2.9,2.4-4.4,4.1c-1.5,1.7-2.9,3.5-4.4,5.5
				C163.4,200.8,162.1,202.7,161,204.6z"/>
			<path class="st3" d="M193.6,229.3c-1.7-1.2-2.7-2.9-3.3-5.3c-0.4-2-0.4-4.7,0.1-8.2s2.1-7.9,4.8-13.4c2.5-5,5.2-9.3,8.1-12.7
				c1.1-1.5,2.4-2.9,3.7-4.2c1.3-1.3,2.7-2.4,4.2-3.1s2.9-1.3,4.3-1.4c1.4-0.2,2.8,0.2,4.2,1c0.6,0.4,1.1,1,1.6,1.7
				c0.4,0.6,0.8,1.4,1,2.4c0.2,1,0.3,2.2,0.2,3.7c-0.2,1.3-0.5,2.5-0.9,3.6c-0.4,0.9-1,1.8-1.7,2.7c-0.7,0.8-1.7,1.4-2.9,1.6
				c-0.7,0.1-1.2,0.1-1.5-0.2c-0.3-0.2-0.5-0.4-0.6-0.5c-0.6-0.7-1-1.6-1-2.5c0.1-0.5,0.3-0.9,0.7-1.1c0.3-0.2,0.7-0.4,0.9-0.6
				c0.7-0.2,1.5-0.7,2.3-1.4c0.9-0.7,1.3-2,1.4-3.8c-1.3,0-2.9,0.6-4.7,1.7c-1.6,1.2-3.5,3-5.9,5.4c-2.3,2.5-5.1,6.2-8.3,11.2
				c-1.7,2.9-3.1,5.7-4.2,8.3c-1,2.2-1.6,4.3-1.9,6.4c-0.3,2,0.2,3.5,1.4,4.3c1.1,0.7,2.7,0.9,4.8,0.4c2-0.5,4.3-1.4,6.8-2.9
				c2.5-1.5,5-3.4,7.7-5.7c2.7-2.4,5.2-5.1,7.6-8.3c0.8-1,1.5-2,2.2-3c0.7-0.9,1.3-1.8,1.8-2.7c0.6-0.9,1.2-1.8,1.7-2.7
				c0.4-0.5,0.8-1,1.2-1.4c0.3-0.3,0.5-0.5,0.8-0.6c0.3-0.1,0.4,0.2,0.4,0.9c0,0.4,0,0.8-0.1,1.3c-0.1,0.7-0.5,1.7-1.3,3
				c-0.3,0.5-1,1.6-2,3.2c-1,1.6-2.2,3.3-3.5,5.1c-3,3.5-5.9,6.6-8.9,9.3c-1.3,1.2-2.7,2.3-4.1,3.4c-1.4,1.1-2.9,2.1-4.4,3
				c-1.5,0.9-3,1.6-4.5,2c-1.5,0.5-2.9,0.7-4.3,0.7c-0.2,0.2-0.3,0.4-0.3,0.6s0,0.3-0.1,0.4l-0.1,0.3l-0.9,3.3
				c-0.2,0.3-0.3,0.6-0.3,0.9s-0.1,0.6-0.3,0.9c2.8-0.7,4.9-1.1,6.5-1.1c1.5,0,2.6,0.2,3.3,0.5c0.7,0.4,1.1,0.8,1.2,1.4
				c0.1,0.6,0.1,1.1,0,1.5c-0.2,0.7-0.6,1.5-1.2,2.2c-0.7,0.7-1.4,1.4-2.2,2.1c-0.8,0.7-1.6,1.3-2.4,1.7c-0.8,0.5-1.5,0.9-2.2,1.2
				c-3.1,1.6-5.3,2.1-6.7,1.7c-1.3-0.5-2.1-1.3-2.3-2.4c-0.3-1.2-0.1-3,0.4-5.7c-0.5,0.1-1.2,0.2-2,0.4c-0.8,0.2-1.7,0.3-2.5,0.3
				c-0.8,0.1-1.6,0.1-2.3,0.2c-0.7,0.1-1.3,0.1-1.6,0.1c-0.4-0.1-0.9-0.3-1.4-0.7c-0.5-0.4-0.4-0.6,0.4-0.7l2.2-0.3
				c1.2-0.1,2.5-0.3,3.9-0.5c1.4-0.2,2.7-0.4,3.9-0.6c0.2-0.5,0.3-1,0.5-1.4c0.2-0.4,0.3-0.8,0.5-1.3c0.2-0.4,0.3-0.8,0.5-1.3
				c0.4-1.3,0.8-2.2,1.1-2.8c0.3-0.6,0.5-1.2,0.7-1.6C193.7,229.5,193.6,229.4,193.6,229.3z M195.2,242.1c0,0.6,0.2,1.1,0.5,1.4
				c0.3,0.3,0.7,0.5,1.1,0.7c0.4,0.2,0.7,0.3,1,0.3c0.3,0.1,0.4,0.1,0.3,0.1c0.2-0.1,0.3-0.2,0.5-0.2c0.1,0,0.3-0.1,0.5-0.3
				c1.4-0.6,2.6-1.4,3.5-2.2c1-0.8,1.5-1.4,1.6-1.7c0.3-1,0-1.8-0.8-2.1c-0.8-0.4-1.8-0.5-2.9-0.5c-1.1,0-2.2,0.1-3.3,0.4
				c-1,0.3-1.7,0.4-2,0.6c-0.2,0.6-0.3,1.3-0.3,1.9C194.8,241,194.9,241.5,195.2,242.1z"/>
			<path class="st3" d="M262.7,203.7c-1.2,0.4-2.6,0.7-4.2,0.7c-1.6,0.1-3.2-0.1-4.6-0.4c-1,2.2-2.1,4.9-3.5,7.9
				c-1.4,3.1-3.1,6-5.2,8.7c-2.1,2.7-4.5,5.1-7.4,7c-2.8,1.9-6.1,2.9-9.8,2.8c-1.1,0-2.2-0.2-3.2-0.5c-1-0.3-1.9-0.8-2.6-1.6
				c-0.7-0.7-1.3-1.7-1.8-3c-0.4-1.3-0.7-2.9-0.7-5c0-3.1,0.5-6.5,1.5-10.1c1-3.6,2.4-7.1,4.2-10.4c1.8-3.3,4-6.3,6.7-9
				c2.6-2.7,5.5-4.6,8.7-5.7c0.4-1.6,1-2.6,1.7-3.2c0.7-0.6,1.5-0.9,2.5-0.9c1.7,0,3.1,0.5,4.3,1.4c1.2,0.9,2.2,2.2,2.9,3.6
				c0.7,1.5,1.3,3.1,1.6,5c0.3,1.8,0.5,3.6,0.5,5.3c0,0.7,0,1.4,0,2c0,0.6,0,1.3-0.1,2c0,0.3,0.3,0.5,1,0.6c0.7,0.1,1.5,0.1,2.5,0.1
				c1-0.1,1.9-0.1,2.8-0.2c0.9-0.1,1.5-0.1,1.8-0.1c1,0,1.4,0.5,1.4,1.4C263.8,203,263.4,203.5,262.7,203.7z M250.5,202.9
				c-2.8-1.3-4.9-2.7-6.3-4.4c-1.4-1.7-2.4-3.5-3-5.3c-1.8,1-3.8,2.7-5.8,5c-2,2.3-3.9,4.7-5.6,7.5c-1.7,2.7-3.1,5.5-4.2,8.4
				c-1.1,2.9-1.7,5.5-1.7,7.8c0,1.8,0.5,2.9,1.5,3.5c1,0.5,2.1,0.8,3.3,0.8c0.4,0,0.8,0,1.2,0c0.3,0,0.7-0.1,1-0.2
				c0.3-0.1,0.7-0.2,1-0.3c4.3-1.6,8.2-4.3,11.4-8.1c3.3-3.8,5.6-8.5,7.1-13.9V202.9z M251.3,198.2c0-4-0.6-7.2-1.7-9.8
				c-1.1-2.5-2.3-3.8-3.7-3.8c-0.9,0-1.5,0.5-1.8,1.4c-0.3,0.9-0.5,1.8-0.5,2.7c0,1.7,0.3,3.1,0.9,4.4c0.3,0.6,0.7,1.3,1,1.9
				c1.3,1.9,3.2,3.4,5.6,4.6v-0.8C251.1,198.5,251.2,198.3,251.3,198.2z"/>
			<path class="st3" d="M284.3,189.2c0.2-7,1.2-13.7,3.1-20.1c1.9-6.4,4.6-12.1,8.1-17.1c3.5-5,7.9-9.2,13.1-12.4
				c5.2-3.2,11.3-5.1,18.3-5.7c3.9-0.3,8.1,0,12.5,0.9c4.4,0.9,8.5,2.7,12.3,5.2c3.8,2.5,7,6,9.6,10.5s4.1,10.1,4.4,16.8
				c0.1,1.3,0.1,3.1-0.1,5.6c-0.1,2.5-0.4,5-0.8,7.5s-1,4.8-1.8,6.7c-0.8,1.9-1.9,3-3.2,3.1c-0.7,0.1-1.2-0.2-1.6-0.8
				c-0.4-0.6-0.6-1.4-0.7-2.2c-0.2-1.6,0.4-3.2,1.8-4.9c0.6-0.7,1.1-1.4,1.5-2c0.4-0.6,0.8-1.2,1.1-2c0.3-0.7,0.6-1.5,0.8-2.4
				c0.3-1.4,0.4-2.8,0.5-4.2c0-1.4,0-2.8-0.1-4.2c-0.3-4.6-1.1-8.6-2.5-12c-1.4-3.4-3.1-6.2-5.2-8.5c-2.1-2.3-4.4-4.1-7-5.5
				c-2.6-1.4-5.1-2.4-7.7-3.2c-2.6-0.7-5-1.2-7.4-1.3s-4.3-0.2-6-0.1c-4.2,0.3-8.5,1.4-13.1,3.2c-4.6,1.8-8.8,4.7-12.6,8.7
				c-3.9,4-7.1,9.3-9.8,15.9c-2.7,6.6-4.3,14.8-4.8,24.7c-0.3,5.6,0.1,10.6,1.2,15c1,4.5,2.5,8.4,4.5,11.8c2,3.4,4.2,6.3,6.8,8.7
				c2.6,2.4,5.3,4.3,8.1,5.7c2.8,1.4,5.6,2.4,8.4,2.9c2.8,0.5,5.3,0.7,7.6,0.5c5.4,0,10.5-1.1,15.4-3.3c4.9-2.2,9.4-5.1,13.7-8.6
				c4.3-3.5,8.2-7.5,11.9-11.8c3.6-4.3,7-8.5,10.2-12.6c3.1-4.2,6.1-8.4,9.1-12.5c2.9-4.1,5.6-8.2,8-12.2c1-11.7,2.5-20.2,4.6-25.5
				c2.1-5.2,4.2-7.9,6.4-7.9c1.5,0,2.6,0.8,3.5,2.3c0.8,1.5,1.2,3.1,1.2,4.8c0,1.6-0.4,3.7-1.2,6.4c-0.8,2.7-1.8,5.6-3.1,8.7
				c-1.3,3.1-2.7,6.2-4.3,9.4c-1.6,3.2-3.1,6.2-4.7,9c0,3.7,0,7.7,0.1,12c0.1,4.3,0.3,9,0.8,14c1.8-2.8,4.2-6.4,7.2-10.9
				c3-4.4,6.3-9.1,9.8-14.1c3.5-5,7.2-10,11-15c3.8-5,7.4-9.6,10.8-13.6c3.4-4,6.6-7.3,9.5-9.9c2.9-2.6,5.2-3.9,6.9-3.9h0.9
				c0.1,0,0.4,0,0.9,0.1c0.5,0.1,1.1,0.3,1.7,0.8c0.6,0.5,1.2,1.2,1.7,2.2c0.5,1,0.8,2.4,0.8,4.3c0,0.2-0.9,1.7-2.7,4.6
				c-1.8,2.8-4.1,6.6-6.8,11.2c-2.8,4.7-5.9,10.1-9.4,16.2c-3.5,6.1-7,12.7-10.4,19.6c-1.2,2.4-2.5,5-3.8,7.7
				c-1.3,2.7-2.6,5.3-3.7,7.9c-1.1,2.5-2,4.8-2.7,6.8c-0.7,2-1.1,3.6-1.1,4.6c0,1.5,0.5,2.2,1.6,2.2c1,0,2.3-0.6,4-1.7
				c1.7-1.1,3.4-2.3,5.1-3.7c1.9-1.6,3.9-3.4,6-5.5c0.2-0.2,0.4-0.4,0.8-0.6c0.2-0.2,0.4-0.4,0.7-0.6c0.3-0.2,0.5-0.2,0.7-0.2
				c0.3,0,0.4,0.2,0.4,0.6c0,0.2-0.1,0.7-0.3,1.3c-0.2,0.7-0.9,1.6-2,2.8c-0.4,0.4-1.3,1.2-2.5,2.4c-1.2,1.2-2.6,2.4-4.2,3.7
				c-1.6,1.3-3.3,2.4-5,3.4c-1.7,1-3.2,1.5-4.5,1.5c-2,0-3.4-0.9-4.2-2.7c-0.8-1.8-1.2-3.8-1.2-6c0-2.8,0.8-6.5,2.5-11.1
				c1.7-4.6,3.7-9.5,6.3-14.8c2.5-5.3,5.3-10.8,8.4-16.4c3.1-5.7,6.1-11,9.1-16c3-5,5.6-9.4,8-13.2c2.3-3.8,4.1-6.6,5.2-8.4
				c-0.4,0-1,0.2-1.7,0.6c-0.7,0.4-1.6,1.1-2.7,2.1c-1.1,1-2.5,2.4-4,4.2c-1.5,1.8-3.3,4.2-5.4,7c-2.4,3.4-5,7.2-7.8,11.4
				c-2.8,4.2-5.6,8.6-8.4,13.1c-2.8,4.5-5.6,8.9-8.3,13.2c-2.7,4.3-5.2,8.2-7.4,11.6c-2.3,3.4-4.2,6.1-5.9,8.2
				c-1.7,2-2.8,3.1-3.5,3.1c-2.2,0-3.5-0.8-4.1-2.3c-0.6-1.5-0.8-3.2-0.8-5c0-4.4,0.1-8.6,0.2-12.6c0.1-4,0.3-7.7,0.5-11
				c-20.8,34.5-42.8,51.6-66,51.4c-6.8,0-12.7-1.2-17.7-3.5c-5-2.4-9.2-5.6-12.6-9.8c-3.3-4.2-5.9-9.2-7.6-15.1
				C285.1,202.8,284.3,196.3,284.3,189.2z M395,165.5c-0.1,0.1-0.1,0.3-0.1,0.6c0,0.2,0,0.5-0.1,0.8c0,0.3-0.1,0.7-0.1,1.1
				c5.7-9.8,8.6-16.9,8.6-21.5c0-1.2-0.1-2-0.4-2.4c-0.3-0.5-0.6-0.8-0.9-1c-0.3,0.2-0.8,0.6-1.4,1.2c-0.6,0.6-1.2,1.7-1.9,3.3
				c-0.7,1.6-1.3,3.9-2,6.8C396,157.1,395.4,160.8,395,165.5z"/>
			<path class="st3" d="M453.9,216.7c-1.1,1.5-2.4,3-3.8,4.6c-1.4,1.6-2.9,3.1-4.5,4.5c-1.6,1.4-3.1,2.6-4.6,3.5
				c-1.5,0.9-3,1.3-4.4,1.3c-0.7,0-1.3-0.2-2-0.5c-0.6-0.3-1.1-0.8-1.6-1.4c-0.4-0.5-0.8-1.3-1.1-2.2c-0.3-0.9-0.5-2.1-0.5-3.6
				c0-2.2,0.5-5,1.6-8.5c1.1-3.5,3.2-7.9,6.2-13.2c3.7-6.4,7.6-11.3,11.7-14.7c4-3.4,7.5-5.1,10.4-5.1c2,0,3.5,0.7,4.5,2.1
				c1,1.4,1.5,3.3,1.5,5.7c0,2.8-0.6,6.3-1.8,10.5h0.4c0.3,0.1,0.6,0.2,0.9,0.3c0.2,0.2,0.4,0.4,0.6,0.6c0.2,0.2,0.3,0.5,0.3,1
				c0,0.4-0.5,1.5-1.6,3.3c-1,1.8-2.2,3.9-3.5,6.2c-1.3,2.4-2.4,4.8-3.5,7.3c-1,2.5-1.6,4.7-1.6,6.4c0,1.5,0.6,2.2,1.7,2.2
				c1,0,2.3-0.6,4-1.7c1.7-1.1,3.4-2.3,5-3.7c1.9-1.6,3.9-3.4,6-5.5c0.3-0.2,0.6-0.4,0.9-0.6c0.3-0.2,0.5-0.4,0.7-0.6
				c0.2-0.2,0.4-0.2,0.6-0.2c0.3,0,0.4,0.2,0.4,0.5l0.1,0.3c0,0.3-0.2,0.8-0.5,1.4c-0.3,0.6-0.9,1.5-1.9,2.5
				c-0.4,0.4-1.3,1.2-2.5,2.4c-1.3,1.2-2.7,2.4-4.2,3.7c-1.6,1.3-3.2,2.4-4.9,3.4c-1.7,1-3.2,1.5-4.5,1.5c-2,0-3.4-0.9-4.2-2.6
				c-0.8-1.7-1.2-3.7-1.2-5.9C453.2,220.3,453.4,218.5,453.9,216.7z M445.2,204.6c-1.1,1.9-2.2,3.8-3.3,5.8c-1,2-2,3.9-2.7,5.7
				c-0.8,1.8-1.4,3.5-1.9,5c-0.5,1.5-0.7,2.7-0.7,3.5c0,0.7,0.3,1.1,0.8,1.1c0.7,0,1.8-0.5,3.3-1.6c1.5-1,3.2-2.4,5-4
				c1.8-1.6,3.7-3.4,5.7-5.4c2-2,3.7-3.9,5.3-5.8c0.4-0.8,0.8-1.7,1.2-2.6c0.4-0.9,0.8-1.8,1.4-2.8c0.3-0.5,0.6-1,0.9-1.4
				c0.3-0.4,0.8-0.8,1.3-1.3c0.5-0.4,1.2-0.7,2.1-0.9c0.2-1.2,0.3-2.4,0.5-3.8c0.2-1.4,0.3-2.6,0.3-3.8c0-1.4-0.2-2.5-0.6-3.5
				c-0.4-0.9-1.1-1.4-2.2-1.4c-1.1,0-2.4,0.5-3.8,1.6c-1.4,1-2.9,2.4-4.4,4.1c-1.5,1.7-2.9,3.5-4.4,5.5
				C447.6,200.8,446.3,202.7,445.2,204.6z M460.7,171.6c1.7,0.8,3.2,1.4,4.3,1.6c1.1,0.2,2,0.4,2.7,0.5c0.7,0.1,1.3,0.3,1.7,0.5
				c0.4,0.2,0.9,0.7,1.3,1.6c0.3,0.7,0.5,1.4,0.5,2.1c0,0.7-0.3,1.2-0.7,1.5c-0.8,0.5-1.7,0.6-2.7,0.2c-1-0.4-2-0.9-2.9-1.6
				c-1-0.7-1.8-1.3-2.5-2c-0.7-0.6-1.1-1-1.2-1.1c-0.7-0.8-1.4-1.7-2.2-2.4c-0.8-0.8-1.3-1.8-1.6-2.9c0-0.2,0.1-0.3,0.3-0.2
				c0.2,0.1,0.4,0.3,0.7,0.6c0.3,0.3,0.7,0.6,1,0.9S460.3,171.5,460.7,171.6z"/>
			<path class="st3" d="M435.8,253.6c0.5,1.3,1.5,2.3,2.8,3.1c1.3,0.8,2.8,1.4,4.5,1.9c1.7,0.5,3.4,0.8,5.2,1
				c1.8,0.2,3.4,0.3,4.8,0.3c4.4,0,8.7-1.3,12.7-4c4-2.7,7.8-6,11.2-10.1c3.4-4.1,6.6-8.5,9.4-13.2c2.8-4.7,5.3-9.1,7.4-13.2
				c-1.1,1.3-2.3,2.6-3.7,3.9c-1.3,1.4-2.6,2.6-3.9,3.6c-1.3,1-2.6,1.9-4,2.6c-1.3,0.7-2.6,1-3.7,1c-0.7,0-1.3-0.2-2-0.5
				c-0.6-0.3-1.1-0.8-1.6-1.4c-0.4-0.5-0.8-1.3-1.1-2.2c-0.3-0.9-0.5-2.1-0.5-3.6c0-2.2,0.5-5,1.6-8.5c1.1-3.5,3.2-7.9,6.2-13.2
				c3.7-6.4,7.6-11.3,11.7-14.7c4-3.4,7.5-5.1,10.4-5.1c2,0,3.5,0.7,4.5,2.1c1,1.4,1.5,3.3,1.5,5.7c0,2.8-0.6,6.3-1.8,10.5h0.4
				c0.3,0.1,0.6,0.2,0.9,0.3c0.2,0.2,0.4,0.4,0.6,0.6c0.2,0.2,0.3,0.5,0.3,1c0,0.7-0.4,1.8-1.2,3.1c-0.4,0.7-1.2,1.9-2.2,3.5
				c-1,1.6-2,3.3-3,5.3c-1,1.9-1.9,3.9-2.6,6c-0.7,2-1.1,3.9-1.1,5.4c0,1.5,0.6,2.2,1.7,2.2c1,0,2.3-0.6,4-1.7
				c1.7-1.1,3.4-2.3,5-3.7c1.9-1.6,3.9-3.4,6-5.5c0.3-0.2,0.6-0.4,0.9-0.6c0.3-0.2,0.5-0.4,0.7-0.6c0.2-0.2,0.4-0.2,0.6-0.2
				c0.3,0,0.4,0.2,0.4,0.5c0.1-0.1,0.1,0.2,0.1,0.9c0,0.7-0.8,1.8-2.3,3.4c-0.5,0.5-1.4,1.4-2.7,2.6c-1.3,1.2-2.7,2.4-4.3,3.7
				c-1.6,1.3-3.3,2.4-5,3.3c-1.7,0.9-3.3,1.4-4.6,1.4c-1.7-0.1-2.9-1-3.8-2.7c-2.2,3.9-4.7,7.9-7.7,12c-3,4.1-6.2,7.9-9.8,11.3
				c-3.6,3.4-7.5,6.2-11.8,8.4c-4.3,2.2-8.7,3.3-13.4,3.3c-3.7,0-7.4-0.7-11.3-2c-3.9-1.3-7.5-3.3-10.8-6.1c-0.3-0.2-0.7-0.5-1-0.9
				c-0.3-0.3-0.7-0.7-1-1.1c-0.3-0.4-0.6-0.9-0.8-1.4c-0.4-0.8-0.6-1.7-0.5-2.6c0.1-0.9,0.5-1.5,1-2c0.9-0.6,1.6-0.8,2.3-0.4
				c0.7,0.4,1.2,0.9,1.8,1.7c0.5,0.8,1,1.7,1.4,2.7C435.1,252,435.5,252.8,435.8,253.6z M478.7,225.7c0.1,0.1,0.3,0.2,0.5,0.2
				c0.7,0,1.8-0.5,3.3-1.6c1.5-1,3.2-2.4,5-4c1.8-1.6,3.7-3.4,5.7-5.4c2-2,3.7-3.9,5.3-5.8c0.4-0.8,0.8-1.7,1.2-2.6
				c0.4-0.9,0.8-1.8,1.4-2.8c0.3-0.5,0.6-1,0.9-1.4c0.3-0.4,0.8-0.8,1.3-1.3c0.5-0.4,1.2-0.7,2.1-0.9c0.2-1.2,0.3-2.4,0.5-3.7
				c0.2-1.3,0.3-2.5,0.3-3.7c0-1.5-0.2-2.7-0.6-3.6c-0.4-0.9-1.1-1.4-2.2-1.4c-1.6,0-3.3,0.8-5.1,2.3c-1.8,1.5-3.7,3.5-5.5,5.8
				c-1.8,2.4-3.6,5-5.3,7.9c-1.7,2.9-3.3,5.7-4.6,8.5c-1.3,2.8-2.4,5.3-3.3,7.5c-0.8,2.3-1.2,4-1.2,5.1
				C478.5,225.2,478.6,225.5,478.7,225.7z"/>
			<path class="st3" d="M520.1,230.6c-1.2-0.1-2.2-0.6-2.8-1.3s-1.1-1.8-1.4-2.9c-0.3-1.2-0.4-2.4-0.4-3.9c0-1.4,0.2-2.8,0.5-4
				c0.3-1.7,0.8-3.6,1.6-5.7c0.8-2.1,1.8-4.4,2.8-6.6c1-2.3,2.1-4.4,3.2-6.4c1.1-2,2-3.8,2.8-5.3c0.3-0.6,0.7-1.3,1-1.9
				c0.3-0.6,0.6-1.2,1-1.7c0.8-1.5,1.6-2.9,2.3-4.2c0.8-1.4,1.6-2.8,2.5-4.2l0.1-0.2c0.2-0.2,0.4-0.4,0.7-0.7
				c0.3-0.3,0.6-0.3,0.9-0.1c0.3,0.2,0.8,0.5,1.3,0.8c0.5,0.3,0.9,0.8,1.2,1.5c0.3,0.7,0.3,1.5,0.3,2.5c-0.1,1-0.5,2.3-1.3,3.9
				c-0.7,1.4-1.3,2.5-1.7,3.3c-0.4,0.8-0.8,1.5-1,2c-0.1,0.2-0.2,0.4-0.4,0.6c-0.2,0.2-0.6,0.9-1.2,2.1c-0.6,1.2-1.3,2.6-2.2,4.2
				c-0.9,1.6-1.8,3.3-2.7,5c-0.9,1.8-1.7,3.4-2.4,4.7v0.2l-0.5,1.1c-0.6,1.2-1.2,2.3-1.6,3.3c-0.5,1-0.9,2.1-1.2,3.1
				c-0.5,1.3-0.9,2.4-1.2,3.5c-0.2,0.8-0.3,1.6-0.3,2.4c0,0.7,0.3,1.2,0.8,1.4c0.9,0.3,2.2-0.1,3.9-1.1c1.7-1,3.5-2.3,5.2-3.8
				c2.1-1.7,4.3-3.6,6.5-5.8c0.5-0.4,1-0.8,1.4-1.1c0.3-0.2,0.7-0.3,1-0.2c0.3,0.1,0.4,0.3,0.2,0.9c-0.1,0.4-0.3,0.8-0.5,1.3
				c-0.4,0.8-1,1.7-1.8,2.5c-0.4,0.4-1.3,1.3-2.6,2.5c-1.3,1.3-2.8,2.5-4.4,3.9c-1.6,1.3-3.3,2.4-5,3.4
				C522.9,230.3,521.4,230.7,520.1,230.6z M540.2,179.9c-0.8,1-1.4,1.5-1.8,1.3h-0.3c-0.3-0.3-0.5-0.8-0.6-1.4c0-0.6,0-1.3,0-2
				c0-0.7,0.1-1.3,0.3-1.8c0.1-0.5,0.2-0.9,0.2-1.1c0-0.2,0-0.3,0.1-0.3c0.3-0.9,0.6-1.8,0.9-2.7c0.3-0.7,0.7-1.4,1.1-2
				c0.4-0.6,0.9-1,1.6-1.2c0.8-0.2,1.4-0.1,1.9,0.4c0.5,0.5,0.8,1.1,0.9,2c0.1,0.8,0.1,1.8-0.2,2.8c-0.3,1-0.8,2-1.7,3
				c-0.3,0.3-0.6,0.6-0.9,0.9c-0.3,0.3-0.5,0.6-0.8,0.9S540.4,179.5,540.2,179.9z"/>
			<path class="st3" d="M539.6,229.3c-1.7-1.2-2.7-2.9-3.3-5.3c-0.4-2-0.4-4.7,0.1-8.2c0.5-3.5,2.1-7.9,4.8-13.4
				c2.5-5,5.2-9.3,8.1-12.7c1.1-1.5,2.4-2.9,3.7-4.2c1.3-1.3,2.7-2.4,4.2-3.1s2.9-1.3,4.3-1.4c1.4-0.2,2.8,0.2,4.2,1
				c0.6,0.4,1.1,1,1.6,1.7c0.4,0.6,0.8,1.4,1,2.4c0.2,1,0.3,2.2,0.2,3.7c-0.2,1.3-0.5,2.5-0.9,3.6c-0.4,0.9-1,1.8-1.7,2.7
				c-0.7,0.8-1.7,1.4-2.9,1.6c-0.7,0.1-1.2,0.1-1.5-0.2c-0.3-0.2-0.5-0.4-0.6-0.5c-0.6-0.7-1-1.6-1-2.5c0.1-0.5,0.3-0.9,0.7-1.1
				c0.3-0.2,0.7-0.4,0.9-0.6c0.7-0.2,1.5-0.7,2.3-1.4c0.9-0.7,1.3-2,1.4-3.8c-1.3,0-2.9,0.6-4.7,1.7c-1.6,1.2-3.5,3-5.9,5.4
				c-2.3,2.5-5.1,6.2-8.3,11.2c-1.7,2.9-3.1,5.7-4.2,8.3c-1,2.2-1.6,4.3-1.9,6.4c-0.3,2,0.2,3.5,1.4,4.3c1.1,0.7,2.7,0.9,4.8,0.4
				c2-0.5,4.3-1.4,6.8-2.9c2.5-1.5,5-3.4,7.7-5.7c2.7-2.4,5.2-5.1,7.6-8.3c0.8-1,1.5-2,2.2-3c0.7-0.9,1.3-1.8,1.8-2.7
				c0.6-0.9,1.2-1.8,1.7-2.7c0.4-0.5,0.8-1,1.2-1.4c0.3-0.3,0.5-0.5,0.8-0.6c0.3-0.1,0.4,0.2,0.4,0.9c0,0.4,0,0.8-0.1,1.3
				c-0.1,0.7-0.5,1.7-1.3,3c-0.3,0.5-1,1.6-2,3.2c-1,1.6-2.2,3.3-3.5,5.1c-3.6,4.4-7.1,8.1-10.7,11c-1.6,1.3-3.2,2.5-4.8,3.6
				c-1.7,1.2-3.3,2.1-5,2.8c-1.7,0.7-3.3,1.1-5,1.2C542.5,230.4,541,230.1,539.6,229.3z"/>
			<path class="st3" d="M608.8,203.7c-1.2,0.4-2.6,0.7-4.2,0.7c-1.6,0.1-3.2-0.1-4.6-0.4c-1,2.2-2.1,4.9-3.5,7.9
				c-1.4,3.1-3.1,6-5.2,8.7c-2.1,2.7-4.5,5.1-7.4,7c-2.8,1.9-6.1,2.9-9.8,2.8c-1.1,0-2.2-0.2-3.2-0.5c-1-0.3-1.9-0.8-2.6-1.6
				c-0.7-0.7-1.3-1.7-1.8-3c-0.4-1.3-0.7-2.9-0.7-5c0-3.1,0.5-6.5,1.5-10.1c1-3.6,2.4-7.1,4.2-10.4c1.8-3.3,4-6.3,6.7-9
				c2.6-2.7,5.5-4.6,8.7-5.7c0.4-1.6,1-2.6,1.7-3.2c0.7-0.6,1.5-0.9,2.5-0.9c1.7,0,3.1,0.5,4.3,1.4c1.2,0.9,2.2,2.2,2.9,3.6
				c0.7,1.5,1.3,3.1,1.6,5c0.3,1.8,0.5,3.6,0.5,5.3c0,0.7,0,1.4,0,2c0,0.6,0,1.3-0.1,2c0,0.3,0.3,0.5,1,0.6c0.7,0.1,1.5,0.1,2.5,0.1
				c1-0.1,1.9-0.1,2.8-0.2c0.9-0.1,1.5-0.1,1.8-0.1c1,0,1.4,0.5,1.4,1.4C609.8,203,609.5,203.5,608.8,203.7z M596.5,202.9
				c-2.8-1.3-4.9-2.7-6.3-4.4c-1.4-1.7-2.4-3.5-3-5.3c-1.8,1-3.8,2.7-5.8,5c-2,2.3-3.9,4.7-5.6,7.5c-1.7,2.7-3.1,5.5-4.2,8.4
				c-1.1,2.9-1.7,5.5-1.7,7.8c0,1.8,0.5,2.9,1.5,3.5c1,0.5,2.1,0.8,3.3,0.8c0.4,0,0.8,0,1.2,0c0.3,0,0.7-0.1,1-0.2
				c0.3-0.1,0.7-0.2,1-0.3c4.3-1.6,8.2-4.3,11.4-8.1c3.3-3.8,5.6-8.5,7.1-13.9V202.9z M597.3,198.2c0-4-0.6-7.2-1.7-9.8
				c-1.1-2.5-2.3-3.8-3.7-3.8c-0.9,0-1.5,0.5-1.8,1.4c-0.3,0.9-0.5,1.8-0.5,2.7c0,1.7,0.3,3.1,0.9,4.4c0.3,0.6,0.7,1.3,1,1.9
				c1.3,1.9,3.2,3.4,5.6,4.6v-0.8C597.2,198.5,597.2,198.3,597.3,198.2z"/>
		</g>
	</g>
	<g>
		<g>
			<g>
				<g>
					<g>
						<path class="st4" d="M288.5,78.7l-58.6-58.6l0.2-0.2c2.2-2.2,5-3.8,8.2-4.5l0.1,0l0.1,0c4,2.2,8.4,5.6,12.2,9.7
							c6.7,7.1,12.4,15.2,18.4,23.8c6.4,9.1,13.1,18.6,21.5,27.6l0.1,0.2L288.5,78.7z M230.4,20.1l58,58l1.4-1.4
							c-8.3-9-15-18.4-21.4-27.5c-6-8.5-11.7-16.6-18.3-23.7c-3.8-4-8-7.4-12-9.6C235.2,16.6,232.6,18,230.4,20.1z"/>
					</g>
					<g>
						<path class="st4" d="M290.2,77l-0.2-0.2c-8.4-9-15.1-18.5-21.5-27.7c-6-8.5-11.7-16.6-18.3-23.7c-3.8-4.1-8.1-7.5-12.1-9.6
							l-0.5-0.3l0.6-0.1c3.1-0.7,6.4-0.6,9.6,0.3c4.3,1.3,8.2,3.6,11.3,6.8c5.7,5.9,8.8,13.1,11.9,20.1c4.3,9.9,14.3,24.5,21.1,32.3
							l0.1,0.2L290.2,77z M238.8,15.7c3.9,2.2,8,5.5,11.7,9.4c6.7,7.1,12.4,15.2,18.4,23.8c6.4,9.1,13,18.5,21.3,27.4l1.3-1.3
							c-6.8-7.9-16.7-22.4-21-32.3c-3-6.9-6.2-14.1-11.8-20c-3-3.1-6.8-5.4-11.1-6.7C244.7,15.3,241.6,15.2,238.8,15.7z"/>
					</g>
					<g>
						<path class="st4" d="M286.8,80.4l-0.2-0.1c-9-8.4-18.5-15-27.6-21.5c-8.6-6-16.6-11.7-23.8-18.4c-4.1-3.8-7.6-8.2-9.7-12.2
							l0-0.1l0-0.1c0.7-3.1,2.3-5.9,4.5-8.2l0.2-0.2l58.6,58.6L286.8,80.4z M225.9,28.1c2.1,4,5.5,8.2,9.6,12
							c7.1,6.7,15.2,12.3,23.7,18.3c9.1,6.4,18.5,13,27.5,21.4l1.4-1.4l-58-58C228.1,22.5,226.6,25.1,225.9,28.1z"/>
					</g>
					<g>
						<path class="st4" d="M285.2,82l-0.2-0.1c-8-6.9-22.6-16.9-32.3-21.2l-0.3-0.1c-7-3-14.2-6.2-19.9-11.7
							c-3.2-3-5.5-6.9-6.8-11.3v0c-0.9-3.2-1-6.5-0.3-9.6l0.1-0.6l0.3,0.5c2.1,4,5.6,8.3,9.6,12.1c7.1,6.7,15.2,12.3,23.7,18.3
							c9.2,6.4,18.6,13.1,27.7,21.5l0.2,0.2L285.2,82z M226.2,37.5c1.2,4.3,3.5,8.1,6.7,11.1c5.7,5.4,12.8,8.6,19.8,11.6l0.3,0.1
							c9.7,4.2,24.2,14.2,32.2,21.1l1.3-1.3c-9-8.3-18.4-14.9-27.4-21.3c-8.6-6-16.6-11.7-23.8-18.4c-3.9-3.7-7.3-7.8-9.4-11.7
							C225.2,31.6,225.4,34.6,226.2,37.5L226.2,37.5z"/>
					</g>
				</g>
				<g>
					
						<rect x="281.1" y="76.4" transform="matrix(0.7071 -0.7071 0.7071 0.7071 28.5637 228.1302)" class="st4" width="17.1" height="6.3"/>
				</g>
				<g>
					<g>
						<path class="st4" d="M352.8,143.3l0.6-0.6c9.3-8.5-61.3-67.4-61.3-67.4l-6.7,6.7C285.4,82,344.3,152.6,352.8,143.3z
							 M337.5,132.2c-2.4-2.4-3.3-5.4-2-6.7c1.3-1.3,4.3-0.4,6.7,2c2.4,2.4,3.3,5.4,2,6.7C342.9,135.5,339.9,134.6,337.5,132.2z"/>
					</g>
				</g>
			</g>
			<g>
				<path class="st4" d="M386.4,28.2c-0.7-3.1-2.2-5.8-4.4-8c-2.2-2.2-5-3.7-8-4.4c-3-0.7-6.2-0.6-9.4,0.3
					c-4.1,1.2-8.1,3.5-11.2,6.7c-5.5,5.8-8.7,12.9-11.8,20c-3.8,8.7-12.2,21.4-18.9,29.7c-12.6,10.8-72.1,62.7-63.8,70.3l0.6,0.6
					c7.6,8.3,59.5-51.3,70.3-63.8c8.4-6.8,21-15.2,29.7-19c7.2-3.1,14.3-6.2,20.1-11.7c3.2-3.1,5.5-7,6.7-11.2
					C387,34.4,387.1,31.1,386.4,28.2z M274.6,132.3c-2.4,2.4-5.4,3.3-6.7,2c-1.3-1.3-0.4-4.3,2-6.7c2.4-2.4,5.4-3.3,6.7-2
					C277.9,126.8,277,129.9,274.6,132.3z M373.7,47.7c-7.4,7.4-17.7,9.1-23.1,3.7c-5.3-5.3-3.7-15.7,3.7-23.1
					c0.1-0.1,0.2-0.2,0.3-0.3l0.3,0.3c-4.6,6.8-5.1,14.8-0.6,19.3c4.5,4.5,12.5,4,19.3-0.6l0.3,0.3
					C373.8,47.5,373.8,47.6,373.7,47.7z"/>
			</g>
		</g>
	</g>
	<g>
		<g>
			<path class="st0" d="M86.4,277.2c0.2,0.4,0.4,0.8,0.4,1.3c-0.4,0.2-0.9,0.3-1.3,0.4c-0.4,0.1-0.9,0.1-1.4,0.1
				c-0.8,0-1.5-0.1-2.1-0.4c-0.6-0.3-1.2-0.6-1.6-1.1c-0.4-0.5-0.8-1.1-1-1.7c-0.2-0.7-0.3-1.5-0.3-2.3c0-0.9,0.1-1.6,0.3-2.3
				c0.2-0.7,0.6-1.3,1-1.8c0.4-0.5,1-0.9,1.6-1.1c0.6-0.3,1.3-0.4,2.1-0.4c0.6,0,1.1,0,1.5,0.1c0.4,0.1,0.8,0.2,1.1,0.3
				c0,0.2-0.1,0.4-0.1,0.6c-0.1,0.2-0.1,0.4-0.2,0.6c-0.2,0-0.3-0.1-0.4-0.1s-0.3-0.1-0.5-0.1c-0.2,0-0.3-0.1-0.5-0.1
				c-0.2,0-0.4,0-0.7,0c-1.1,0-1.9,0.4-2.6,1.1s-0.9,1.8-0.9,3.2c0,0.7,0.1,1.3,0.3,1.9c0.2,0.5,0.4,1,0.7,1.3
				c0.3,0.3,0.7,0.6,1.1,0.8c0.4,0.2,0.9,0.3,1.5,0.3c0.4,0,0.8,0,1.1-0.1C85.7,277.4,86.1,277.3,86.4,277.2z"/>
			<path class="st0" d="M100.1,279c-0.8,0-1.5-0.1-2-0.4s-1-0.7-1.4-1.2c-0.4-0.5-0.7-1.1-0.8-1.8s-0.3-1.4-0.3-2.2s0.1-1.6,0.3-2.2
				s0.5-1.3,0.8-1.8c0.4-0.5,0.9-0.9,1.4-1.2c0.6-0.3,1.3-0.4,2-0.4c0.8,0,1.5,0.1,2,0.4c0.6,0.3,1,0.7,1.4,1.2
				c0.4,0.5,0.7,1.1,0.8,1.8s0.3,1.4,0.3,2.2s-0.1,1.6-0.3,2.2s-0.5,1.3-0.8,1.8c-0.4,0.5-0.9,0.9-1.4,1.2S100.9,279,100.1,279z
				 M100.1,277.6c0.5,0,0.9-0.1,1.3-0.3c0.4-0.2,0.7-0.5,0.9-0.9c0.2-0.4,0.4-0.8,0.5-1.3c0.1-0.5,0.2-1.1,0.2-1.8
				c0-0.7-0.1-1.2-0.2-1.8c-0.1-0.5-0.3-1-0.5-1.3c-0.2-0.4-0.5-0.6-0.9-0.8c-0.4-0.2-0.8-0.3-1.3-0.3s-0.9,0.1-1.3,0.3
				c-0.4,0.2-0.7,0.5-0.9,0.8c-0.2,0.4-0.4,0.8-0.5,1.3c-0.1,0.5-0.2,1.1-0.2,1.8c0,0.7,0.1,1.3,0.2,1.8c0.1,0.5,0.3,1,0.5,1.3
				c0.2,0.4,0.5,0.7,0.9,0.9C99.2,277.5,99.6,277.6,100.1,277.6z"/>
			<path class="st0" d="M114.4,268c0.1,0,0.2,0,0.4,0c0.1,0,0.2,0,0.4,0s0.2,0,0.4,0c0.1,0,0.2,0,0.4,0l4.7,8.1V268
				c0.1,0,0.2,0,0.4,0c0.1,0,0.3,0,0.4,0c0.1,0,0.2,0,0.3,0c0.1,0,0.2,0,0.3,0v10.8c-0.1,0-0.2,0-0.4,0c-0.1,0-0.2,0-0.4,0
				s-0.2,0-0.4,0c-0.1,0-0.2,0-0.4,0l-4.7-8.1v8.1c-0.1,0-0.2,0-0.4,0c-0.1,0-0.2,0-0.4,0c-0.1,0-0.3,0-0.4,0c-0.1,0-0.2,0-0.3,0
				V268z"/>
			<path class="st0" d="M132.2,268h5.7c0,0.1,0,0.2,0,0.3s0,0.2,0,0.3s0,0.2,0,0.3c0,0.1,0,0.2,0,0.3h-4.1v3.2h3.4
				c0,0.1,0,0.2,0,0.3c0,0.1,0,0.2,0,0.3s0,0.2,0,0.3c0,0.1,0,0.2,0,0.3h-3.4v5c-0.1,0-0.2,0-0.4,0c-0.1,0-0.3,0-0.4,0
				c-0.1,0-0.3,0-0.4,0c-0.1,0-0.3,0-0.4,0V268z"/>
			<path class="st0" d="M147.3,268h5.9c0,0.2,0,0.4,0,0.7c0,0.1,0,0.2,0,0.3c0,0.1,0,0.2,0,0.3h-4.4v3.1h3.5c0,0.1,0,0.2,0,0.3
				c0,0.1,0,0.2,0,0.3c0,0.1,0,0.2,0,0.3s0,0.2,0,0.3h-3.5v3.7h4.5c0,0.2,0,0.4,0,0.7c0,0.1,0,0.2,0,0.3c0,0.1,0,0.2,0,0.3h-6.1V268
				z"/>
			<path class="st0" d="M162.9,268c0.1,0,0.2,0,0.4,0c0.1,0,0.3,0,0.4,0c0.1,0,0.3,0,0.4,0c0.1,0,0.3,0,0.4,0v10.8
				c-0.1,0-0.2,0-0.4,0c-0.1,0-0.3,0-0.4,0c-0.1,0-0.3,0-0.4,0c-0.1,0-0.3,0-0.4,0V268z"/>
			<path class="st0" d="M176.5,269.3h-2.8c0-0.1,0-0.2,0-0.3c0-0.1,0-0.2,0-0.3s0-0.2,0-0.3c0-0.1,0-0.2,0-0.3h7.2
				c0,0.1,0,0.2,0,0.3c0,0.1,0,0.2,0,0.3s0,0.2,0,0.4c0,0.1,0,0.2,0,0.3H178v9.5c-0.2,0-0.5,0-0.8,0c-0.3,0-0.5,0-0.8,0V269.3z"/>
			<path class="st0" d="M194.4,276.3h-4.1l-0.7,2.5c-0.1,0-0.3,0-0.4,0c-0.1,0-0.3,0-0.4,0c-0.1,0-0.3,0-0.4,0s-0.3,0-0.4,0
				l3.5-10.8c0.1,0,0.3,0,0.4,0c0.2,0,0.3,0,0.5,0c0.1,0,0.3,0,0.4,0c0.2,0,0.3,0,0.4,0l3.5,10.8c-0.1,0-0.3,0-0.4,0s-0.3,0-0.4,0
				c-0.1,0-0.3,0-0.4,0c-0.1,0-0.3,0-0.4,0L194.4,276.3z M190.7,274.9h3.3l-1.7-5.5L190.7,274.9z"/>
			<path class="st0" d="M206,267.9c0.2,0,0.4,0,0.6-0.1c0.2,0,0.4,0,0.5-0.1c0.2,0,0.4,0,0.5,0c0.2,0,0.4,0,0.6,0c0.5,0,1,0,1.5,0.2
				s0.9,0.3,1.3,0.5c0.4,0.3,0.7,0.6,1,1c0.2,0.4,0.4,1,0.4,1.6c0,0.4-0.1,0.7-0.2,1.1c-0.1,0.3-0.3,0.6-0.5,0.9s-0.4,0.5-0.7,0.7
				c-0.3,0.2-0.5,0.3-0.7,0.5l-0.2,0.1l3.1,4.6c-0.3,0-0.6,0-0.9,0c-0.3,0-0.5,0-0.8,0l-3.5-5v-0.1l0.1,0c0.3-0.1,0.6-0.2,0.9-0.3
				c0.3-0.1,0.6-0.3,0.8-0.5c0.3-0.2,0.5-0.4,0.6-0.7c0.2-0.3,0.3-0.6,0.3-1c0-0.7-0.2-1.3-0.6-1.6c-0.4-0.4-1-0.5-1.7-0.5
				c-0.2,0-0.3,0-0.5,0c-0.1,0-0.3,0-0.5,0v9.7c-0.1,0-0.2,0-0.4,0c-0.1,0-0.3,0-0.4,0c-0.1,0-0.3,0-0.4,0c-0.1,0-0.3,0-0.4,0V267.9
				z"/>
			<path class="st0" d="M222.4,268c0.1,0,0.2,0,0.4,0c0.1,0,0.3,0,0.4,0c0.1,0,0.3,0,0.4,0c0.1,0,0.3,0,0.4,0v10.8
				c-0.1,0-0.2,0-0.4,0c-0.1,0-0.3,0-0.4,0c-0.1,0-0.3,0-0.4,0c-0.1,0-0.3,0-0.4,0V268z"/>
			<path class="st0" d="M239.5,276.3h-4.1l-0.7,2.5c-0.1,0-0.3,0-0.4,0c-0.1,0-0.3,0-0.4,0c-0.1,0-0.3,0-0.4,0c-0.1,0-0.3,0-0.4,0
				l3.5-10.8c0.1,0,0.3,0,0.4,0c0.2,0,0.3,0,0.5,0c0.1,0,0.3,0,0.4,0c0.2,0,0.3,0,0.4,0l3.5,10.8c-0.1,0-0.3,0-0.4,0
				c-0.2,0-0.3,0-0.4,0c-0.1,0-0.3,0-0.4,0s-0.3,0-0.4,0L239.5,276.3z M235.8,274.9h3.3l-1.7-5.5L235.8,274.9z"/>
		</g>
	</g>
	<g>
		<g>
			<path class="st0" d="M364.3,268c0.3,0,0.8-0.1,1.2-0.1c0.5,0,1-0.1,1.4-0.1c1.9,0,3.3,0.5,4.3,1.4s1.4,2.3,1.4,4.2
				c0,1.9-0.5,3.3-1.4,4.2c-1,0.9-2.4,1.4-4.3,1.4c-0.5,0-0.9,0-1.4-0.1s-0.9-0.1-1.2-0.1V268z M365.8,277.5c0.1,0,0.3,0,0.5,0.1
				c0.2,0,0.4,0,0.7,0c0.6,0,1.1-0.1,1.6-0.2c0.5-0.1,0.9-0.4,1.3-0.7c0.4-0.3,0.6-0.8,0.8-1.3c0.2-0.5,0.3-1.2,0.3-2.1
				c0-0.8-0.1-1.4-0.3-1.9c-0.2-0.5-0.5-1-0.8-1.3c-0.3-0.3-0.8-0.6-1.2-0.7c-0.5-0.2-1-0.2-1.6-0.2c-0.2,0-0.4,0-0.6,0
				s-0.4,0-0.6,0.1V277.5z"/>
			<path class="st0" d="M382.3,268h5.9c0,0.2,0,0.4,0,0.7c0,0.1,0,0.2,0,0.3c0,0.1,0,0.2,0,0.3h-4.4v3.1h3.5c0,0.1,0,0.2,0,0.3
				c0,0.1,0,0.2,0,0.3c0,0.1,0,0.2,0,0.3s0,0.2,0,0.3h-3.5v3.7h4.5c0,0.2,0,0.4,0,0.7c0,0.1,0,0.2,0,0.3c0,0.1,0,0.2,0,0.3h-6.1V268
				z"/>
			<path class="st0" d="M397.6,277.1c0.3,0.1,0.7,0.2,1,0.3c0.4,0.1,0.8,0.1,1.3,0.1c0.8,0,1.4-0.2,1.8-0.5c0.4-0.3,0.6-0.8,0.6-1.4
				c0-0.3,0-0.5-0.1-0.7c-0.1-0.2-0.2-0.4-0.4-0.5c-0.2-0.1-0.4-0.3-0.6-0.4c-0.3-0.1-0.6-0.3-0.9-0.4l-0.9-0.3
				c-0.3-0.1-0.6-0.3-0.8-0.4s-0.4-0.3-0.6-0.5s-0.3-0.5-0.4-0.7c-0.1-0.3-0.2-0.6-0.2-1c0-0.9,0.3-1.6,0.9-2.1
				c0.6-0.5,1.5-0.8,2.6-0.8c0.5,0,0.9,0,1.4,0.1s0.8,0.2,1.1,0.3c0,0.4-0.2,0.8-0.3,1.3c-0.3-0.1-0.6-0.2-0.9-0.3
				c-0.4-0.1-0.8-0.1-1.2-0.1c-0.6,0-1.1,0.1-1.5,0.4c-0.3,0.3-0.5,0.6-0.5,1.2c0,0.2,0,0.4,0.1,0.6c0.1,0.2,0.2,0.3,0.3,0.4
				c0.1,0.1,0.3,0.2,0.5,0.3c0.2,0.1,0.4,0.2,0.6,0.3l0.8,0.3c0.4,0.2,0.8,0.3,1.1,0.5c0.3,0.2,0.6,0.4,0.8,0.6
				c0.2,0.2,0.4,0.5,0.5,0.8s0.2,0.7,0.2,1.1c0,1-0.4,1.8-1.1,2.4c-0.7,0.6-1.7,0.9-3,0.9c-0.3,0-0.6,0-0.8,0s-0.5,0-0.7-0.1
				c-0.2,0-0.4-0.1-0.6-0.2c-0.2-0.1-0.4-0.1-0.6-0.2c0-0.2,0.1-0.4,0.1-0.7C397.5,277.6,397.6,277.4,397.6,277.1z"/>
			<path class="st0" d="M413.7,268c0.3,0,0.8-0.1,1.2-0.1c0.5,0,1-0.1,1.4-0.1c1.9,0,3.3,0.5,4.3,1.4s1.4,2.3,1.4,4.2
				c0,1.9-0.5,3.3-1.4,4.2c-1,0.9-2.4,1.4-4.3,1.4c-0.5,0-0.9,0-1.4-0.1s-0.9-0.1-1.2-0.1V268z M415.2,277.5c0.1,0,0.3,0,0.5,0.1
				c0.2,0,0.4,0,0.7,0c0.6,0,1.1-0.1,1.6-0.2c0.5-0.1,0.9-0.4,1.3-0.7c0.4-0.3,0.6-0.8,0.8-1.3c0.2-0.5,0.3-1.2,0.3-2.1
				c0-0.8-0.1-1.4-0.3-1.9c-0.2-0.5-0.5-1-0.8-1.3c-0.3-0.3-0.8-0.6-1.2-0.7c-0.5-0.2-1-0.2-1.6-0.2c-0.2,0-0.4,0-0.6,0
				s-0.4,0-0.6,0.1V277.5z"/>
			<path class="st0" d="M431.7,268h5.9c0,0.2,0,0.4,0,0.7c0,0.1,0,0.2,0,0.3c0,0.1,0,0.2,0,0.3h-4.4v3.1h3.5c0,0.1,0,0.2,0,0.3
				c0,0.1,0,0.2,0,0.3c0,0.1,0,0.2,0,0.3s0,0.2,0,0.3h-3.5v3.7h4.5c0,0.2,0,0.4,0,0.7c0,0.1,0,0.2,0,0.3c0,0.1,0,0.2,0,0.3h-6.1V268
				z"/>
			<path class="st0" d="M458,278.6l3.1-4c0.2-0.3,0.4-0.6,0.6-0.8c0.2-0.3,0.4-0.6,0.6-0.9c0.2-0.3,0.3-0.6,0.4-0.9
				c0.1-0.3,0.2-0.6,0.2-0.9c0-0.6-0.2-1-0.5-1.3c-0.3-0.3-0.9-0.5-1.6-0.5c-0.4,0-0.8,0-1.2,0.2c-0.3,0.1-0.6,0.2-0.9,0.3
				c-0.1-0.2-0.2-0.4-0.2-0.6c-0.1-0.2-0.1-0.4-0.1-0.6c0.3-0.2,0.7-0.3,1.1-0.4s0.9-0.2,1.5-0.2c0.5,0,1,0.1,1.4,0.2
				c0.4,0.1,0.8,0.3,1.1,0.6c0.3,0.3,0.6,0.6,0.7,1c0.2,0.4,0.3,0.8,0.3,1.3c0,0.6-0.1,1.1-0.3,1.6c-0.2,0.5-0.5,1-0.8,1.5
				c-0.3,0.5-0.7,1-1.2,1.6c-0.5,0.5-1,1.2-1.5,1.8h4c0,0.2,0.1,0.4,0.1,0.7c0,0.1,0,0.2,0,0.3c0,0.1,0,0.2,0,0.3h-6.7L458,278.6z"
				/>
			<path class="st0" d="M482,273.5c0,0.8-0.1,1.5-0.2,2.2c-0.1,0.7-0.4,1.3-0.7,1.7c-0.3,0.5-0.7,0.9-1.2,1.1s-1.1,0.4-1.8,0.4
				s-1.3-0.1-1.8-0.4c-0.5-0.3-0.9-0.7-1.2-1.1c-0.3-0.5-0.5-1.1-0.7-1.7c-0.1-0.7-0.2-1.4-0.2-2.2c0-0.8,0.1-1.5,0.2-2.2
				c0.1-0.7,0.4-1.3,0.7-1.7c0.3-0.5,0.7-0.9,1.2-1.1c0.5-0.3,1.1-0.4,1.8-0.4s1.3,0.1,1.8,0.4c0.5,0.3,0.9,0.7,1.2,1.1
				c0.3,0.5,0.5,1.1,0.7,1.7C481.9,271.9,482,272.7,482,273.5z M478.2,269.3c-1.5,0-2.2,1.4-2.2,4.1c0,2.8,0.7,4.1,2.2,4.1
				s2.2-1.4,2.2-4.1C480.4,270.7,479.6,269.3,478.2,269.3z"/>
			<path class="st0" d="M498.6,273.5c0,0.8-0.1,1.5-0.2,2.2c-0.1,0.7-0.4,1.3-0.7,1.7c-0.3,0.5-0.7,0.9-1.2,1.1s-1.1,0.4-1.8,0.4
				s-1.3-0.1-1.8-0.4c-0.5-0.3-0.9-0.7-1.2-1.1c-0.3-0.5-0.5-1.1-0.7-1.7c-0.1-0.7-0.2-1.4-0.2-2.2c0-0.8,0.1-1.5,0.2-2.2
				c0.1-0.7,0.4-1.3,0.7-1.7c0.3-0.5,0.7-0.9,1.2-1.1c0.5-0.3,1.1-0.4,1.8-0.4s1.3,0.1,1.8,0.4c0.5,0.3,0.9,0.7,1.2,1.1
				c0.3,0.5,0.5,1.1,0.7,1.7C498.5,271.9,498.6,272.7,498.6,273.5z M494.7,269.3c-1.5,0-2.2,1.4-2.2,4.1c0,2.8,0.7,4.1,2.2,4.1
				s2.2-1.4,2.2-4.1C496.9,270.7,496.2,269.3,494.7,269.3z"/>
			<path class="st0" d="M507.3,276.7l-0.1-0.2l4.4-8.6c0.2,0,0.4,0.1,0.7,0.2c0.2,0.1,0.4,0.2,0.7,0.3l-3.5,7h3v-2.9
				c0.1,0,0.2,0,0.4,0c0.1,0,0.2,0,0.3,0c0.1,0,0.3,0,0.4,0c0.1,0,0.2,0,0.4,0v2.9h1.4c0,0.1,0,0.2,0,0.3c0,0.1,0,0.2,0,0.3
				c0,0.1,0,0.2,0,0.3c0,0.1,0,0.2,0,0.3h-1.4v2.1c-0.1,0-0.3,0-0.4,0c-0.1,0-0.2,0-0.4,0c-0.1,0-0.2,0-0.4,0c-0.1,0-0.2,0-0.4,0
				v-2.1H507.3z"/>
		</g>
	</g>
</g>
</svg>
